<svg xmlns="http://www.w3.org/2000/svg" xmlns:xlink="http://www.w3.org/1999/xlink" width="430" zoomAndPan="magnify" viewBox="0 0 322.5 121.500001" height="162" preserveAspectRatio="xMidYMid meet" version="1.0"><defs><g/><clipPath id="ed0fe02970"><path d="M 30 0 L 126.554688 0 L 126.554688 91 L 30 91 Z M 30 0 " clip-rule="nonzero"/></clipPath><clipPath id="cee7e2bc85"><path d="M 0.410156 22 L 190 22 L 190 114 L 0.410156 114 Z M 0.410156 22 " clip-rule="nonzero"/></clipPath><clipPath id="3a1d39374c"><path d="M 176 22 L 321.589844 22 L 321.589844 115 L 176 115 Z M 176 22 " clip-rule="nonzero"/></clipPath></defs><g clip-path="url(#ed0fe02970)"><path fill="#0c0c35" d="M 75.515625 3.3125 C 75.652344 3.550781 75.78125 3.800781 75.886719 4.042969 C 76.195312 4.746094 76.398438 5.28125 77.507812 8.3125 C 78.515625 11.058594 78.851562 12.296875 79.066406 14.074219 C 79.160156 14.863281 79.445312 15.042969 80.78125 15.167969 C 82.65625 15.339844 83.40625 15.925781 83.964844 17.667969 C 84.171875 18.304688 84.214844 18.347656 84.988281 18.695312 C 86.550781 19.40625 86.648438 20.050781 87.242188 20.917969 C 87.839844 21.796875 88.089844 22.863281 88.097656 22.898438 C 88.257812 23.511719 87.785156 23.925781 88.542969 24.527344 C 89.25 25.085938 90.726562 25.605469 91.113281 25.898438 C 91.539062 26.222656 93.269531 27.367188 94.210938 27.691406 C 94.726562 27.867188 95.039062 28 95.527344 28.046875 C 95.800781 28.074219 96.058594 28.03125 96.3125 27.976562 C 96.761719 27.945312 97.679688 27.769531 99.109375 27.4375 C 99.820312 27.273438 100.675781 27.136719 101.011719 27.136719 C 101.628906 27.136719 103.078125 26.8125 103.992188 26.46875 C 104.269531 26.363281 105.109375 26.042969 105.863281 25.757812 C 108.339844 24.816406 110.605469 24.527344 112.332031 24.933594 C 113.824219 25.285156 115.683594 26.019531 117.898438 27.136719 C 119.050781 27.714844 119.425781 28.054688 119.863281 28.917969 C 120.027344 29.238281 120.398438 29.675781 120.6875 29.890625 C 121.367188 30.390625 121.945312 31.203125 122.625 32.617188 C 123.367188 34.164062 123.507812 34.523438 123.820312 35.65625 C 123.96875 36.199219 124.195312 36.8125 124.328125 37.023438 C 124.707031 37.636719 125.410156 39.117188 125.585938 39.667969 C 125.675781 39.945312 125.878906 40.4375 126.042969 40.765625 C 126.296875 41.269531 126.339844 41.546875 126.339844 42.597656 C 126.339844 43.992188 126.050781 45.328125 125.582031 46.109375 C 124.878906 47.273438 123.507812 48.875 121.625 50.71875 C 119.652344 52.660156 119.515625 52.765625 115.765625 55.265625 C 111.890625 57.84375 111.4375 58.128906 109.152344 59.4375 C 108.460938 59.835938 107.015625 60.8125 105.941406 61.613281 C 102.660156 64.058594 102.3125 64.296875 100.59375 65.289062 C 99.835938 65.726562 98.859375 66.328125 98.429688 66.621094 C 98 66.917969 97.515625 67.199219 97.355469 67.25 C 97.195312 67.300781 96.753906 67.550781 96.371094 67.808594 C 95.992188 68.066406 95.199219 68.546875 94.609375 68.882812 C 93.257812 69.648438 93.140625 69.75 92.757812 70.515625 C 92.046875 71.929688 91.609375 72.28125 89.480469 73.148438 C 85.285156 74.847656 81.109375 75.753906 73.832031 76.550781 C 71.863281 76.765625 62.601562 77.089844 62.09375 76.960938 C 61.90625 76.910156 54.308594 78.347656 49.554688 79.027344 C 41.558594 80.175781 41.046875 80.023438 38.914062 80.226562 C 36.15625 80.488281 36.625 79.261719 36.1875 78.644531 C 35.855469 78.179688 35.496094 75.609375 35.675781 74.988281 C 35.746094 74.746094 35.804688 73.554688 35.804688 72.34375 C 35.804688 71.132812 35.84375 69.160156 35.886719 67.96875 L 35.96875 65.792969 L 36.40625 65.285156 C 36.941406 64.660156 37.078125 63.863281 37.140625 61.074219 C 37.160156 60.035156 37.210938 59.0625 37.246094 58.917969 C 37.3125 58.65625 37.664062 58.460938 38.351562 58.3125 C 38.570312 58.265625 38.722656 58.132812 38.761719 57.953125 C 38.902344 57.359375 39.058594 44.121094 38.929688 43.71875 C 38.863281 43.5 38.773438 42.183594 38.738281 40.800781 C 38.675781 38.464844 38.691406 38.210938 38.949219 37.273438 C 39.765625 34.335938 40.21875 33.445312 41.683594 31.894531 C 42.058594 31.5 42.5 30.875 42.667969 30.511719 C 43.042969 29.691406 43.296875 29.378906 43.863281 29.039062 C 44.351562 28.746094 45.226562 28.6875 45.667969 28.917969 C 45.816406 28.996094 46.304688 29.367188 46.746094 29.742188 C 47.402344 30.296875 47.625 30.417969 47.941406 30.386719 C 48.304688 30.351562 48.332031 30.316406 48.300781 29.90625 C 48.113281 27.542969 48.121094 27.292969 48.371094 26.726562 C 48.507812 26.414062 49.015625 25.488281 49.5 24.667969 C 49.984375 23.84375 50.625 22.71875 50.921875 22.164062 C 51.601562 20.894531 52.648438 19.355469 52.941406 19.199219 C 53.582031 18.855469 53.367188 18.371094 51.453125 15.824219 C 50.761719 14.898438 49.949219 13.679688 49.652344 13.117188 C 49.015625 11.90625 48.523438 10.140625 48.523438 9.074219 C 48.523438 7.074219 50.789062 4.667969 54.167969 3.074219 C 56.820312 1.824219 59.910156 0.675781 61.609375 0.300781 C 62.941406 0.0117188 65.808594 0.0507812 68.417969 0.398438 C 70.203125 0.636719 71.191406 0.664062 72.296875 0.503906 C 72.683594 0.449219 72.859375 0.433594 73.015625 0.511719 C 73.070312 0.507812 73.125 0.515625 73.175781 0.539062 C 74.078125 0.972656 74.773438 1.875 75.480469 3.207031 C 75.5 3.242188 75.511719 3.277344 75.515625 3.3125 Z M 73.421875 1.421875 C 73.402344 1.417969 73.382812 1.414062 73.359375 1.410156 C 73.171875 1.371094 72.742188 1.4375 72.410156 1.554688 C 71.878906 1.738281 71.792969 1.742188 71.691406 1.574219 C 71.5625 1.375 71.703125 1.28125 72.351562 1.140625 C 72.773438 1.050781 72.824219 0.695312 72.417969 0.699219 C 72.261719 0.699219 71.992188 0.8125 71.816406 0.945312 C 71.421875 1.257812 70.753906 1.265625 68.957031 0.988281 C 67.984375 0.835938 66.765625 0.773438 64.640625 0.769531 L 61.679688 0.765625 L 60.296875 1.238281 C 57.855469 2.070312 54.460938 3.523438 53.105469 4.320312 C 51.878906 5.035156 50.746094 5.90625 50.285156 6.488281 C 49.703125 7.21875 49.027344 8.59375 49.027344 9.03125 C 49.027344 9.53125 49.722656 11.789062 50.117188 12.566406 C 50.582031 13.484375 51.226562 14.464844 52.417969 16.058594 C 53.015625 16.851562 53.628906 17.710938 53.785156 17.964844 C 54.183594 18.609375 54.371094 18.734375 55.113281 18.835938 C 55.476562 18.882812 56.421875 19.21875 57.214844 19.582031 C 59.089844 20.433594 59.136719 20.441406 59.5 20.019531 C 60.796875 18.492188 63.421875 16.84375 66.308594 15.742188 C 66.984375 15.484375 67.535156 15.230469 67.535156 15.175781 C 67.535156 15.121094 67.402344 15.042969 67.242188 15.003906 C 66.703125 14.867188 66.324219 14.328125 65.925781 13.128906 C 65.292969 11.214844 64.234375 8.707031 63.011719 6.222656 C 61.898438 3.957031 61.867188 3.871094 62.039062 3.515625 C 62.140625 3.316406 62.296875 2.902344 62.390625 2.601562 C 62.484375 2.300781 62.617188 2.046875 62.6875 2.035156 C 62.753906 2.023438 62.855469 2.320312 62.910156 2.691406 C 62.960938 3.0625 63.113281 3.519531 63.25 3.707031 C 63.382812 3.894531 63.714844 4.554688 63.988281 5.175781 C 64.261719 5.792969 65.113281 7.613281 65.878906 9.21875 C 66.648438 10.824219 67.359375 12.339844 67.460938 12.585938 L 67.648438 13.035156 L 70.519531 13.039062 C 72.707031 13.039062 73.84375 13.101562 75.28125 13.296875 C 76.320312 13.441406 77.410156 13.589844 77.703125 13.625 C 78.421875 13.722656 78.46875 13.546875 78.113281 12.113281 C 77.75 10.660156 75.75 5.222656 74.96875 3.542969 C 74.957031 3.53125 74.945312 3.515625 74.9375 3.496094 C 74.445312 2.574219 73.980469 1.871094 73.421875 1.421875 Z M 66.246094 2.117188 C 66.570312 2.101562 66.894531 2.089844 67.179688 2.082031 C 67.464844 2.074219 67.707031 2.078125 67.882812 2.074219 C 68.105469 2.078125 68.289062 2.105469 68.460938 2.144531 C 68.695312 2.207031 68.90625 2.296875 69.203125 2.382812 C 69.484375 2.46875 69.867188 2.566406 70.277344 2.671875 C 70.632812 2.769531 71.011719 2.871094 71.359375 2.96875 C 71.714844 3.070312 72.042969 3.167969 72.289062 3.25 C 72.324219 3.261719 72.351562 3.289062 72.359375 3.320312 C 72.777344 3.457031 73.101562 3.75 73.515625 4.320312 C 74.21875 5.289062 74.601562 6.210938 74.652344 7.066406 C 74.675781 7.417969 74.8125 8.09375 74.957031 8.566406 C 75.195312 9.335938 75.203125 9.449219 75.035156 9.707031 L 74.847656 9.992188 L 71.222656 9.933594 C 69.230469 9.898438 67.476562 9.847656 67.324219 9.816406 C 67.125 9.773438 66.859375 9.378906 66.300781 8.28125 C 65.886719 7.46875 65.375 6.460938 65.160156 6.046875 C 64.945312 5.628906 64.582031 4.894531 64.347656 4.410156 C 64.113281 3.925781 63.816406 3.347656 63.683594 3.128906 C 63.457031 2.742188 63.457031 2.722656 63.679688 2.472656 C 63.808594 2.335938 64.03125 2.195312 64.179688 2.167969 C 64.328125 2.136719 65.253906 2.117188 66.246094 2.117188 Z M 71.347656 3.308594 C 70.921875 3.246094 70.449219 3.179688 70.019531 3.113281 C 69.652344 3.054688 69.316406 2.996094 69.0625 2.941406 C 68.761719 2.875 68.550781 2.800781 68.316406 2.746094 C 68.183594 2.714844 68.042969 2.691406 67.867188 2.683594 C 67.5625 2.664062 67.035156 2.644531 66.472656 2.605469 C 65.902344 2.570312 65.304688 2.515625 64.867188 2.480469 C 64.472656 2.574219 64.210938 2.679688 64.121094 2.792969 C 63.984375 2.957031 64 3.066406 64.214844 3.449219 C 65.992188 6.632812 66.503906 7.558594 66.871094 8.292969 C 67.328125 9.195312 67.574219 9.382812 68.542969 9.554688 C 68.863281 9.609375 68.925781 9.597656 68.777344 9.507812 C 68.519531 9.355469 67.71875 7.816406 67.109375 6.304688 C 66.859375 5.6875 66.433594 4.808594 66.164062 4.351562 C 65.691406 3.554688 65.601562 3.328125 65.632812 2.992188 C 65.648438 2.824219 66.027344 2.769531 66.027344 2.933594 C 66.027344 2.988281 66.222656 3.335938 66.460938 3.707031 C 66.699219 4.078125 67.234375 5.152344 67.648438 6.097656 C 68.636719 8.347656 69.007812 8.992188 69.34375 9.0625 C 69.492188 9.09375 70.519531 9.183594 71.628906 9.257812 C 72.738281 9.332031 73.828125 9.425781 74.050781 9.464844 C 74.582031 9.558594 74.671875 9.328125 74.414062 8.539062 C 74.308594 8.207031 74.105469 7.5 73.964844 6.964844 C 73.734375 6.085938 72.851562 4.070312 72.578125 3.796875 C 72.519531 3.738281 72.167969 3.585938 71.796875 3.460938 Z M 75.765625 9.175781 L 75.699219 8.691406 L 75.941406 9.070312 C 76.761719 10.34375 77.785156 13.371094 77.199219 12.78125 C 76.945312 12.527344 75.851562 9.78125 75.765625 9.175781 Z M 62.5 1.46875 C 63.90625 1.179688 67.585938 1.363281 70.152344 1.847656 C 71.070312 2.019531 70.855469 2.207031 69.738281 2.207031 C 69 2.207031 68.816406 2.167969 68.871094 2.03125 C 68.992188 1.714844 68.496094 1.652344 65.585938 1.617188 C 62.429688 1.578125 62.886719 1.511719 59.800781 2.453125 C 59.113281 2.660156 58.53125 2.8125 58.503906 2.785156 C 58.371094 2.652344 61.109375 1.75 62.5 1.46875 Z M 38.65625 71.839844 C 38.535156 71.589844 38.398438 71.519531 38.003906 71.5 C 37.183594 71.460938 37.191406 71.449219 37.191406 73.15625 C 37.191406 74.910156 37.222656 74.980469 38.101562 75.074219 C 39.015625 75.171875 39.089844 75.03125 38.9375 73.476562 C 38.867188 72.75 38.738281 72.011719 38.65625 71.839844 Z M 75.367188 30.023438 C 74.917969 29.820312 74.449219 29.65625 74.324219 29.65625 C 73.769531 29.65625 72.820312 30.914062 72.621094 31.90625 C 72.511719 32.453125 72.855469 32.84375 73.34375 32.738281 C 73.535156 32.695312 73.898438 32.71875 74.148438 32.789062 C 74.402344 32.859375 74.679688 32.886719 74.773438 32.851562 C 74.910156 32.796875 75.667969 31.902344 76.332031 31.007812 C 76.566406 30.6875 76.363281 30.476562 75.367188 30.023438 Z M 40.265625 49.207031 C 40.019531 48.40625 39.886719 48.246094 39.808594 48.640625 C 39.609375 49.59375 41.023438 52.933594 43.019531 56.226562 C 44.328125 58.390625 45.070312 58.953125 43.925781 56.917969 C 43.316406 55.835938 41.148438 51.496094 40.75 50.558594 C 40.617188 50.246094 40.402344 49.636719 40.265625 49.207031 Z M 68.601562 29.597656 C 68.597656 28.664062 68.558594 27.867188 68.515625 27.824219 C 68.347656 27.65625 68.019531 28.582031 67.953125 29.410156 C 67.882812 30.207031 67.90625 30.324219 68.214844 30.789062 C 68.398438 31.066406 68.5625 31.292969 68.578125 31.292969 C 68.59375 31.292969 68.605469 30.53125 68.601562 29.597656 Z M 63.695312 5.355469 C 62.867188 3.410156 62.945312 3.566406 62.835938 3.675781 C 62.664062 3.847656 62.769531 4.199219 63.449219 5.667969 C 64.671875 8.308594 65.289062 9.765625 66.105469 11.957031 C 66.542969 13.132812 66.992188 14.179688 67.097656 14.289062 C 67.339844 14.527344 67.933594 14.53125 70.558594 14.3125 C 74.707031 13.964844 74.339844 13.957031 76.878906 14.492188 C 77.988281 14.726562 78.492188 14.726562 78.492188 14.484375 C 78.492188 14.28125 78.414062 14.257812 76.855469 13.988281 C 74.421875 13.570312 73.449219 13.503906 70.492188 13.5625 C 67.582031 13.621094 67.511719 13.617188 67.34375 13.359375 C 67.25 13.214844 66.808594 12.246094 66.367188 11.210938 C 65.921875 10.171875 65.300781 8.808594 64.988281 8.1875 C 64.675781 7.5625 64.09375 6.289062 63.695312 5.355469 Z M 81.734375 17.875 C 80.015625 17.226562 79.253906 17.128906 77.546875 17.335938 C 76.515625 17.460938 76.167969 17.574219 73.453125 18.691406 C 70.359375 19.964844 69.976562 20.144531 68.734375 20.886719 C 67.132812 21.84375 66.105469 22.644531 65.566406 23.347656 C 64.992188 24.097656 65.019531 24.300781 65.726562 24.613281 C 66.507812 24.957031 66.648438 24.941406 67.296875 24.441406 C 67.8125 24.039062 69.0625 23.457031 71.503906 22.472656 C 72.058594 22.25 72.9375 21.898438 73.453125 21.6875 C 73.972656 21.480469 75.503906 20.925781 76.855469 20.453125 C 78.207031 19.984375 79.707031 19.449219 80.191406 19.265625 C 81.007812 18.953125 81.121094 18.9375 81.703125 19.082031 C 82.050781 19.167969 82.882812 19.488281 83.550781 19.792969 C 84.441406 20.199219 84.859375 20.324219 85.097656 20.265625 C 85.335938 20.207031 85.558594 20.273438 85.921875 20.511719 C 86.507812 20.898438 86.550781 20.90625 86.550781 20.632812 C 86.550781 20.398438 85.613281 19.457031 85.378906 19.457031 C 85.296875 19.457031 84.789062 19.230469 84.253906 18.953125 C 83.71875 18.679688 82.585938 18.191406 81.734375 17.875 Z M 38.640625 60.382812 C 38.457031 60.3125 38.191406 60.253906 38.046875 60.253906 C 37.796875 60.253906 37.789062 60.296875 37.875 61.347656 C 37.921875 61.949219 38.046875 62.605469 38.148438 62.804688 C 38.367188 63.226562 39.03125 63.542969 40.441406 63.898438 C 43.496094 64.671875 50.695312 65.816406 50.945312 65.566406 C 51.089844 65.421875 50.894531 64.109375 50.589844 63.160156 C 50.347656 62.398438 50.367188 62.058594 50.675781 61.621094 C 50.824219 61.414062 50.910156 61.214844 50.867188 61.171875 C 50.828125 61.132812 50.199219 61.171875 49.46875 61.261719 C 48.707031 61.355469 47.691406 61.394531 47.074219 61.351562 C 46.472656 61.308594 46.003906 61.324219 46.003906 61.386719 C 46.003906 61.582031 46.542969 61.890625 47.222656 62.089844 C 47.808594 62.261719 47.984375 62.261719 48.90625 62.085938 C 49.472656 61.980469 49.992188 61.890625 50.0625 61.890625 C 50.328125 61.890625 49.828125 62.3125 49.28125 62.550781 C 48.164062 63.039062 46.679688 62.792969 45.558594 61.941406 C 44.894531 61.4375 44.296875 61.265625 42.511719 61.070312 C 40.734375 60.875 39.234375 60.605469 38.640625 60.382812 Z M 45.246094 29.402344 C 44.722656 29.253906 44.652344 29.257812 44.226562 29.445312 C 43.667969 29.699219 43.464844 29.9375 43.050781 30.851562 C 42.828125 31.335938 42.347656 32.074219 41.984375 32.488281 C 40.855469 33.769531 40.261719 34.847656 39.789062 36.457031 C 39.234375 38.355469 39.0625 40.324219 39.328125 41.722656 C 39.394531 42.085938 39.40625 42.71875 39.347656 43.183594 C 39.265625 43.871094 39.277344 43.980469 39.421875 43.859375 C 39.703125 43.628906 39.84375 43.289062 39.960938 42.550781 C 40.046875 42.023438 40.265625 41.570312 40.882812 40.628906 L 41.6875 39.398438 L 42.21875 36.699219 C 43.054688 32.46875 43.597656 30.539062 44.0625 30.152344 C 44.394531 29.878906 44.394531 30.347656 44.070312 31.4375 C 43.894531 32.015625 43.609375 33.113281 43.4375 33.875 C 43.140625 35.175781 43.03125 35.691406 42.535156 38.121094 C 42.425781 38.660156 42.371094 39.15625 42.414062 39.226562 C 42.457031 39.292969 42.648438 39.351562 42.839844 39.351562 C 43.5 39.351562 44.3125 38.222656 46.101562 34.800781 C 46.710938 33.644531 47.253906 32.742188 48.039062 31.585938 C 48.234375 31.300781 48.398438 30.933594 48.398438 30.777344 C 48.398438 30.503906 48.386719 30.503906 48.226562 30.722656 C 48.089844 30.90625 47.953125 30.941406 47.515625 30.882812 C 47.085938 30.824219 46.847656 30.679688 46.328125 30.167969 C 45.972656 29.816406 45.484375 29.472656 45.246094 29.402344 Z M 74.273438 17.695312 C 74.414062 17.464844 74.09375 17.539062 71.503906 18.332031 C 68.601562 19.222656 67.878906 19.476562 66.277344 20.171875 C 64.53125 20.929688 63.757812 21.386719 63.757812 21.652344 C 63.757812 21.863281 64.566406 22.554688 64.917969 22.648438 C 65.09375 22.695312 65.429688 22.484375 66.082031 21.914062 C 66.585938 21.476562 67.300781 20.964844 67.675781 20.777344 C 68.050781 20.589844 68.46875 20.300781 68.605469 20.136719 C 68.777344 19.929688 69.558594 19.578125 71.0625 19.027344 C 73.675781 18.070312 74.167969 17.867188 74.273438 17.695312 Z M 55.269531 19.574219 C 54.46875 19.269531 54.105469 19.269531 53.613281 19.566406 C 53.039062 19.917969 52.453125 20.769531 51.230469 23.046875 C 50.96875 23.53125 50.6875 24.011719 50.601562 24.117188 C 50.300781 24.496094 48.925781 27.089844 48.777344 27.554688 C 48.511719 28.382812 48.863281 29.78125 49.332031 29.78125 C 49.582031 29.78125 50.285156 29.070312 50.898438 28.195312 C 51.183594 27.789062 51.761719 26.972656 52.179688 26.382812 C 52.597656 25.792969 53.28125 24.707031 53.695312 23.96875 C 54.113281 23.230469 54.621094 22.414062 54.824219 22.15625 C 55.265625 21.601562 55.273438 21.546875 54.941406 21.214844 C 54.527344 20.800781 54.21875 21.070312 53.195312 22.730469 C 51.964844 24.730469 51.183594 26.097656 50.445312 27.550781 C 49.992188 28.433594 49.582031 29.183594 49.527344 29.21875 C 49.351562 29.328125 49.296875 28.9375 49.417969 28.40625 C 49.574219 27.695312 50.214844 26.449219 51.578125 24.179688 C 52.957031 21.886719 53.734375 20.765625 54.078125 20.582031 C 54.367188 20.425781 55.617188 20.546875 55.507812 20.71875 C 55.472656 20.777344 55.503906 20.859375 55.574219 20.902344 C 55.894531 21.101562 55.664062 21.789062 54.757812 23.335938 C 53.792969 24.972656 53.667969 25.351562 53.996094 25.625 C 54.214844 25.804688 54.28125 26.167969 54.375 27.695312 C 54.453125 29.015625 54.582031 29.214844 55.742188 29.800781 C 56.863281 30.371094 56.867188 30.164062 55.757812 29.328125 C 54.820312 28.625 54.453125 28.144531 54.847656 28.144531 C 54.945312 28.144531 55.386719 28.40625 55.832031 28.726562 C 56.898438 29.488281 57.695312 29.835938 59.121094 30.167969 C 60.453125 30.476562 61.117188 30.738281 63.441406 31.859375 C 65.484375 32.847656 67.597656 33.738281 69.835938 34.554688 C 70.785156 34.902344 72.203125 35.472656 72.988281 35.820312 C 73.773438 36.167969 74.582031 36.484375 74.785156 36.523438 C 75.105469 36.582031 75.539062 36.335938 77.925781 34.757812 C 79.449219 33.746094 81.046875 32.722656 81.476562 32.480469 C 82.902344 31.679688 84.980469 30.949219 90.203125 29.402344 C 90.652344 29.269531 91.410156 29.046875 91.882812 28.90625 C 92.359375 28.765625 92.90625 28.648438 93.097656 28.648438 C 93.507812 28.648438 93.832031 28.351562 93.585938 28.199219 C 93.425781 28.101562 91.664062 27.890625 90.453125 27.832031 C 90.074219 27.8125 89.605469 27.753906 89.414062 27.703125 C 88.941406 27.578125 88.957031 27.863281 89.445312 28.335938 C 89.65625 28.53125 89.824219 28.742188 89.824219 28.796875 C 89.824219 29.164062 88.988281 28.542969 88.417969 27.757812 C 88.210938 27.472656 87.957031 27.265625 87.8125 27.265625 C 87.371094 27.265625 83.351562 28.265625 82.925781 28.484375 L 82.511719 28.695312 L 83.089844 28.914062 C 83.445312 29.050781 83.835938 29.105469 84.101562 29.0625 C 84.507812 29 84.914062 29.167969 84.914062 29.40625 C 84.914062 29.757812 83.136719 29.484375 82.578125 29.042969 C 82.390625 28.894531 82.160156 28.773438 82.070312 28.773438 C 81.976562 28.773438 81.375 29.007812 80.734375 29.292969 C 80.089844 29.578125 79.195312 29.9375 78.742188 30.09375 L 77.925781 30.375 L 77.921875 30.886719 C 77.917969 31.335938 77.816406 31.511719 77.152344 32.261719 C 75.910156 33.660156 74.945312 34.148438 74.160156 33.769531 C 73.945312 33.664062 73.429688 33.460938 73.015625 33.3125 C 72.105469 32.988281 71.816406 32.746094 71.820312 32.3125 C 71.820312 31.949219 72.667969 30.320312 73.15625 29.742188 C 73.355469 29.503906 73.453125 29.25 73.429688 29.039062 C 73.398438 28.757812 73.324219 28.707031 72.90625 28.671875 C 72.351562 28.625 72.03125 28.859375 71.636719 29.59375 C 71.425781 29.984375 71.417969 30.070312 71.574219 30.167969 C 71.6875 30.238281 71.699219 30.28125 71.605469 30.285156 C 71.523438 30.285156 71.421875 30.230469 71.378906 30.164062 C 71.339844 30.097656 71.214844 30.078125 71.105469 30.121094 C 70.945312 30.183594 70.925781 30.140625 70.996094 29.894531 C 71.269531 28.980469 73.566406 25.898438 74.226562 25.554688 C 74.695312 25.3125 77.042969 24.792969 78.445312 24.617188 C 79.035156 24.542969 79.980469 24.3125 80.546875 24.097656 C 81.515625 23.734375 81.710938 23.707031 83.8125 23.644531 C 85.042969 23.609375 86.046875 23.539062 86.046875 23.492188 C 86.046875 23.445312 85.464844 23.128906 84.757812 22.785156 L 83.464844 22.164062 L 81.703125 22.121094 C 79.261719 22.058594 77.183594 22.300781 73.480469 23.070312 C 72.660156 23.242188 72.457031 23.347656 71.566406 24.074219 C 70.589844 24.875 69.988281 25.640625 69.464844 26.761719 C 69.160156 27.414062 68.96875 29.148438 69.164062 29.511719 C 69.339844 29.839844 70.375 30.257812 71.125 30.308594 L 71.75 30.347656 L 71.914062 29.84375 C 72.007812 29.566406 72.164062 29.257812 72.265625 29.15625 C 72.425781 28.996094 72.449219 29.011719 72.445312 29.28125 C 72.445312 30.015625 71.046875 31.816406 70.210938 32.160156 C 69.859375 32.308594 69.734375 32.28125 68.710938 31.828125 C 67.242188 31.179688 67.183594 31.070312 67.386719 29.46875 C 67.5625 28.074219 67.632812 27.894531 68.320312 27.183594 C 68.90625 26.574219 68.894531 26.199219 68.28125 26.066406 C 67.808594 25.960938 67.609375 26.121094 67.199219 26.933594 C 66.738281 27.835938 65.507812 29.484375 65.167969 29.644531 C 64.226562 30.09375 61.988281 29.328125 62 28.558594 C 62.003906 28.230469 62.378906 27.449219 63.261719 25.941406 C 64 24.675781 64.03125 24.597656 63.828125 24.375 C 63.550781 24.066406 62.972656 23.832031 62.628906 23.886719 C 62.433594 23.914062 62.277344 24.125 62.0625 24.65625 C 61.535156 25.960938 60.109375 27.929688 60.109375 27.351562 C 60.109375 27.261719 60.285156 26.90625 60.503906 26.5625 C 60.722656 26.222656 61.203125 25.441406 61.570312 24.832031 C 62.621094 23.089844 62.007812 23.550781 60.789062 25.421875 C 59.824219 26.898438 59.738281 27.085938 59.804688 27.507812 C 59.871094 27.925781 59.835938 28.011719 59.429688 28.367188 C 58.574219 29.117188 57.597656 29.210938 56.824219 28.617188 C 55.414062 27.535156 55.226562 26.824219 55.941406 25.3125 C 56.824219 23.453125 57.96875 21.808594 57.96875 22.402344 C 57.96875 22.523438 57.691406 23.171875 57.351562 23.84375 C 56.554688 25.417969 56.257812 26.097656 56.148438 26.601562 C 56.070312 26.953125 56.113281 27.066406 56.4375 27.390625 C 56.832031 27.785156 57.132812 27.867188 57.289062 27.621094 C 57.34375 27.53125 57.21875 27.335938 56.980469 27.136719 C 56.519531 26.753906 56.496094 26.609375 56.8125 26.148438 C 57.074219 25.769531 58.46875 22.585938 58.46875 22.367188 C 58.46875 22.285156 57.882812 21.949219 57.167969 21.613281 C 55.863281 21 55.464844 20.714844 55.921875 20.714844 C 56.21875 20.714844 58.207031 21.5625 58.488281 21.808594 C 58.742188 22.03125 58.902344 21.84375 58.785156 21.46875 C 58.703125 21.214844 56.589844 20.078125 55.269531 19.574219 Z M 86.929688 29.359375 C 88.402344 29.003906 88.675781 28.96875 88.496094 29.144531 C 88.375 29.265625 87.195312 29.6875 84.980469 30.398438 C 82.363281 31.238281 81.050781 31.933594 76.796875 34.746094 C 75.273438 35.753906 74.714844 36.007812 74.714844 35.699219 C 74.714844 35.628906 75.179688 35.273438 75.75 34.910156 C 76.324219 34.546875 77.214844 33.957031 77.734375 33.59375 C 80.261719 31.832031 81.910156 30.960938 83.78125 30.394531 C 84.230469 30.257812 84.824219 30.039062 85.101562 29.910156 C 85.378906 29.785156 86.203125 29.535156 86.929688 29.359375 Z M 71.003906 33.175781 C 71.101562 33.019531 70.984375 32.972656 72.472656 33.734375 C 73.132812 34.070312 73.820312 34.347656 74 34.347656 C 74.28125 34.347656 74.3125 34.378906 74.203125 34.582031 C 74.019531 34.925781 73.5625 34.875 72.535156 34.394531 C 71.558594 33.933594 70.871094 33.386719 71.003906 33.175781 Z M 86.929688 24.359375 C 86.457031 24.027344 86.296875 24.015625 83.84375 24.175781 C 81.214844 24.347656 80.96875 24.425781 78.445312 25.929688 C 76.890625 26.855469 74.964844 28.492188 74.964844 28.886719 C 74.964844 29.101562 76.414062 29.90625 76.804688 29.90625 C 76.910156 29.90625 77.40625 29.542969 77.902344 29.09375 C 79.933594 27.269531 80.480469 26.859375 81.703125 26.261719 C 83.320312 25.46875 85 25.050781 86.992188 24.949219 C 87.339844 24.929688 87.308594 24.628906 86.929688 24.359375 Z M 112.429688 25.65625 C 111.992188 25.433594 110.199219 25.339844 109.277344 25.496094 C 108.484375 25.632812 106.359375 26.34375 104.734375 27.019531 C 104.046875 27.304688 103.179688 27.652344 102.804688 27.789062 C 102.429688 27.925781 101.71875 28.253906 101.230469 28.519531 C 100.738281 28.785156 100.199219 29.042969 100.023438 29.09375 C 99.25 29.316406 97.105469 30.300781 94.617188 31.566406 C 93.132812 32.324219 91.519531 33.117188 91.03125 33.332031 C 90.121094 33.730469 88.6875 34.390625 87.117188 35.136719 C 86.632812 35.367188 85.640625 35.816406 84.914062 36.136719 C 82.050781 37.398438 79.085938 39.105469 77.355469 40.484375 C 76.617188 41.074219 74.417969 42.890625 71.902344 44.992188 C 70.652344 46.035156 70.320312 46.074219 68.828125 45.375 C 67.929688 44.953125 67.664062 44.578125 67.660156 43.734375 L 67.660156 43.191406 L 67.351562 43.570312 C 67.0625 43.921875 67.042969 43.929688 67.039062 43.671875 C 67.035156 43.523438 67.230469 43.1875 67.472656 42.933594 C 67.714844 42.675781 67.917969 42.402344 67.921875 42.324219 C 67.929688 42.179688 68.550781 41.261719 70.535156 38.46875 C 71.179688 37.558594 71.6875 36.722656 71.667969 36.605469 C 71.640625 36.46875 71.238281 36.242188 70.558594 35.972656 C 68.402344 35.128906 65.433594 33.765625 64.417969 33.160156 C 62.804688 32.1875 60.402344 31.085938 59.269531 30.800781 C 58.15625 30.515625 57.65625 30.46875 57.773438 30.65625 C 57.847656 30.773438 58.339844 30.976562 60.421875 31.730469 C 61.71875 32.203125 63.804688 33.179688 63.710938 33.273438 C 63.570312 33.414062 61.875 32.78125 58.628906 31.367188 C 58.058594 31.117188 57.121094 30.710938 56.550781 30.464844 C 55.035156 29.808594 54.9375 29.757812 54.496094 29.339844 C 54.011719 28.882812 53.8125 28.242188 53.8125 27.117188 C 53.8125 25.375 53.539062 25.4375 52.046875 27.535156 C 51.738281 27.976562 51.125 28.773438 50.6875 29.3125 C 50.253906 29.851562 49.925781 30.339844 49.964844 30.398438 C 50.023438 30.496094 54.128906 32.550781 54.257812 32.550781 C 54.289062 32.550781 54.792969 32.777344 55.386719 33.054688 C 55.976562 33.332031 56.488281 33.558594 56.519531 33.558594 C 56.550781 33.558594 57.132812 33.820312 57.808594 34.136719 C 59.601562 34.976562 59.140625 34.789062 63.40625 36.402344 C 64.214844 36.707031 65.207031 37.105469 65.609375 37.285156 C 66.011719 37.464844 66.632812 37.71875 66.988281 37.855469 C 67.867188 38.1875 68.027344 38.390625 67.613281 38.660156 C 67.3125 38.859375 67.265625 38.855469 66.691406 38.550781 C 65.398438 37.863281 63.539062 37.136719 63.410156 37.265625 C 63.375 37.300781 63.109375 37.1875 62.820312 37.019531 C 62.527344 36.847656 62.179688 36.707031 62.046875 36.707031 C 61.914062 36.707031 61.621094 36.59375 61.394531 36.457031 C 61.167969 36.316406 60.878906 36.203125 60.75 36.203125 C 60.625 36.203125 60.1875 36.035156 59.777344 35.828125 C 59.371094 35.621094 58.96875 35.449219 58.882812 35.449219 C 58.742188 35.449219 57.914062 35.078125 57.464844 34.816406 C 56.929688 34.503906 55.894531 34.0625 55.691406 34.0625 C 55.566406 34.0625 55.425781 34.003906 55.378906 33.925781 C 55.273438 33.753906 54.242188 33.308594 53.953125 33.308594 C 53.832031 33.308594 53.453125 33.128906 53.113281 32.914062 C 52.179688 32.324219 49.625 31.042969 49.375 31.042969 C 49.242188 31.042969 49.007812 31.304688 48.78125 31.703125 C 48.578125 32.066406 48.277344 32.527344 48.121094 32.730469 C 47.769531 33.175781 47.523438 33.601562 46.507812 35.53125 C 44.589844 39.167969 44.101562 39.746094 42.640625 40.109375 C 42.027344 40.261719 41.761719 40.570312 40.996094 41.996094 C 40.1875 43.507812 39.894531 44.609375 39.90625 46.089844 C 39.917969 47.34375 39.917969 47.351562 40.640625 48.921875 C 41.039062 49.789062 41.570312 50.949219 41.820312 51.503906 C 42.242188 52.425781 43.582031 55.082031 44.953125 57.714844 C 45.253906 58.292969 45.5 58.84375 45.5 58.941406 C 45.5 59.328125 46.042969 59.402344 49.453125 59.460938 C 51.332031 59.492188 53.023438 59.523438 53.210938 59.527344 C 53.414062 59.53125 53.984375 59.277344 54.597656 58.902344 C 56.105469 57.984375 56.703125 57.707031 57.039062 57.769531 C 57.203125 57.800781 57.335938 57.777344 57.335938 57.71875 C 57.335938 57.660156 57.25 57.609375 57.148438 57.609375 C 56.855469 57.609375 57.1875 57.148438 57.597656 56.976562 C 58.023438 56.800781 58.398438 56.898438 59.855469 57.578125 C 60.898438 58.0625 61.765625 58.414062 64.578125 59.488281 C 64.925781 59.621094 65.433594 59.800781 65.710938 59.886719 C 65.988281 59.96875 66.390625 60.125 66.605469 60.230469 C 67.25 60.542969 67.757812 60.363281 71.882812 58.367188 C 74.226562 57.230469 77.335938 55.535156 77.714844 55.183594 C 77.882812 55.03125 78.128906 54.675781 78.261719 54.398438 C 78.394531 54.121094 78.617188 53.675781 78.757812 53.410156 C 78.894531 53.144531 78.992188 52.90625 78.96875 52.882812 C 78.945312 52.859375 78.535156 53.09375 78.054688 53.402344 C 76.082031 54.671875 72.574219 56.296875 70.917969 56.707031 C 68.1875 57.382812 67.535156 57.488281 67.535156 57.238281 C 67.535156 57.113281 68.074219 56.941406 69.359375 56.667969 C 71.5 56.207031 72.234375 55.910156 76.550781 53.765625 C 78.414062 52.839844 79.132812 52.421875 79.28125 52.171875 C 79.472656 51.839844 79.472656 51.835938 79.207031 51.9375 C 79.054688 52 77.539062 52.726562 75.835938 53.558594 C 71.464844 55.6875 71.023438 55.855469 68.46875 56.292969 C 66.765625 56.585938 65.984375 56.511719 65.265625 55.992188 C 62.132812 53.722656 60.066406 52.394531 59.324219 52.171875 C 58.953125 52.0625 58.570312 52.0625 57.726562 52.175781 C 55.613281 52.457031 53.519531 52.351562 50.476562 51.816406 C 49.710938 51.683594 48.523438 51.511719 47.832031 51.441406 C 47.136719 51.367188 46.414062 51.273438 46.226562 51.234375 C 45.8125 51.144531 45.777344 51.308594 46.117188 51.792969 C 46.25 51.980469 46.652344 52.601562 47.015625 53.175781 C 47.402344 53.789062 47.820312 54.296875 48.03125 54.40625 C 48.230469 54.507812 49.117188 54.703125 50 54.835938 C 50.882812 54.96875 52.179688 55.164062 52.875 55.265625 C 54.195312 55.464844 56.769531 56.21875 56.476562 56.320312 C 56.382812 56.355469 55.984375 56.316406 55.59375 56.238281 C 55.203125 56.160156 54.429688 56.042969 53.875 55.976562 C 51.832031 55.726562 50.066406 55.472656 49.417969 55.335938 C 48.554688 55.148438 48.382812 55.292969 48.785156 55.871094 C 48.945312 56.101562 49.484375 56.796875 49.980469 57.421875 C 51.003906 58.707031 51.257812 59.121094 51.027344 59.121094 C 50.613281 59.121094 49.214844 57.625 48.144531 56.035156 C 47.910156 55.691406 47.511719 55.152344 47.253906 54.839844 C 46.605469 54.046875 45.042969 51.351562 44.539062 50.15625 C 44.042969 48.984375 44.019531 48.597656 44.386719 47.878906 C 44.746094 47.167969 48.265625 40.925781 49.71875 38.40625 C 50.359375 37.300781 51.226562 35.710938 51.644531 34.875 C 52.445312 33.273438 52.742188 32.875 52.875 33.222656 C 52.9375 33.386719 51.363281 36.792969 50.917969 37.464844 C 50.535156 38.039062 49.242188 40.390625 47.488281 43.695312 C 46.019531 46.46875 45.269531 47.78125 44.949219 48.136719 C 44.714844 48.402344 44.707031 48.484375 44.839844 49.125 C 44.921875 49.507812 45.105469 50.007812 45.246094 50.238281 L 45.503906 50.65625 L 47.296875 50.75 C 48.28125 50.796875 49.230469 50.910156 49.40625 50.996094 C 49.734375 51.160156 51.175781 51.359375 51.914062 51.339844 C 52.152344 51.335938 52.460938 51.394531 52.605469 51.472656 C 53.046875 51.714844 54.902344 51.789062 57.226562 51.65625 L 59.445312 51.53125 L 60.121094 51.855469 C 60.496094 52.03125 61.253906 52.496094 61.808594 52.882812 C 62.363281 53.273438 63.550781 54.085938 64.445312 54.6875 L 66.078125 55.785156 L 67.167969 55.769531 C 68.425781 55.75 69.964844 55.464844 71.3125 55.003906 C 72.753906 54.511719 80.121094 50.847656 80.632812 50.371094 C 81.472656 49.585938 90.164062 45.03125 97.695312 41.429688 C 102.605469 39.078125 107.332031 36.679688 107.429688 36.488281 C 107.496094 36.367188 107.578125 35.671875 107.617188 34.945312 C 107.742188 32.554688 108.183594 31.820312 109.972656 30.996094 C 112.5625 29.804688 115.167969 29.226562 117.640625 29.296875 C 118.722656 29.328125 119.21875 29.296875 119.253906 29.199219 C 119.277344 29.121094 119.140625 28.871094 118.949219 28.640625 C 118.515625 28.128906 115.308594 26.5625 113.8125 26.132812 C 113.257812 25.976562 112.636719 25.761719 112.429688 25.65625 Z M 59.761719 36.738281 C 60.023438 36.457031 60.234375 36.371094 60.230469 36.550781 C 60.226562 36.691406 59.582031 37.84375 57.785156 40.925781 C 55.917969 44.125 54.972656 46.003906 54.863281 46.71875 C 54.761719 47.386719 54.914062 47.226562 55.578125 45.964844 C 57.128906 43.027344 60.390625 37.574219 60.851562 37.160156 C 61.445312 36.621094 61.097656 37.476562 60 39.25 C 58.421875 41.804688 57.492188 43.367188 55.984375 45.988281 L 54.667969 48.28125 L 54.5625 49.605469 C 54.449219 50.996094 54.3125 51.488281 54.117188 51.175781 C 53.941406 50.890625 54.058594 48.726562 54.320312 47.433594 C 54.453125 46.761719 54.71875 45.847656 54.90625 45.394531 C 55.644531 43.621094 59.117188 37.429688 59.761719 36.738281 Z M 54.976562 34.660156 C 55.171875 34.378906 55.574219 34.175781 55.574219 34.363281 C 55.574219 34.496094 55.144531 35.410156 54.894531 35.808594 C 54.335938 36.707031 51.753906 41.742188 50.851562 43.695312 C 49.84375 45.882812 49.480469 47.175781 49.339844 49.121094 C 49.21875 50.761719 48.914062 51.117188 48.800781 49.757812 C 48.6875 48.347656 49.230469 46.046875 50.21875 43.757812 C 51.042969 41.847656 54.253906 35.707031 54.976562 34.660156 Z M 86.425781 35.875 C 87.160156 35.566406 87.4375 35.5 87.238281 35.683594 C 87.171875 35.742188 86.234375 36.246094 85.15625 36.804688 C 84.074219 37.363281 82.96875 37.945312 82.699219 38.097656 C 82.429688 38.246094 81.640625 38.683594 80.945312 39.070312 C 78.871094 40.222656 77.691406 40.890625 77.363281 41.101562 C 77.191406 41.214844 77.09375 41.238281 77.144531 41.160156 C 77.269531 40.953125 79.617188 39.382812 80.820312 38.699219 C 82.046875 38 85.472656 36.273438 86.425781 35.875 Z M 53.335938 34.09375 C 53.636719 33.589844 53.871094 33.554688 53.753906 34.03125 C 53.667969 34.367188 51.996094 37.773438 51.789062 38.035156 C 51.40625 38.511719 47.609375 45.882812 46.882812 47.558594 C 46.621094 48.167969 46.285156 48.832031 46.140625 49.03125 C 45.988281 49.246094 45.878906 49.597656 45.878906 49.863281 C 45.878906 50.765625 45.519531 50.050781 45.308594 48.734375 L 45.230469 48.230469 L 45.511719 48.652344 L 45.796875 49.078125 L 46.113281 48.210938 C 46.421875 47.363281 49.03125 42.070312 50.292969 39.730469 C 50.644531 39.070312 51.421875 37.628906 52.011719 36.519531 C 52.605469 35.410156 53.203125 34.320312 53.335938 34.09375 Z M 109.71875 26.003906 C 110.519531 25.867188 111.71875 25.859375 111.484375 25.992188 C 111.378906 26.050781 110.898438 26.171875 110.414062 26.257812 C 108.601562 26.589844 105.574219 27.949219 95.730469 32.847656 C 91.398438 35.003906 86.722656 37.320312 85.34375 37.988281 C 82.796875 39.226562 81.988281 39.65625 79.625 41.019531 C 76.730469 42.6875 75.929688 43.304688 73.203125 45.972656 C 72.199219 46.953125 71.253906 47.820312 71.105469 47.898438 C 70.746094 48.082031 70.078125 47.941406 69.921875 47.648438 C 69.824219 47.464844 69.886719 47.320312 70.226562 46.941406 C 70.707031 46.410156 71.816406 45.574219 71.816406 45.742188 C 71.816406 45.800781 71.535156 46.167969 71.1875 46.554688 C 70.84375 46.945312 70.558594 47.324219 70.558594 47.394531 C 70.558594 47.699219 71.09375 47.277344 72.761719 45.65625 C 74.753906 43.726562 76.925781 42.035156 78.988281 40.8125 C 79.753906 40.355469 80.414062 39.980469 80.453125 39.980469 C 80.488281 39.980469 81.070312 39.664062 81.742188 39.277344 C 82.769531 38.679688 88.222656 35.953125 88.382812 35.953125 C 88.4375 35.953125 92.453125 33.949219 98.136719 31.085938 C 103.929688 28.164062 108.304688 26.246094 109.71875 26.003906 Z M 58 35.984375 C 58.144531 35.828125 58.3125 35.699219 58.375 35.699219 C 58.570312 35.699219 58.34375 36.226562 57.644531 37.417969 C 55.007812 41.890625 53.484375 44.984375 52.996094 46.851562 C 52.847656 47.421875 52.546875 50.019531 52.507812 51.074219 C 52.5 51.203125 52.417969 51.253906 52.28125 51.21875 C 52.089844 51.171875 52.070312 51.019531 52.125 49.886719 C 52.238281 47.511719 52.570312 46.179688 53.644531 43.824219 C 54.703125 41.503906 57.414062 36.621094 58 35.984375 Z M 48.597656 32.660156 C 48.71875 32.464844 48.785156 32.542969 49.082031 33.214844 C 49.492188 34.148438 49.945312 36.042969 49.859375 36.476562 C 49.820312 36.675781 49.464844 37.390625 49.074219 38.0625 C 47.289062 41.132812 46.5 42.449219 45.335938 44.316406 C 43.882812 46.648438 43.234375 47.933594 43.234375 48.492188 C 43.234375 48.902344 43.851562 50.546875 44.433594 51.695312 C 44.613281 52.050781 45.21875 53.085938 45.777344 54 C 46.339844 54.914062 47.042969 56.078125 47.339844 56.585938 C 47.636719 57.097656 47.996094 57.640625 48.136719 57.792969 C 48.394531 58.0625 48.5 58.742188 48.289062 58.742188 C 48.117188 58.742188 47.511719 58.09375 47.296875 57.675781 C 47.1875 57.46875 46.503906 56.332031 45.777344 55.15625 C 44.589844 53.226562 43.863281 51.847656 42.96875 49.8125 C 42.777344 49.378906 42.667969 48.890625 42.667969 48.46875 C 42.667969 47.652344 43.21875 46.539062 45.117188 43.511719 C 47.511719 39.695312 49.277344 36.566406 49.277344 36.148438 C 49.277344 35.933594 49.160156 35.363281 49.019531 34.878906 C 48.699219 33.800781 48.511719 32.800781 48.597656 32.660156 Z M 64.300781 39.257812 C 64.777344 38.621094 65.144531 38.410156 65.144531 38.769531 C 65.144531 38.863281 64.59375 39.726562 63.925781 40.6875 C 60.648438 45.382812 58.765625 48.671875 59.347656 48.671875 C 59.414062 48.671875 59.703125 48.316406 59.992188 47.882812 C 60.28125 47.449219 60.875 46.726562 61.3125 46.277344 C 61.746094 45.828125 62.574219 44.832031 63.152344 44.066406 C 66.175781 40.054688 66.90625 39.191406 66.90625 39.65625 C 66.90625 39.78125 66.519531 40.375 66.046875 40.972656 C 65.574219 41.570312 64.484375 42.996094 63.628906 44.136719 C 62.773438 45.28125 61.664062 46.675781 61.164062 47.238281 C 60.664062 47.800781 60.167969 48.433594 60.058594 48.640625 C 59.949219 48.855469 59.695312 49.078125 59.484375 49.152344 C 59.191406 49.253906 59.03125 49.449219 58.792969 49.984375 C 58.507812 50.632812 58.21875 50.902344 58.21875 50.523438 C 58.21875 50.207031 58.597656 48.910156 58.769531 48.636719 C 58.867188 48.480469 59.039062 48.070312 59.152344 47.71875 C 59.261719 47.371094 59.683594 46.492188 60.089844 45.769531 C 60.84375 44.410156 63.421875 40.429688 64.300781 39.257812 Z M 62.527344 37.933594 C 62.730469 37.675781 62.980469 37.464844 63.078125 37.464844 C 63.355469 37.464844 62.960938 38.160156 60.988281 41.179688 C 60.039062 42.632812 58.824219 44.582031 58.289062 45.511719 C 57.375 47.105469 56.582031 49.039062 56.582031 49.6875 C 56.582031 50.109375 56.1875 51.441406 56.0625 51.441406 C 55.527344 51.441406 56.179688 48.496094 57.160156 46.492188 C 57.988281 44.804688 61.398438 39.367188 62.527344 37.933594 Z M 66.90625 44.988281 C 66.90625 44.609375 66.957031 44.402344 67.03125 44.453125 C 67.101562 44.496094 67.160156 44.609375 67.160156 44.707031 C 67.160156 45.046875 67.921875 45.746094 68.792969 46.207031 C 69.28125 46.460938 69.675781 46.753906 69.675781 46.855469 C 69.675781 47.101562 69.207031 46.988281 68.230469 46.503906 C 67.101562 45.945312 66.90625 45.722656 66.90625 44.988281 Z M 56.808594 35.605469 C 57.109375 35.203125 57.335938 35.078125 57.335938 35.316406 C 57.335938 35.523438 57.058594 36.101562 56.390625 37.273438 C 54.140625 41.21875 52.117188 45.191406 51.636719 46.597656 C 51.445312 47.15625 51.15625 48.21875 50.988281 48.953125 C 50.636719 50.507812 50.542969 50.726562 50.390625 50.316406 C 50.09375 49.515625 51.039062 46.34375 52.367188 43.667969 C 53.820312 40.75 56.230469 36.371094 56.808594 35.605469 Z M 50.183594 52.648438 C 49.917969 52.382812 49.972656 52.386719 51.859375 52.695312 C 53.667969 52.996094 55.714844 53.019531 57.273438 52.765625 C 59.402344 52.414062 59.355469 52.398438 62.25 54.390625 C 63.113281 54.984375 64.253906 55.761719 64.785156 56.109375 C 65.328125 56.46875 65.785156 56.867188 65.828125 57.023438 C 66.050781 57.792969 66.398438 59.203125 66.402344 59.347656 C 66.402344 59.4375 66.304688 59.492188 66.1875 59.472656 C 66.035156 59.449219 65.90625 59.1875 65.757812 58.617188 C 65.289062 56.800781 65.371094 56.898438 62.640625 55.039062 C 61.277344 54.113281 59.921875 53.230469 59.625 53.074219 L 59.085938 52.792969 L 57.992188 53.09375 C 57.035156 53.355469 56.636719 53.390625 54.820312 53.382812 C 52.582031 53.371094 50.589844 53.058594 50.183594 52.648438 Z M 58.535156 53.578125 C 58.65625 53.382812 59 53.433594 59.542969 53.722656 C 60.261719 54.105469 63.636719 56.445312 64.011719 56.820312 L 64.324219 57.136719 L 63.898438 57.058594 C 63.664062 57.015625 63.210938 56.785156 62.894531 56.546875 C 61.824219 55.753906 59.546875 54.246094 59 53.96875 C 58.703125 53.820312 58.496094 53.644531 58.535156 53.578125 Z M 88.910156 25.550781 C 88.808594 25.449219 87.378906 25.382812 86.800781 25.453125 C 86.03125 25.546875 83.996094 26.015625 83.21875 26.273438 C 82.175781 26.625 80.460938 27.472656 80.191406 27.769531 C 79.863281 28.128906 80.078125 28.097656 81.8125 27.511719 C 83.523438 26.9375 86.5 26.191406 87.839844 26 C 88.710938 25.875 89.082031 25.722656 88.910156 25.550781 Z M 107.300781 47.066406 C 107.378906 46.804688 107.179688 46.882812 106.320312 47.445312 C 105.398438 48.046875 103.222656 49.425781 102.320312 49.980469 C 101.992188 50.179688 100.707031 50.9375 99.464844 51.65625 C 96.746094 53.234375 96.4375 53.445312 96.601562 53.609375 C 96.789062 53.796875 97.816406 53.277344 100.59375 51.589844 C 102.792969 50.25 107.246094 47.25 107.300781 47.066406 Z M 41.089844 53.957031 C 40.792969 53.371094 40.371094 52.355469 40.148438 51.703125 C 39.929688 51.050781 39.71875 50.570312 39.683594 50.632812 C 39.578125 50.808594 39.421875 57.808594 39.515625 58.097656 C 39.648438 58.523438 40.792969 58.820312 43.832031 59.210938 C 44.535156 59.300781 44.523438 59.15625 43.757812 58.261719 C 43.070312 57.460938 41.902344 55.574219 41.089844 53.957031 Z M 120.195312 30.320312 C 119.703125 30.03125 119.503906 29.996094 117.992188 29.960938 C 117.078125 29.941406 116.046875 29.96875 115.699219 30.027344 C 114.785156 30.175781 110.867188 31.957031 110.453125 32.414062 C 110.054688 32.855469 110 33.257812 109.933594 36.183594 C 109.894531 37.875 109.921875 38.253906 110.066406 38.3125 C 110.164062 38.347656 110.765625 38.230469 111.398438 38.046875 C 112.824219 37.640625 113.308594 37.585938 113.308594 37.835938 C 113.308594 38.03125 112.777344 38.265625 111.292969 38.726562 C 110.128906 39.089844 109.90625 39.246094 109.542969 39.953125 C 109.375 40.28125 109.050781 40.726562 108.816406 40.945312 C 108.117188 41.601562 104.523438 43.890625 100.757812 46.078125 C 94.757812 49.558594 90.757812 52.121094 85.667969 55.75 C 82.199219 58.222656 78.742188 60.566406 77.621094 61.199219 C 76.890625 61.617188 75.878906 62.222656 75.378906 62.546875 C 74.386719 63.195312 71.910156 64.628906 69.363281 66.03125 C 68.460938 66.527344 67.585938 67.019531 67.410156 67.125 C 66.082031 67.9375 62.433594 69.582031 58.785156 71.015625 C 54.867188 72.554688 54.507812 72.691406 53.75 72.945312 C 49.5 74.375 40.992188 76.28125 38.0625 76.464844 L 36.496094 76.5625 L 36.460938 77.207031 C 36.429688 77.753906 36.472656 77.910156 36.769531 78.261719 L 37.117188 78.675781 L 38.695312 78.597656 C 42.054688 78.433594 46.167969 77.519531 50.914062 75.882812 C 51.503906 75.683594 52.324219 75.425781 52.742188 75.320312 C 54.96875 74.738281 55.726562 74.519531 58.015625 73.777344 C 59.390625 73.332031 60.894531 72.824219 61.351562 72.648438 C 63.507812 71.820312 68.636719 69.585938 69.992188 68.878906 C 70.824219 68.449219 72.238281 67.710938 73.140625 67.242188 C 78.546875 64.433594 81.792969 62.632812 85.480469 60.390625 C 87.929688 58.902344 89.765625 57.699219 89.949219 57.46875 C 90.863281 56.335938 91.613281 55.734375 93.542969 54.605469 C 94.648438 53.957031 96.007812 53.128906 96.5625 52.765625 C 97.117188 52.402344 98.53125 51.554688 99.710938 50.875 C 102.789062 49.101562 106.007812 47.097656 108.804688 45.210938 C 109.6875 44.617188 111.433594 42.988281 112.519531 41.75 C 113.335938 40.824219 114.160156 39.285156 114.441406 38.160156 C 114.671875 37.253906 114.6875 35.320312 114.488281 33.222656 C 114.3125 31.417969 114.394531 31.1875 115.355469 30.761719 C 115.832031 30.550781 116.214844 30.503906 117.578125 30.496094 C 119.140625 30.484375 119.261719 30.5 119.886719 30.828125 C 120.539062 31.167969 121.03125 31.75 121.238281 32.425781 C 121.3125 32.667969 121.246094 32.621094 120.964844 32.238281 C 120.757812 31.960938 120.285156 31.5625 119.910156 31.355469 C 119.261719 30.996094 119.152344 30.976562 117.777344 30.976562 C 116.214844 30.976562 115.210938 31.230469 115.078125 31.652344 C 115.039062 31.769531 115.058594 32.773438 115.117188 33.878906 C 115.179688 34.984375 115.199219 36.386719 115.164062 36.992188 C 115.09375 38.222656 115.105469 38.234375 116.015625 37.964844 C 116.257812 37.890625 117.5625 37.582031 118.914062 37.277344 C 120.261719 36.972656 121.722656 36.628906 122.15625 36.519531 C 122.585938 36.40625 123 36.351562 123.074219 36.398438 C 123.246094 36.503906 122.511719 37.210938 122.234375 37.210938 C 122.007812 37.210938 118.992188 37.90625 116.898438 38.4375 C 116.171875 38.625 115.449219 38.761719 115.300781 38.742188 C 114.996094 38.703125 114.628906 39.246094 114.628906 39.738281 C 114.628906 39.996094 114.671875 40.007812 115.355469 39.929688 C 115.753906 39.886719 117.15625 39.679688 118.472656 39.46875 C 119.789062 39.261719 121.394531 39.007812 122.046875 38.90625 L 123.230469 38.71875 L 123.769531 39.035156 C 124.066406 39.210938 124.453125 39.535156 124.632812 39.761719 C 124.941406 40.15625 124.953125 40.160156 124.953125 39.871094 C 124.957031 39.703125 124.636719 38.96875 124.242188 38.234375 C 123.851562 37.496094 123.453125 36.753906 123.363281 36.582031 C 123.269531 36.410156 123.195312 36.148438 123.195312 36 C 123.191406 35.269531 121.90625 32.265625 121.144531 31.199219 C 120.921875 30.890625 120.496094 30.496094 120.195312 30.320312 Z M 90.523438 26.441406 C 90.046875 25.964844 89.9375 25.976562 85.417969 27.089844 C 80.292969 28.355469 78.9375 28.820312 78.289062 29.546875 C 78.050781 29.8125 78.054688 29.816406 78.367188 29.726562 C 78.539062 29.675781 79.214844 29.410156 79.863281 29.136719 C 81.609375 28.398438 83.414062 27.832031 84.976562 27.523438 C 85.738281 27.371094 86.53125 27.191406 86.738281 27.121094 C 87.613281 26.828125 88.375 26.78125 89.4375 26.964844 C 90.878906 27.210938 91.160156 27.074219 90.523438 26.441406 Z M 75.847656 27 C 75.847656 26.851562 75.757812 26.859375 75.15625 27.078125 C 74.878906 27.179688 74.566406 27.261719 74.460938 27.261719 C 74.019531 27.269531 73.347656 27.535156 73.269531 27.738281 C 73.167969 28.011719 73.613281 28.398438 74.035156 28.398438 C 74.199219 28.398438 74.4375 28.296875 74.558594 28.175781 C 74.679688 28.054688 75.019531 27.765625 75.316406 27.535156 C 75.609375 27.304688 75.847656 27.066406 75.847656 27 Z M 76.476562 14.90625 C 74.488281 14.472656 72.300781 14.519531 69.867188 15.050781 C 68.40625 15.371094 64.023438 17.363281 62.183594 18.539062 C 60.492188 19.625 60.074219 20.164062 58.953125 22.703125 C 57.257812 26.550781 57.265625 26.523438 57.523438 26.710938 C 57.800781 26.914062 58.734375 27.066406 59.066406 26.960938 C 59.199219 26.917969 59.40625 26.671875 59.527344 26.414062 C 60.390625 24.566406 63.261719 21.074219 64.492188 20.371094 C 65.671875 19.699219 69.222656 18.382812 71.125 17.910156 C 71.265625 17.875 71.972656 17.675781 72.699219 17.460938 C 74.160156 17.035156 76.152344 16.742188 78.367188 16.625 C 79.695312 16.554688 79.890625 16.574219 80.722656 16.859375 C 81.21875 17.03125 81.917969 17.316406 82.273438 17.496094 C 83.09375 17.90625 83.152344 17.902344 83.152344 17.425781 C 83.152344 16.789062 82.386719 16.121094 81.449219 15.941406 C 80.402344 15.738281 77.90625 15.21875 76.476562 14.90625 Z M 107.578125 37.390625 C 107.578125 37.292969 107.535156 37.21875 107.484375 37.230469 C 107.433594 37.242188 105.96875 37.964844 104.234375 38.835938 C 102.5 39.710938 100.089844 40.898438 98.882812 41.480469 C 94.402344 43.636719 90.03125 45.839844 85.796875 48.078125 C 80.445312 50.898438 80.46875 50.878906 78.613281 54.886719 C 78.425781 55.289062 78.136719 55.636719 77.773438 55.894531 C 77.050781 56.40625 73.222656 58.410156 70.875 59.503906 C 70.25 59.792969 69.339844 60.21875 68.851562 60.449219 C 68.363281 60.683594 67.683594 60.933594 67.34375 61.011719 C 67 61.089844 66.636719 61.226562 66.53125 61.316406 C 66.304688 61.511719 65.289062 61.84375 64.566406 61.953125 C 63.894531 62.058594 61.894531 61.707031 60.910156 61.3125 C 60.484375 61.144531 59.578125 60.695312 58.894531 60.316406 C 58.210938 59.9375 57.585938 59.628906 57.507812 59.625 C 57.335938 59.625 54.769531 60.945312 54.296875 61.277344 C 54.113281 61.40625 53.914062 61.519531 53.855469 61.523438 C 53.796875 61.527344 53.492188 61.714844 53.183594 61.941406 C 52.667969 62.3125 52.613281 62.40625 52.578125 62.933594 C 52.554688 63.253906 52.605469 63.757812 52.6875 64.058594 C 52.8125 64.511719 52.851562 64.558594 52.9375 64.347656 C 52.992188 64.207031 53.042969 63.835938 53.046875 63.519531 C 53.054688 63.0625 53.125 62.882812 53.402344 62.625 C 53.757812 62.296875 54.734375 61.621094 55.070312 61.472656 C 55.175781 61.425781 55.542969 61.222656 55.890625 61.019531 C 56.863281 60.449219 57.183594 60.496094 59.234375 61.535156 L 61.019531 62.441406 L 62.671875 62.496094 C 63.933594 62.539062 64.515625 62.503906 65.121094 62.347656 C 66.089844 62.101562 68.929688 60.871094 72.070312 59.34375 C 74.597656 58.113281 76.078125 57.414062 77.007812 57.007812 C 78.304688 56.441406 78.6875 56.066406 79.316406 54.742188 C 80.160156 52.964844 81.179688 51.402344 81.734375 51.03125 C 82.351562 50.621094 83.503906 49.949219 84.597656 49.359375 C 85.082031 49.097656 86.132812 48.535156 86.929688 48.101562 C 87.726562 47.671875 88.828125 47.078125 89.382812 46.785156 C 89.9375 46.488281 90.789062 46.035156 91.273438 45.773438 C 92.875 44.914062 95.785156 43.445312 97.066406 42.851562 C 97.757812 42.527344 98.949219 41.972656 99.710938 41.621094 C 100.472656 41.265625 102.445312 40.296875 104.09375 39.472656 C 105.746094 38.644531 107.167969 37.96875 107.261719 37.96875 C 107.433594 37.96875 107.578125 37.699219 107.578125 37.390625 Z M 111.859375 30.976562 C 111.859375 30.722656 109.671875 31.675781 109.183594 32.140625 C 108.515625 32.773438 108.351562 33.273438 108.234375 35.027344 C 108.175781 35.917969 108.167969 37.125 108.210938 37.714844 C 108.339844 39.328125 108.230469 40.378906 107.90625 40.609375 C 107.566406 40.855469 103.125 43.578125 102.542969 43.898438 C 102.300781 44.035156 101.933594 44.246094 101.722656 44.375 C 101.515625 44.503906 99.589844 45.613281 97.441406 46.84375 C 93.230469 49.257812 92.402344 49.761719 88.816406 52.089844 C 88.019531 52.609375 86.945312 53.304688 86.425781 53.636719 C 85.90625 53.96875 85.28125 54.367188 85.039062 54.527344 C 84.796875 54.683594 84.175781 55.078125 83.65625 55.40625 C 83.136719 55.734375 82.511719 56.128906 82.269531 56.285156 C 81.136719 57.011719 80.378906 57.4375 77.863281 58.769531 C 77.621094 58.898438 77.082031 59.226562 76.664062 59.496094 C 73.71875 61.425781 69.320312 63.410156 67.5625 63.609375 C 67.167969 63.652344 66.875 63.65625 66.90625 63.617188 C 66.941406 63.578125 67.898438 63.171875 69.035156 62.714844 C 71.613281 61.675781 73.015625 60.992188 74.777344 59.925781 C 75.539062 59.460938 76.757812 58.746094 77.484375 58.328125 C 80.835938 56.414062 81.964844 55.730469 85.175781 53.664062 C 85.839844 53.238281 86.691406 52.695312 87.066406 52.457031 C 87.441406 52.21875 88.058594 51.828125 88.441406 51.589844 C 88.820312 51.347656 89.332031 51.023438 89.574219 50.867188 C 90.925781 49.996094 93.777344 48.296875 96.433594 46.785156 C 100.507812 44.464844 101.546875 43.855469 103.613281 42.589844 C 104.582031 41.996094 105.808594 41.25 106.339844 40.933594 C 106.867188 40.613281 107.355469 40.285156 107.421875 40.199219 C 107.558594 40.03125 107.703125 38.628906 107.613281 38.375 C 107.53125 38.140625 107.425781 38.171875 106.425781 38.761719 C 105.121094 39.535156 102.226562 40.980469 98.636719 42.660156 C 93.023438 45.285156 82.066406 51.210938 81.496094 51.929688 C 81.351562 52.109375 80.847656 52.910156 80.371094 53.707031 C 79.046875 55.929688 78.703125 56.324219 77.480469 57.015625 C 75.726562 58.011719 70.128906 60.792969 68.066406 61.691406 C 65.886719 62.644531 64.796875 62.960938 63.253906 63.082031 C 61.59375 63.214844 60.550781 62.957031 58.640625 61.949219 C 57.699219 61.449219 56.96875 61.136719 56.828125 61.175781 C 56.472656 61.265625 53.8125 62.789062 53.8125 62.898438 C 53.8125 63.152344 54.414062 63.371094 60.296875 65.25 C 61.867188 65.75 62.109375 65.859375 61.746094 65.898438 C 60.953125 65.976562 58.582031 65.378906 55.226562 64.253906 C 54.207031 63.914062 53.636719 63.777344 53.554688 63.859375 C 53.339844 64.074219 54.046875 67.558594 54.691406 69.453125 C 55.226562 71.03125 54.941406 71.421875 54.21875 70.105469 C 53.457031 68.714844 51.855469 63.132812 52.007812 62.378906 C 52.078125 62.03125 52.460938 61.714844 53.5 61.148438 C 53.773438 61 54.199219 60.757812 54.441406 60.613281 C 54.683594 60.464844 55.113281 60.214844 55.398438 60.054688 C 57.25 59.011719 57.519531 58.945312 58.15625 59.382812 C 58.664062 59.726562 61.351562 61.082031 61.746094 61.1875 L 62.058594 61.273438 L 61.71875 60.984375 C 61.527344 60.824219 61.105469 60.554688 60.773438 60.382812 C 60.441406 60.210938 59.660156 59.78125 59.039062 59.425781 C 57.382812 58.480469 57.074219 58.390625 56.488281 58.667969 C 55.628906 59.078125 51.738281 61.4375 51.449219 61.726562 C 51.273438 61.902344 51.167969 62.160156 51.164062 62.421875 C 51.164062 63.035156 51.816406 65.910156 52.453125 68.085938 C 52.589844 68.550781 52.664062 69.046875 52.617188 69.1875 C 52.53125 69.457031 51.660156 69.78125 50.222656 70.074219 C 49.808594 70.160156 49.3125 70.320312 49.121094 70.429688 C 48.695312 70.683594 48.667969 70.660156 47.914062 69.304688 L 47.324219 68.25 L 43.359375 68.25 C 39.226562 68.25 38.816406 68.207031 37.296875 67.621094 C 36.660156 67.375 36.570312 67.523438 36.488281 68.960938 C 36.40625 70.355469 36.472656 70.515625 37.050781 70.316406 C 37.59375 70.125 38.347656 70.238281 38.828125 70.582031 C 39.128906 70.796875 39.308594 70.839844 39.621094 70.769531 C 39.84375 70.71875 40.816406 70.652344 41.785156 70.621094 C 44.136719 70.546875 44.039062 70.464844 44.09375 72.53125 C 44.128906 73.761719 44.175781 74.136719 44.316406 74.191406 C 44.90625 74.417969 51.523438 72.558594 56.832031 70.671875 C 58.066406 70.234375 63.308594 67.964844 64.890625 67.183594 C 65.480469 66.894531 66.359375 66.5 66.84375 66.308594 C 67.328125 66.117188 68.09375 65.730469 68.542969 65.445312 C 71.210938 63.753906 76.253906 60.960938 77.234375 60.628906 C 77.546875 60.523438 78.3125 60.089844 78.933594 59.667969 C 80.441406 58.648438 82.894531 56.964844 84.183594 56.0625 C 84.757812 55.660156 85.910156 54.855469 86.738281 54.273438 C 88.832031 52.8125 91.570312 50.972656 92.855469 50.164062 C 93.449219 49.792969 94.042969 49.417969 94.175781 49.328125 C 94.3125 49.238281 94.582031 49.070312 94.78125 48.949219 C 94.980469 48.832031 95.332031 48.609375 95.5625 48.457031 C 95.796875 48.304688 96.765625 47.746094 97.722656 47.214844 C 99.871094 46.015625 101.863281 44.851562 104.558594 43.21875 C 105.699219 42.527344 106.945312 41.773438 107.328125 41.546875 C 108.265625 40.992188 108.640625 40.5625 108.972656 39.667969 C 109.222656 38.996094 109.265625 38.585938 109.332031 36.015625 C 109.433594 32.296875 109.453125 32.25 111.199219 31.371094 C 111.5625 31.1875 111.859375 31.011719 111.859375 30.976562 Z M 39.546875 59.050781 C 38.953125 58.824219 38.5625 58.820312 38.265625 59.039062 C 37.574219 59.542969 38.753906 59.9375 42.542969 60.464844 C 43.84375 60.648438 44.929688 60.691406 47.835938 60.683594 C 51.5625 60.667969 52.214844 60.597656 52.570312 60.167969 C 52.722656 59.988281 52.511719 59.976562 50.285156 60.058594 C 48.308594 60.128906 47.269531 60.09375 44.933594 59.890625 C 42.023438 59.632812 40.425781 59.386719 39.546875 59.050781 Z M 68.980469 70.964844 C 69.210938 70.710938 69.207031 70.707031 68.785156 70.714844 C 68.320312 70.726562 67.15625 71.105469 65.648438 71.734375 C 65.128906 71.949219 63.65625 72.488281 62.378906 72.933594 C 61.101562 73.375 60.023438 73.773438 59.988281 73.8125 C 59.835938 73.972656 61.273438 73.683594 63.003906 73.203125 C 66.6875 72.183594 68.488281 71.507812 68.980469 70.964844 Z M 71.421875 23.394531 C 72.050781 22.839844 71.738281 22.882812 70.308594 23.550781 C 69.648438 23.859375 68.96875 24.167969 68.796875 24.242188 C 68.621094 24.3125 68.292969 24.507812 68.066406 24.675781 C 67.835938 24.84375 67.582031 25.003906 67.5 25.035156 C 67.394531 25.074219 67.386719 25.136719 67.476562 25.230469 C 67.65625 25.421875 69.050781 25.890625 69.1875 25.804688 C 69.457031 25.640625 69.253906 25.347656 68.703125 25.109375 C 68.195312 24.894531 68.136719 24.835938 68.324219 24.730469 C 68.46875 24.648438 68.699219 24.652344 68.992188 24.730469 C 69.242188 24.800781 69.539062 24.820312 69.65625 24.777344 C 69.863281 24.699219 70.542969 24.171875 71.421875 23.394531 Z M 43.253906 71.292969 C 43.023438 71.082031 42.84375 71.074219 41.1875 71.175781 C 40.15625 71.242188 40.070312 71.40625 40.230469 73.035156 C 40.300781 73.726562 40.429688 74.367188 40.515625 74.460938 C 40.644531 74.59375 40.890625 74.597656 41.796875 74.480469 C 43.457031 74.265625 43.484375 74.234375 43.484375 72.738281 C 43.484375 71.699219 43.449219 71.46875 43.253906 71.292969 Z M 82.519531 20.011719 C 81.753906 19.722656 80.652344 19.660156 80.253906 19.882812 C 79.886719 20.085938 78.34375 20.617188 75.59375 21.476562 C 73.304688 22.191406 72.824219 22.371094 72.824219 22.511719 C 72.824219 22.621094 73.191406 22.574219 74.652344 22.273438 C 77.5625 21.671875 78.230469 21.59375 80.71875 21.546875 C 82.117188 21.519531 83.320312 21.460938 83.394531 21.414062 C 83.601562 21.285156 83.554688 20.773438 83.308594 20.484375 C 83.1875 20.339844 82.832031 20.128906 82.519531 20.011719 Z M 65.449219 25.0625 C 64.65625 24.730469 64.730469 24.675781 63.835938 26.230469 C 63.585938 26.667969 63.382812 27.132812 63.382812 27.265625 C 63.382812 27.566406 63.710938 27.75 64.441406 27.847656 C 64.980469 27.921875 65.015625 27.90625 65.148438 27.5625 C 65.226562 27.363281 65.460938 26.847656 65.671875 26.414062 C 65.882812 25.980469 66.019531 25.542969 65.980469 25.441406 C 65.941406 25.339844 65.703125 25.171875 65.449219 25.0625 Z M 85.832031 21.074219 C 84.925781 20.664062 84.242188 20.597656 84.304688 20.925781 C 84.332031 21.058594 84.660156 21.238281 85.199219 21.421875 C 86.03125 21.699219 86.878906 22.191406 86.753906 22.316406 C 86.71875 22.351562 86.195312 22.203125 85.59375 21.984375 C 84.898438 21.734375 84.453125 21.632812 84.375 21.707031 C 84.183594 21.898438 84.371094 22.066406 85.007812 22.28125 C 85.335938 22.390625 85.859375 22.648438 86.171875 22.855469 C 86.835938 23.296875 87 23.320312 87.175781 22.992188 C 87.527344 22.335938 87.019531 21.613281 85.832031 21.074219 Z M 119.761719 51.703125 C 120.003906 51.304688 119.773438 51.367188 118.347656 52.09375 C 116.050781 53.261719 113.652344 54.09375 108.273438 55.589844 C 105.167969 56.453125 104.429688 56.699219 104.429688 56.867188 C 104.429688 56.929688 104.488281 56.980469 104.558594 56.980469 C 104.910156 56.980469 110.464844 55.8125 111.640625 55.492188 C 112.898438 55.148438 113.222656 55.132812 112.835938 55.4375 C 112.050781 56.058594 105.855469 57.480469 103.898438 57.488281 C 103.132812 57.488281 100.9375 57.792969 100.242188 57.992188 C 99.332031 58.25 99.855469 58.394531 101.484375 58.332031 C 102.335938 58.300781 103.066406 58.300781 103.097656 58.335938 C 103.132812 58.367188 102.984375 58.617188 102.765625 58.882812 C 102.433594 59.300781 102.300781 59.375 101.886719 59.375 C 101.617188 59.375 101.160156 59.496094 100.871094 59.640625 C 100.582031 59.789062 100.03125 59.953125 99.648438 60.007812 C 99.265625 60.058594 98.386719 60.242188 97.695312 60.417969 C 97.003906 60.589844 95.980469 60.832031 95.429688 60.953125 C 94.875 61.070312 94.25 61.214844 94.042969 61.269531 C 93.671875 61.363281 93.671875 61.367188 94.148438 61.375 C 95.011719 61.398438 102.523438 60.398438 103.605469 60.121094 C 103.886719 60.046875 104.84375 59.738281 105.734375 59.429688 C 106.625 59.121094 107.433594 58.871094 107.535156 58.871094 C 108.167969 58.871094 106.65625 59.671875 104.703125 60.375 C 103.132812 60.941406 102.46875 61.09375 101.09375 61.203125 C 99.835938 61.300781 93.828125 62.246094 90.644531 62.84375 C 89.328125 63.089844 86.949219 63.539062 85.355469 63.835938 C 83.761719 64.136719 82.246094 64.421875 81.984375 64.464844 C 81.140625 64.613281 81.488281 64.742188 82.457031 64.640625 C 83.414062 64.535156 89.4375 63.539062 96.121094 62.378906 C 98.648438 61.941406 100.398438 61.707031 101.597656 61.644531 C 102.566406 61.59375 103.453125 61.511719 103.570312 61.460938 C 103.683594 61.410156 103.8125 61.433594 103.859375 61.507812 C 104.011719 61.75 103.039062 62.039062 101.667969 62.160156 C 100.242188 62.285156 100.121094 62.304688 97.066406 62.890625 C 95.957031 63.101562 93.433594 63.585938 91.460938 63.964844 C 89.488281 64.34375 87.589844 64.6875 87.242188 64.730469 C 85.863281 64.90625 80.800781 65.785156 80.507812 65.90625 L 80.191406 66.03125 L 80.519531 66.039062 C 80.699219 66.042969 82.117188 65.84375 83.667969 65.597656 C 85.21875 65.351562 87.007812 65.097656 87.648438 65.035156 C 88.285156 64.972656 88.9375 64.890625 89.09375 64.847656 C 89.253906 64.808594 90.0625 64.71875 90.894531 64.648438 C 91.726562 64.578125 92.703125 64.488281 93.066406 64.453125 C 93.429688 64.417969 93.726562 64.4375 93.726562 64.496094 C 93.726562 64.890625 91.710938 66.082031 90.484375 66.417969 C 90.226562 66.488281 89.816406 66.675781 89.574219 66.828125 C 89.167969 67.085938 89.15625 67.113281 89.414062 67.152344 C 89.867188 67.226562 92.695312 66.558594 93.898438 66.097656 C 94.917969 65.707031 95.550781 65.324219 97.878906 63.695312 C 98.675781 63.136719 99.050781 63.128906 98.558594 63.675781 C 98.261719 64.003906 96.410156 65.328125 95.847656 65.613281 C 95.617188 65.726562 95.277344 65.964844 95.097656 66.132812 C 94.742188 66.464844 92.40625 67.378906 91.578125 67.511719 C 91.300781 67.554688 91.046875 67.640625 91.007812 67.703125 C 90.96875 67.769531 91.175781 67.78125 91.484375 67.734375 C 92.214844 67.621094 92 67.816406 91.105469 68.078125 C 90.714844 68.195312 90.164062 68.378906 89.886719 68.484375 L 89.382812 68.679688 L 90.050781 68.6875 C 90.421875 68.6875 91.113281 68.628906 91.589844 68.554688 C 92.070312 68.480469 92.589844 68.445312 92.75 68.472656 C 92.984375 68.511719 92.910156 68.582031 92.332031 68.859375 C 91.5625 69.226562 90.652344 69.460938 88.816406 69.757812 C 88.160156 69.863281 86.828125 70.09375 85.859375 70.269531 C 83.71875 70.652344 82.335938 70.863281 79.265625 71.277344 C 76.632812 71.632812 73.585938 72.148438 73.015625 72.339844 C 72.660156 72.457031 72.667969 72.460938 73.140625 72.402344 C 78.449219 71.761719 80.003906 71.617188 82.648438 71.507812 C 85.035156 71.40625 85.347656 71.414062 86.457031 71.574219 C 86.777344 71.621094 86.140625 72.417969 85.6875 72.53125 C 85.507812 72.578125 85.328125 72.65625 85.292969 72.710938 C 85.140625 72.933594 83.617188 73.597656 82.820312 73.789062 C 82.34375 73.902344 81.53125 74.097656 81.011719 74.222656 C 80.492188 74.351562 79.472656 74.550781 78.742188 74.671875 C 78.015625 74.792969 76.957031 74.996094 76.390625 75.125 C 75.820312 75.253906 74.292969 75.445312 72.988281 75.554688 C 71.6875 75.664062 70.453125 75.800781 70.242188 75.859375 L 69.867188 75.96875 L 70.242188 75.980469 C 71.03125 76.007812 74.089844 75.734375 75.722656 75.492188 C 76.65625 75.351562 78.300781 75.121094 79.375 74.980469 C 82.828125 74.527344 86.429688 73.625 89.328125 72.488281 C 91.132812 71.777344 91.609375 71.40625 92.140625 70.285156 C 92.667969 69.179688 92.867188 68.992188 94.292969 68.238281 C 94.917969 67.910156 96.183594 67.144531 97.109375 66.53125 C 98.03125 65.917969 99.304688 65.148438 99.9375 64.824219 C 101.214844 64.164062 103.9375 62.382812 104.734375 61.6875 C 105.371094 61.132812 108.53125 58.976562 109.46875 58.457031 C 110.566406 57.847656 112.316406 56.761719 113.554688 55.925781 C 114.179688 55.5 115.34375 54.734375 116.140625 54.222656 C 119.007812 52.375 119.605469 51.960938 119.761719 51.703125 Z M 124.011719 39.714844 C 123.234375 39.359375 122.441406 39.429688 117.652344 40.273438 C 117.0625 40.375 116.101562 40.5 115.511719 40.550781 C 114.105469 40.671875 113.957031 40.738281 113.625 41.421875 C 113.433594 41.820312 112.753906 42.570312 111.46875 43.792969 C 110.433594 44.777344 109.195312 46.046875 108.714844 46.609375 C 108.078125 47.355469 107.554688 47.8125 106.769531 48.308594 C 106.175781 48.679688 104.847656 49.527344 103.8125 50.195312 C 102.78125 50.859375 101.746094 51.519531 101.515625 51.660156 C 101.285156 51.800781 100.753906 52.128906 100.339844 52.386719 C 99.921875 52.644531 99.257812 53.050781 98.859375 53.289062 C 98.460938 53.523438 98.136719 53.738281 98.136719 53.761719 C 98.136719 53.785156 98.488281 53.730469 98.921875 53.640625 C 99.355469 53.554688 100.304688 53.441406 101.03125 53.394531 C 101.757812 53.347656 103.230469 53.140625 104.304688 52.9375 C 105.378906 52.730469 106.910156 52.457031 107.707031 52.324219 C 108.5 52.191406 109.351562 52.027344 109.59375 51.957031 C 110.367188 51.742188 111.003906 51.675781 110.910156 51.828125 C 110.675781 52.207031 108.003906 53.011719 105.0625 53.589844 C 103.183594 53.957031 102.5625 54.03125 98.714844 54.355469 C 97.039062 54.496094 96.9375 54.523438 96.324219 54.9375 C 95.96875 55.179688 95.167969 55.695312 94.546875 56.089844 C 93.921875 56.484375 93.144531 57.011719 92.820312 57.261719 C 92.171875 57.757812 91.019531 58.238281 90.480469 58.242188 C 90.105469 58.242188 89.066406 58.839844 84.113281 61.902344 C 82.925781 62.636719 81.53125 63.453125 81.011719 63.722656 C 80.492188 63.988281 79.414062 64.554688 78.617188 64.980469 C 77.28125 65.695312 72.375 68.242188 71.503906 68.671875 C 71.296875 68.777344 70.925781 68.996094 70.683594 69.167969 L 70.242188 69.472656 L 70.71875 69.40625 C 71.265625 69.324219 71.65625 69.148438 75.21875 67.371094 C 77.777344 66.089844 79.484375 65.183594 80.695312 64.449219 C 81.042969 64.242188 81.921875 63.730469 82.648438 63.316406 C 83.375 62.90625 84.253906 62.394531 84.597656 62.183594 C 84.945312 61.972656 86.21875 61.210938 87.429688 60.492188 C 88.644531 59.773438 89.867188 59.007812 90.152344 58.789062 C 90.535156 58.496094 90.761719 58.410156 91.011719 58.460938 C 91.492188 58.550781 92.84375 58 93.007812 57.640625 C 93.082031 57.484375 93.429688 57.21875 93.78125 57.046875 C 94.597656 56.652344 98.136719 55.800781 100.046875 55.539062 C 104.679688 54.90625 112.917969 52.164062 119.023438 49.222656 C 120.085938 48.710938 120.988281 48.292969 121.023438 48.292969 C 121.0625 48.292969 120.988281 48.410156 120.859375 48.550781 C 120.476562 48.972656 118.601562 49.960938 116.519531 50.835938 C 110.035156 53.566406 107.699219 54.4375 104.683594 55.261719 C 101.484375 56.136719 100.742188 56.3125 97.726562 56.910156 C 94.710938 57.507812 93.722656 57.792969 95.050781 57.675781 C 95.949219 57.597656 97.382812 57.421875 98.511719 57.25 C 98.964844 57.179688 99.921875 57.058594 100.644531 56.980469 C 101.378906 56.898438 102.308594 56.703125 102.746094 56.539062 C 103.179688 56.375 104.515625 55.976562 105.714844 55.652344 C 106.914062 55.328125 108.035156 55.007812 108.207031 54.9375 C 108.382812 54.871094 109.601562 54.488281 110.917969 54.089844 C 114.558594 52.980469 119.964844 50.871094 121.117188 50.109375 C 121.460938 49.878906 122.066406 49.363281 122.457031 48.960938 C 123.230469 48.164062 124.867188 46.0625 125.175781 45.460938 C 125.484375 44.867188 125.703125 43.769531 125.707031 42.796875 C 125.710938 42.03125 125.652344 41.785156 125.324219 41.160156 C 124.832031 40.21875 124.628906 40 124.011719 39.714844 Z M 118.410156 45.351562 C 119.476562 44.953125 120.296875 44.78125 120.296875 44.953125 C 120.296875 45.0625 118.292969 46.027344 117.421875 46.339844 C 116.136719 46.800781 113.808594 47.457031 111.167969 48.109375 C 109.851562 48.433594 108.414062 48.832031 107.972656 49 C 106.34375 49.609375 106.253906 49.25 107.839844 48.445312 C 108.742188 47.988281 109.3125 47.820312 111.609375 47.332031 C 114.222656 46.777344 115.882812 46.292969 118.410156 45.351562 Z M 104.460938 50.417969 C 105.960938 49.449219 106.472656 49.28125 106.761719 49.652344 C 106.832031 49.742188 107.003906 49.820312 107.140625 49.824219 C 107.542969 49.839844 108.875 49.664062 109.238281 49.550781 C 109.464844 49.480469 109.59375 49.492188 109.628906 49.59375 C 109.789062 50.035156 108.6875 51.429688 108.464844 51.066406 C 108.398438 50.960938 108.402344 50.796875 108.46875 50.667969 C 108.535156 50.546875 108.585938 50.375 108.582031 50.285156 C 108.578125 50.191406 108.449219 50.359375 108.296875 50.652344 C 108.039062 51.140625 107.265625 51.816406 106.964844 51.816406 C 106.898438 51.816406 106.765625 51.890625 106.675781 51.980469 C 106.582031 52.070312 106.027344 52.21875 105.4375 52.308594 C 103.5 52.605469 101.480469 52.960938 100.984375 53.09375 C 100.054688 53.339844 100.292969 53.007812 101.625 52.199219 C 102.359375 51.75 103.636719 50.949219 104.460938 50.417969 Z M 123.320312 40.230469 C 123.320312 39.878906 123.5 39.921875 123.863281 40.355469 C 124.753906 41.414062 125.136719 42.988281 124.84375 44.390625 C 124.519531 45.941406 124.28125 45.71875 124.269531 43.851562 C 124.261719 42.484375 124.246094 42.40625 123.789062 41.457031 C 123.53125 40.917969 123.320312 40.363281 123.320312 40.230469 Z M 100.128906 54.746094 C 100.332031 54.550781 100.652344 54.539062 100.652344 54.726562 C 100.652344 54.804688 100.5625 54.832031 100.445312 54.789062 C 100.28125 54.722656 100.269531 54.742188 100.390625 54.886719 C 100.511719 55.039062 100.449219 55.082031 100 55.160156 C 99.699219 55.207031 99.203125 55.347656 98.890625 55.46875 C 98.304688 55.699219 96.253906 56.023438 96.136719 55.90625 C 96.101562 55.871094 96.191406 55.71875 96.339844 55.574219 C 96.683594 55.230469 97.949219 54.925781 99.078125 54.914062 C 99.601562 54.90625 100.03125 54.839844 100.128906 54.746094 Z M 100.855469 27.878906 C 101.058594 27.652344 101.054688 27.640625 100.769531 27.648438 C 100.601562 27.652344 100.066406 27.765625 99.582031 27.894531 C 99.097656 28.027344 98.164062 28.253906 97.503906 28.398438 C 95.273438 28.882812 92.410156 29.566406 91.585938 29.808594 C 88.859375 30.609375 83.566406 32.410156 82.71875 32.828125 C 82.171875 33.097656 80.839844 33.902344 79.761719 34.609375 C 77.144531 36.328125 75.589844 37.289062 75.265625 37.386719 C 75.121094 37.433594 74.640625 37.382812 74.195312 37.277344 C 73.753906 37.175781 73.253906 37.089844 73.089844 37.085938 C 72.746094 37.085938 72.203125 37.625 71.015625 39.148438 C 67.863281 43.199219 67.585938 44.292969 69.527344 45 C 69.9375 45.148438 70.328125 45.269531 70.402344 45.269531 C 70.589844 45.269531 71.589844 44.480469 73.949219 42.460938 C 76.175781 40.558594 77.460938 39.570312 78.804688 38.730469 C 79.292969 38.425781 79.828125 38.089844 80.003906 37.980469 C 80.835938 37.457031 84.777344 35.449219 84.96875 35.449219 C 84.992188 35.449219 85.914062 35.015625 87.011719 34.492188 C 88.109375 33.964844 89.742188 33.191406 90.644531 32.773438 C 91.542969 32.355469 93.1875 31.546875 94.292969 30.972656 C 96.203125 29.980469 98.75 28.816406 100.050781 28.335938 C 100.375 28.214844 100.738281 28.007812 100.855469 27.878906 Z M 95.90625 54.039062 C 95.863281 53.996094 95.765625 53.964844 95.691406 53.972656 C 95.417969 53.996094 91.523438 56.417969 90.988281 56.898438 C 90.285156 57.527344 90.957031 57.515625 92 56.878906 C 95.757812 54.578125 96.15625 54.289062 95.90625 54.039062 Z M 78.367188 25.257812 C 78.367188 25.085938 78.074219 25.097656 77.359375 25.300781 C 77.046875 25.386719 76.367188 25.558594 75.847656 25.683594 C 74.582031 25.984375 74.132812 26.179688 73.957031 26.511719 C 73.816406 26.777344 73.828125 26.789062 74.230469 26.730469 C 75.851562 26.496094 78.367188 25.601562 78.367188 25.257812 Z M 69.847656 72.972656 C 70.105469 72.867188 70.105469 72.863281 69.804688 72.871094 C 68.660156 72.902344 62.476562 73.949219 62.113281 74.175781 C 62.058594 74.207031 62.074219 74.433594 62.140625 74.679688 C 62.320312 75.335938 62.238281 75.9375 61.964844 75.914062 C 61.847656 75.90625 61.777344 75.941406 61.808594 76 C 61.925781 76.1875 62.558594 76.238281 63.570312 76.132812 C 64.125 76.078125 64.390625 76.023438 64.164062 76.011719 C 63.9375 76.003906 63.558594 75.914062 63.328125 75.816406 C 62.972656 75.667969 62.890625 75.558594 62.816406 75.117188 C 62.765625 74.828125 62.746094 74.574219 62.769531 74.550781 C 62.851562 74.476562 67.207031 73.5 68.398438 73.289062 C 69.046875 73.175781 69.699219 73.03125 69.847656 72.972656 Z M 59.527344 58.128906 C 58.757812 57.773438 58.050781 57.488281 57.953125 57.496094 C 57.316406 57.53125 57.304688 57.917969 57.933594 58.210938 C 58.195312 58.332031 59.3125 58.914062 60.421875 59.507812 C 61.53125 60.101562 62.824219 60.777344 63.296875 61.011719 L 64.152344 61.429688 L 64.996094 61.265625 C 65.457031 61.175781 65.90625 61.074219 65.996094 61.042969 C 66.363281 60.90625 66.09375 60.675781 65.238281 60.398438 C 63.886719 59.957031 61.117188 58.859375 59.527344 58.128906 Z M 38 63.304688 C 37.957031 63.117188 37.910156 62.910156 37.898438 62.847656 C 37.839844 62.605469 37.566406 63.777344 37.566406 64.269531 C 37.566406 64.558594 37.484375 65 37.378906 65.25 C 37.0625 66.007812 37.128906 66.601562 37.578125 66.980469 C 37.789062 67.160156 38.003906 67.304688 38.050781 67.308594 C 38.097656 67.308594 38.671875 67.398438 39.332031 67.511719 C 40.8125 67.761719 43.941406 67.789062 45.785156 67.570312 C 47.042969 67.417969 47.164062 67.425781 47.523438 67.640625 C 47.761719 67.78125 48.09375 68.207031 48.378906 68.734375 C 48.636719 69.207031 48.929688 69.644531 49.03125 69.699219 C 49.285156 69.839844 51.6875 69.164062 51.851562 68.90625 C 51.972656 68.710938 51.664062 67.175781 51.398438 66.648438 C 51.257812 66.375 50.671875 66.226562 49.035156 66.054688 C 47.816406 65.925781 45.476562 65.558594 43.046875 65.109375 C 39.554688 64.464844 38.144531 63.957031 38 63.304688 Z M 39.765625 73.242188 C 39.609375 71.34375 39.453125 71.410156 39.515625 73.351562 C 39.546875 74.363281 39.519531 75.261719 39.457031 75.367188 C 39.371094 75.507812 39.09375 75.554688 38.359375 75.554688 C 37.820312 75.554688 37.179688 75.527344 36.9375 75.492188 C 36.558594 75.4375 36.496094 75.464844 36.496094 75.679688 C 36.496094 75.902344 36.59375 75.9375 37.304688 75.96875 C 38.503906 76.027344 43.5625 75.195312 44.09375 74.855469 C 44.253906 74.75 44.1875 74.734375 43.800781 74.792969 C 41.605469 75.105469 40.457031 75.230469 40.292969 75.164062 C 40.027344 75.0625 39.867188 74.484375 39.765625 73.242188 Z M 33.972656 72.105469 C 34.582031 71.722656 34.921875 71.617188 34.921875 71.808594 C 34.921875 71.863281 34.429688 72.257812 33.820312 72.6875 C 33.214844 73.113281 32.179688 73.941406 31.523438 74.527344 C 30.09375 75.800781 29.882812 75.84375 30.894531 74.660156 C 31.332031 74.148438 33.222656 72.578125 33.972656 72.105469 Z M 95.050781 72.917969 C 95.464844 72.824219 96.003906 72.742188 96.246094 72.738281 C 97.816406 72.707031 93.644531 73.542969 91.652344 73.660156 C 89.90625 73.761719 90.488281 73.539062 92.628906 73.285156 C 93.546875 73.175781 94.632812 73.007812 95.050781 72.917969 Z M 73.328125 78.5 C 74.402344 78.304688 80.667969 78.507812 81.292969 78.761719 C 81.535156 78.859375 81.503906 78.875 81.074219 78.886719 C 79.769531 78.910156 72.941406 78.570312 73.328125 78.5 Z M 77.863281 80.992188 C 81.292969 80.796875 83.585938 80.765625 84.726562 80.894531 L 85.480469 80.976562 L 84.851562 81.070312 C 84.503906 81.117188 83.570312 81.214844 82.773438 81.285156 C 79.808594 81.539062 77.289062 81.808594 77.105469 81.890625 C 77.003906 81.933594 78.335938 82.003906 80.066406 82.042969 C 82.6875 82.101562 83.296875 82.148438 83.714844 82.332031 C 84.109375 82.507812 84.175781 82.578125 84.03125 82.671875 C 83.925781 82.738281 83.730469 82.796875 83.589844 82.808594 C 83.453125 82.816406 83.566406 82.875 83.84375 82.9375 C 84.121094 83 84.394531 83.953125 84.5625 84.121094 C 84.742188 84.300781 90.789062 87.078125 85.417969 87.09375 C 82.265625 87.105469 79.746094 87.132812 79.8125 87.152344 C 80.691406 87.410156 86.878906 88.394531 88.753906 88.574219 C 89.515625 88.648438 89.503906 88.960938 87.304688 88.652344 C 86.578125 88.550781 84.765625 88.355469 83.277344 88.222656 C 80.316406 87.949219 80.226562 87.945312 75.265625 87.582031 C 70.082031 87.203125 67.246094 86.976562 64.199219 86.699219 C 62.675781 86.5625 60.125 86.335938 58.535156 86.195312 C 49.417969 85.40625 44.367188 84.84375 42.039062 84.363281 C 41.207031 84.191406 39.628906 83.910156 38.53125 83.734375 C 37.433594 83.5625 36.378906 83.335938 36.1875 83.238281 C 35.574219 82.921875 29.453125 82.089844 35.554688 81.660156 C 40.769531 81.289062 48.246094 81.148438 62.183594 81.160156 C 71.472656 81.164062 75.585938 81.121094 77.863281 80.992188 Z M 33.601562 85.878906 C 32.5625 85.777344 34.058594 85.5 34.921875 85.5625 C 38.421875 85.820312 40.070312 85.957031 41.03125 86.070312 C 41.585938 86.132812 43.1875 86.273438 44.597656 86.386719 C 46.003906 86.496094 47.703125 86.660156 48.375 86.753906 L 49.59375 86.921875 L 48.609375 86.933594 C 47.640625 86.949219 45.820312 86.816406 40.25 86.316406 C 38.710938 86.179688 37.011719 86.066406 36.472656 86.066406 C 35.933594 86.0625 34.640625 85.980469 33.601562 85.878906 Z M 69.742188 89.476562 C 68.910156 89.347656 68.371094 89.238281 68.542969 89.230469 C 69.039062 89.210938 72.929688 89.570312 75.21875 89.847656 C 76.359375 89.984375 78.371094 90.214844 79.683594 90.355469 C 82.140625 90.621094 83.039062 90.824219 81.136719 90.683594 C 80.546875 90.640625 79.132812 90.496094 77.988281 90.359375 C 76.84375 90.226562 74.863281 90.023438 73.582031 89.910156 C 72.300781 89.796875 70.570312 89.601562 69.742188 89.476562 Z M 69.742188 89.476562 " fill-opacity="1" fill-rule="evenodd"/></g><g fill="#0c0c35" fill-opacity="1"><g transform="translate(140.039525, 85.842724)"><g><path d="M 44.46875 -21.59375 C 44.46875 -18.101562 43.457031 -14.484375 41.4375 -10.734375 C 39.425781 -6.992188 36.582031 -4.066406 32.90625 -1.953125 C 29.226562 0.148438 25.28125 1.203125 21.0625 1.203125 C 15.976562 1.203125 11.851562 -0.289062 8.6875 -3.28125 C 5.519531 -6.269531 3.9375 -10.210938 3.9375 -15.109375 C 3.9375 -19.140625 5 -22.859375 7.125 -26.265625 C 9.25 -29.671875 12.140625 -32.375 15.796875 -34.375 C 19.460938 -36.375 23.25 -37.375 27.15625 -37.375 C 30.25 -37.375 33.144531 -36.703125 35.84375 -35.359375 C 38.550781 -34.015625 40.664062 -32.148438 42.1875 -29.765625 C 43.707031 -27.378906 44.46875 -24.65625 44.46875 -21.59375 Z M 22.5 -7.921875 C 24.675781 -7.921875 26.679688 -8.519531 28.515625 -9.71875 C 30.359375 -10.914062 31.820312 -12.460938 32.90625 -14.359375 C 33.988281 -16.265625 34.53125 -18.144531 34.53125 -20 C 34.53125 -22.300781 33.660156 -24.25 31.921875 -25.84375 C 30.179688 -27.445312 28.09375 -28.25 25.65625 -28.25 C 23.769531 -28.25 21.898438 -27.738281 20.046875 -26.71875 C 18.191406 -25.695312 16.695312 -24.320312 15.5625 -22.59375 C 14.425781 -20.863281 13.859375 -18.945312 13.859375 -16.84375 C 13.859375 -14.25 14.664062 -12.113281 16.28125 -10.4375 C 17.894531 -8.757812 19.96875 -7.921875 22.5 -7.921875 Z M 22.5 -7.921875 "/></g></g></g><g fill="#0c0c35" fill-opacity="1"><g transform="translate(177.499884, 85.842724)"><g><path d="M 23.078125 -36.171875 C 26.335938 -36.171875 28.945312 -35.398438 30.90625 -33.859375 C 32.875 -32.328125 33.859375 -30.125 33.859375 -27.25 C 33.859375 -24.175781 32.945312 -21.460938 31.125 -19.109375 C 29.300781 -16.765625 26.96875 -15.335938 24.125 -14.828125 L 33.140625 0 L 21.4375 0 L 14.78125 -13.90625 L 14.671875 -13.90625 L 12.46875 0 L 3.0625 0 L 8.78125 -36.171875 Z M 15.640625 -19.953125 L 16.9375 -19.953125 C 19.144531 -19.953125 20.851562 -20.414062 22.0625 -21.34375 C 23.28125 -22.269531 23.890625 -23.628906 23.890625 -25.421875 C 23.890625 -27.785156 21.9375 -28.96875 18.03125 -28.96875 L 17.078125 -28.96875 Z M 15.640625 -19.953125 "/></g></g></g><g clip-path="url(#cee7e2bc85)"><path stroke-linecap="butt" transform="matrix(0.899661, 0, 0, 0.899661, 18.908902, 38.039443)" fill="none" stroke-linejoin="miter" d="M 19.179624 12.795195 L 22.058312 38.755494 L 22.162518 38.755494 L 34.688938 12.795195 L 43.008043 12.795195 L 46.798533 38.755494 L 46.902739 38.755494 L 58.59117 12.795195 L 69.46332 12.795195 L 50.272064 53.001311 L 39.5953 53.001311 L 36.239001 29.693921 L 36.134795 29.693921 L 24.559254 53.001311 L 13.947619 53.001311 L 8.294448 12.795195 Z M 89.670584 12.795195 L 98.471642 53.001311 L 87.325951 53.001311 L 85.841016 46.006488 L 71.443232 46.006488 L 67.548536 53.001311 L 56.454948 53.001311 L 78.264378 12.795195 Z M 75.594101 38.013026 L 84.290953 38.013026 L 82.054868 25.217408 L 81.950662 25.217408 Z M 112.865084 12.795195 L 107.906619 44.14815 L 120.446064 44.14815 L 119.065336 53.001311 L 96.070564 53.001311 L 102.427124 12.795195 Z M 133.610745 12.795195 L 131.005597 29.368277 L 131.109803 29.368277 L 146.358602 12.795195 L 159.323554 12.795195 L 140.327684 31.830142 L 154.417192 53.001311 L 140.861739 53.001311 L 130.145898 35.564187 L 130.041692 35.564187 L 127.271551 53.001311 L 116.816225 53.001311 L 123.168443 12.795195 Z M 133.610745 12.795195 " stroke="#0c0c35" stroke-width="5.399997" stroke-opacity="1" stroke-miterlimit="4"/></g><g fill="#ffffff" fill-opacity="1"><g transform="translate(21.38297, 85.721477)"><g><path d="M 14.78125 -36.1875 L 17.375 -12.8125 L 17.46875 -12.8125 L 28.75 -36.1875 L 36.234375 -36.1875 L 39.640625 -12.8125 L 39.734375 -12.8125 L 50.234375 -36.1875 L 60.03125 -36.1875 L 42.75 0 L 33.15625 0 L 30.140625 -20.96875 L 30.03125 -20.96875 L 19.625 0 L 10.078125 0 L 4.984375 -36.1875 Z M 14.78125 -36.1875 "/></g></g></g><g fill="#ffffff" fill-opacity="1"><g transform="translate(69.887371, 85.721477)"><g><path d="M 29.703125 -36.1875 L 37.625 0 L 27.59375 0 L 26.25 -6.28125 L 13.296875 -6.28125 L 9.78125 0 L -0.1875 0 L 19.4375 -36.1875 Z M 17.03125 -13.484375 L 24.859375 -13.484375 L 22.84375 -25 L 22.75 -25 Z M 17.03125 -13.484375 "/></g></g></g><g fill="#ffffff" fill-opacity="1"><g transform="translate(102.271454, 85.721477)"><g><path d="M 18.1875 -36.1875 L 13.71875 -7.96875 L 25 -7.96875 L 23.75 0 L 3.078125 0 L 8.78125 -36.1875 Z M 18.1875 -36.1875 "/></g></g></g><g fill="#ffffff" fill-opacity="1"><g transform="translate(120.934073, 85.721477)"><g><path d="M 18.1875 -36.1875 L 15.828125 -21.25 L 15.9375 -21.25 L 29.65625 -36.1875 L 41.3125 -36.1875 L 24.234375 -19.046875 L 36.90625 0 L 24.71875 0 L 15.0625 -15.6875 L 14.96875 -15.6875 L 12.46875 0 L 3.078125 0 L 8.78125 -36.1875 Z M 18.1875 -36.1875 "/></g></g></g><g clip-path="url(#3a1d39374c)"><path stroke-linecap="butt" transform="matrix(0.899661, 0, 0, 0.899661, 200.488774, 38.039443)" fill="none" stroke-linejoin="miter" d="M 25.651475 12.795195 C 29.276973 12.795195 32.186054 13.650552 34.374379 15.361266 C 36.558361 17.058954 37.652523 19.507793 37.652523 22.703441 C 37.652523 26.120526 36.636515 29.138156 34.608842 31.751988 C 32.58551 34.365819 29.989046 35.950618 26.81945 36.515066 L 36.844927 53.001311 L 23.840897 53.001311 L 16.429252 37.531074 L 16.31202 37.531074 L 13.867523 53.001311 L 3.412196 53.001311 L 9.764415 12.795195 Z M 17.380131 30.814134 L 18.825988 30.814134 C 21.283511 30.814134 23.185269 30.297447 24.531262 29.264071 C 25.885938 28.230696 26.558935 26.71971 26.558935 24.735456 C 26.558935 22.104257 24.39232 20.788657 20.050407 20.788657 L 18.982297 20.788657 Z M 50.608792 12.795195 L 47.300254 34.018466 C 46.978952 35.93325 46.818302 37.496339 46.818302 38.703391 C 46.818302 40.735406 47.252493 42.276785 48.120876 43.327528 C 48.997942 44.369587 50.504586 44.890617 52.640807 44.890617 C 55.232929 44.890617 57.212842 44.048286 58.576202 42.363623 C 59.948247 40.670277 60.899126 38.008684 61.428839 34.383187 L 64.798164 12.795195 L 75.240465 12.795195 L 71.623651 35.928908 C 70.911578 40.626858 69.682816 44.204595 67.937367 46.657775 C 66.191918 49.106614 63.873336 50.956269 60.972938 52.20674 C 58.081224 53.448528 54.824789 54.069421 51.19495 54.069421 C 46.288588 54.069421 42.52415 53.009994 39.89295 50.891141 C 37.261751 48.772287 35.946151 45.689529 35.946151 41.647208 C 35.946151 40.900399 35.980886 40.084119 36.050357 39.198369 C 36.119828 38.303935 37.48753 29.502877 40.153465 12.795195 Z M 86.651013 12.795195 L 101.912837 37.374765 L 102.017043 37.374765 L 105.907397 12.795195 L 116.362724 12.795195 L 110.010505 53.001311 L 99.568204 53.001311 L 84.310722 28.365295 L 84.206516 28.365295 L 80.31182 53.001311 L 69.856493 53.001311 L 76.208712 12.795195 Z M 86.651013 12.795195 " stroke="#0c0c35" stroke-width="5.399997" stroke-opacity="1" stroke-miterlimit="4"/></g><g fill="#ffffff" fill-opacity="1"><g transform="translate(200.488774, 85.721477)"><g><path d="M 23.078125 -36.1875 C 26.335938 -36.1875 28.953125 -35.414062 30.921875 -33.875 C 32.890625 -32.34375 33.875 -30.132812 33.875 -27.25 C 33.875 -24.1875 32.960938 -21.476562 31.140625 -19.125 C 29.316406 -16.769531 26.984375 -15.335938 24.140625 -14.828125 L 33.15625 0 L 21.453125 0 L 14.78125 -13.921875 L 14.6875 -13.921875 L 12.46875 0 L 3.078125 0 L 8.78125 -36.1875 Z M 15.640625 -19.96875 L 16.9375 -19.96875 C 19.144531 -19.96875 20.851562 -20.429688 22.0625 -21.359375 C 23.28125 -22.285156 23.890625 -23.644531 23.890625 -25.4375 C 23.890625 -27.800781 21.941406 -28.984375 18.046875 -28.984375 L 17.078125 -28.984375 Z M 15.640625 -19.96875 "/></g></g></g><g fill="#ffffff" fill-opacity="1"><g transform="translate(228.027157, 85.721477)"><g><path d="M 18 -36.1875 L 15.015625 -17.078125 C 14.734375 -15.347656 14.59375 -13.941406 14.59375 -12.859375 C 14.59375 -11.035156 14.984375 -9.648438 15.765625 -8.703125 C 16.546875 -7.765625 17.894531 -7.296875 19.8125 -7.296875 C 22.15625 -7.296875 23.941406 -8.054688 25.171875 -9.578125 C 26.398438 -11.097656 27.253906 -13.488281 27.734375 -16.75 L 30.765625 -36.1875 L 40.15625 -36.1875 L 36.90625 -15.359375 C 36.257812 -11.128906 35.148438 -7.910156 33.578125 -5.703125 C 32.015625 -3.503906 29.929688 -1.84375 27.328125 -0.71875 C 24.722656 0.394531 21.785156 0.953125 18.515625 0.953125 C 14.109375 0.953125 10.71875 0.00390625 8.34375 -1.890625 C 5.976562 -3.796875 4.796875 -6.570312 4.796875 -10.21875 C 4.796875 -10.894531 4.828125 -11.628906 4.890625 -12.421875 C 4.953125 -13.222656 6.1875 -21.144531 8.59375 -36.1875 Z M 18 -36.1875 "/></g></g></g><g fill="#ffffff" fill-opacity="1"><g transform="translate(260.267305, 85.721477)"><g><path d="M 18.1875 -36.1875 L 31.90625 -14.0625 L 32 -14.0625 L 35.515625 -36.1875 L 44.90625 -36.1875 L 39.203125 0 L 29.796875 0 L 16.078125 -22.171875 L 15.984375 -22.171875 L 12.46875 0 L 3.078125 0 L 8.78125 -36.1875 Z M 18.1875 -36.1875 "/></g></g></g></svg>