<svg xmlns="http://www.w3.org/2000/svg" xmlns:xlink="http://www.w3.org/1999/xlink" width="430" zoomAndPan="magnify" viewBox="0 0 322.5 121.500001" height="162" preserveAspectRatio="xMidYMid meet" version="1.0"><defs><g/><clipPath id="a283e728ce"><path d="M 30 0 L 126.554688 0 L 126.554688 91.125 L 30 91.125 Z M 30 0 " clip-rule="nonzero"/></clipPath><clipPath id="9cbd8eb260"><path d="M 0.410156 22 L 190 22 L 190 114 L 0.410156 114 Z M 0.410156 22 " clip-rule="nonzero"/></clipPath><clipPath id="f3f7e40b4c"><path d="M 176 22 L 321.589844 22 L 321.589844 115 L 176 115 Z M 176 22 " clip-rule="nonzero"/></clipPath></defs><g clip-path="url(#a283e728ce)"><path fill="#000000" d="M 75.617188 3.324219 C 75.75 3.5625 75.878906 3.8125 75.988281 4.058594 C 76.296875 4.761719 76.5 5.300781 77.613281 8.339844 C 78.621094 11.09375 78.957031 12.339844 79.171875 14.121094 C 79.269531 14.910156 79.550781 15.089844 80.894531 15.214844 C 82.773438 15.386719 83.523438 15.980469 84.085938 17.722656 C 84.289062 18.363281 84.335938 18.40625 85.109375 18.757812 C 86.671875 19.46875 86.773438 20.117188 87.367188 20.984375 C 87.964844 21.867188 88.214844 22.9375 88.226562 22.972656 C 88.386719 23.589844 87.914062 24.003906 88.671875 24.605469 C 89.378906 25.164062 90.859375 25.691406 91.246094 25.980469 C 91.675781 26.304688 93.40625 27.457031 94.351562 27.777344 C 94.867188 27.957031 95.179688 28.089844 95.671875 28.136719 C 95.945312 28.164062 96.203125 28.121094 96.457031 28.066406 C 96.90625 28.035156 97.828125 27.859375 99.261719 27.527344 C 99.972656 27.359375 100.828125 27.226562 101.164062 27.226562 C 101.789062 27.226562 103.238281 26.898438 104.152344 26.550781 C 104.429688 26.449219 105.273438 26.128906 106.027344 25.839844 C 108.511719 24.894531 110.78125 24.605469 112.511719 25.015625 C 114.007812 25.367188 115.871094 26.105469 118.089844 27.222656 C 119.246094 27.804688 119.621094 28.144531 120.058594 29.011719 C 120.222656 29.332031 120.59375 29.769531 120.886719 29.984375 C 121.566406 30.488281 122.144531 31.300781 122.828125 32.71875 C 123.570312 34.273438 123.714844 34.632812 124.023438 35.773438 C 124.171875 36.3125 124.402344 36.929688 124.53125 37.140625 C 124.910156 37.757812 125.617188 39.242188 125.792969 39.792969 C 125.882812 40.070312 126.089844 40.566406 126.253906 40.894531 C 126.507812 41.402344 126.550781 41.679688 126.550781 42.734375 C 126.550781 44.132812 126.261719 45.472656 125.789062 46.257812 C 125.085938 47.425781 123.710938 49.03125 121.828125 50.882812 C 119.847656 52.828125 119.710938 52.933594 115.953125 55.441406 C 112.070312 58.03125 111.617188 58.316406 109.324219 59.628906 C 108.632812 60.027344 107.183594 61.007812 106.109375 61.8125 C 102.820312 64.265625 102.472656 64.503906 100.75 65.5 C 99.988281 65.9375 99.011719 66.539062 98.578125 66.835938 C 98.148438 67.132812 97.664062 67.414062 97.503906 67.464844 C 97.34375 67.515625 96.898438 67.769531 96.515625 68.027344 C 96.136719 68.285156 95.339844 68.769531 94.75 69.101562 C 93.394531 69.871094 93.277344 69.976562 92.894531 70.742188 C 92.183594 72.164062 91.746094 72.515625 89.609375 73.382812 C 85.40625 75.085938 81.222656 76 73.929688 76.796875 C 71.957031 77.015625 62.675781 77.335938 62.164062 77.207031 C 61.976562 77.160156 54.363281 78.597656 49.597656 79.28125 C 41.585938 80.433594 41.074219 80.277344 38.9375 80.484375 C 36.167969 80.746094 36.640625 79.515625 36.203125 78.898438 C 35.871094 78.433594 35.511719 75.851562 35.691406 75.230469 C 35.761719 74.988281 35.820312 73.792969 35.820312 72.578125 C 35.820312 71.359375 35.855469 69.382812 35.902344 68.183594 L 35.984375 66.003906 L 36.421875 65.496094 C 36.957031 64.867188 37.097656 64.070312 37.15625 61.269531 C 37.179688 60.226562 37.226562 59.253906 37.261719 59.105469 C 37.328125 58.84375 37.683594 58.648438 38.371094 58.5 C 38.589844 58.449219 38.742188 58.320312 38.78125 58.140625 C 38.921875 57.542969 39.078125 44.265625 38.953125 43.859375 C 38.882812 43.640625 38.792969 42.320312 38.757812 40.929688 C 38.695312 38.585938 38.710938 38.332031 38.96875 37.394531 C 39.789062 34.449219 40.242188 33.554688 41.710938 31.996094 C 42.085938 31.601562 42.527344 30.976562 42.695312 30.609375 C 43.070312 29.785156 43.328125 29.472656 43.894531 29.132812 C 44.386719 28.839844 45.261719 28.78125 45.703125 29.011719 C 45.851562 29.089844 46.339844 29.460938 46.785156 29.839844 C 47.441406 30.394531 47.664062 30.515625 47.984375 30.484375 C 48.347656 30.449219 48.371094 30.414062 48.339844 30.003906 C 48.15625 27.628906 48.160156 27.382812 48.410156 26.8125 C 48.550781 26.5 49.058594 25.570312 49.542969 24.746094 C 50.027344 23.921875 50.667969 22.792969 50.964844 22.234375 C 51.648438 20.960938 52.699219 19.417969 52.992188 19.261719 C 53.632812 18.917969 53.417969 18.429688 51.503906 15.875 C 50.808594 14.945312 49.996094 13.722656 49.695312 13.15625 C 49.058594 11.941406 48.5625 10.171875 48.5625 9.105469 C 48.5625 7.097656 50.835938 4.679688 54.222656 3.085938 C 56.878906 1.832031 59.976562 0.675781 61.679688 0.304688 C 63.015625 0.0117188 65.886719 0.0507812 68.503906 0.398438 C 70.292969 0.640625 71.28125 0.664062 72.390625 0.507812 C 72.777344 0.453125 72.953125 0.4375 73.109375 0.511719 C 73.164062 0.507812 73.21875 0.515625 73.273438 0.542969 C 74.175781 0.972656 74.871094 1.878906 75.582031 3.214844 C 75.601562 3.25 75.613281 3.285156 75.617188 3.324219 Z M 73.515625 1.425781 C 73.496094 1.421875 73.476562 1.417969 73.457031 1.414062 C 73.265625 1.378906 72.835938 1.441406 72.503906 1.558594 C 71.972656 1.746094 71.886719 1.75 71.78125 1.582031 C 71.65625 1.378906 71.796875 1.285156 72.445312 1.144531 C 72.867188 1.054688 72.917969 0.695312 72.507812 0.699219 C 72.351562 0.703125 72.082031 0.8125 71.910156 0.949219 C 71.511719 1.261719 70.84375 1.269531 69.042969 0.992188 C 68.066406 0.839844 66.84375 0.777344 64.71875 0.773438 L 61.75 0.769531 L 60.363281 1.242188 C 57.917969 2.078125 54.515625 3.535156 53.15625 4.332031 C 51.925781 5.050781 50.792969 5.925781 50.328125 6.511719 C 49.75 7.242188 49.070312 8.621094 49.070312 9.0625 C 49.070312 9.5625 49.765625 11.828125 50.160156 12.605469 C 50.625 13.527344 51.273438 14.511719 52.46875 16.109375 C 53.066406 16.90625 53.683594 17.769531 53.835938 18.019531 C 54.238281 18.671875 54.425781 18.792969 55.171875 18.894531 C 55.53125 18.945312 56.480469 19.28125 57.277344 19.644531 C 59.152344 20.5 59.203125 20.507812 59.5625 20.082031 C 60.863281 18.550781 63.496094 16.898438 66.390625 15.792969 C 67.066406 15.535156 67.621094 15.28125 67.621094 15.226562 C 67.621094 15.171875 67.484375 15.09375 67.324219 15.050781 C 66.78125 14.914062 66.402344 14.375 66.003906 13.171875 C 65.371094 11.253906 64.308594 8.738281 63.085938 6.242188 C 61.96875 3.96875 61.9375 3.882812 62.109375 3.527344 C 62.210938 3.324219 62.367188 2.914062 62.464844 2.609375 C 62.558594 2.308594 62.691406 2.050781 62.757812 2.042969 C 62.828125 2.03125 62.925781 2.328125 62.980469 2.699219 C 63.035156 3.070312 63.1875 3.53125 63.320312 3.71875 C 63.457031 3.910156 63.789062 4.570312 64.0625 5.191406 C 64.335938 5.8125 65.191406 7.636719 65.957031 9.246094 C 66.726562 10.859375 67.441406 12.378906 67.542969 12.625 L 67.734375 13.078125 L 70.609375 13.078125 C 72.800781 13.082031 73.9375 13.144531 75.378906 13.339844 C 76.421875 13.484375 77.511719 13.632812 77.808594 13.671875 C 78.527344 13.765625 78.574219 13.589844 78.21875 12.152344 C 77.855469 10.695312 75.851562 5.238281 75.066406 3.554688 C 75.054688 3.542969 75.042969 3.523438 75.035156 3.507812 C 74.542969 2.582031 74.078125 1.875 73.515625 1.425781 Z M 66.324219 2.125 C 66.652344 2.109375 66.976562 2.097656 67.261719 2.089844 C 67.546875 2.082031 67.792969 2.082031 67.964844 2.082031 C 68.191406 2.085938 68.375 2.109375 68.542969 2.152344 C 68.78125 2.210938 68.992188 2.304688 69.289062 2.390625 C 69.570312 2.476562 69.953125 2.574219 70.363281 2.683594 C 70.722656 2.777344 71.101562 2.878906 71.449219 2.980469 C 71.808594 3.078125 72.132812 3.175781 72.382812 3.261719 C 72.417969 3.269531 72.445312 3.296875 72.453125 3.332031 C 72.875 3.464844 73.195312 3.765625 73.609375 4.335938 C 74.316406 5.304688 74.699219 6.230469 74.753906 7.089844 C 74.773438 7.445312 74.910156 8.121094 75.054688 8.59375 C 75.292969 9.367188 75.300781 9.480469 75.132812 9.738281 L 74.945312 10.023438 L 71.3125 9.964844 C 69.316406 9.929688 67.558594 9.878906 67.410156 9.847656 C 67.203125 9.808594 66.9375 9.410156 66.378906 8.308594 C 65.964844 7.492188 65.449219 6.484375 65.238281 6.066406 C 65.023438 5.648438 64.65625 4.910156 64.421875 4.421875 C 64.1875 3.9375 63.890625 3.359375 63.757812 3.136719 C 63.53125 2.75 63.53125 2.730469 63.753906 2.480469 C 63.882812 2.34375 64.109375 2.203125 64.257812 2.175781 C 64.402344 2.144531 65.332031 2.121094 66.324219 2.125 Z M 71.441406 3.316406 C 71.011719 3.253906 70.539062 3.191406 70.109375 3.125 C 69.738281 3.066406 69.402344 3.003906 69.148438 2.949219 C 68.847656 2.882812 68.632812 2.808594 68.398438 2.753906 C 68.265625 2.722656 68.125 2.699219 67.953125 2.691406 C 67.644531 2.675781 67.117188 2.652344 66.554688 2.617188 C 65.980469 2.578125 65.382812 2.523438 64.945312 2.488281 C 64.550781 2.582031 64.289062 2.691406 64.195312 2.800781 C 64.058594 2.964844 64.074219 3.078125 64.289062 3.457031 C 66.074219 6.652344 66.582031 7.585938 66.953125 8.320312 C 67.410156 9.226562 67.65625 9.410156 68.628906 9.582031 C 68.949219 9.640625 69.011719 9.628906 68.859375 9.539062 C 68.605469 9.386719 67.800781 7.839844 67.191406 6.328125 C 66.941406 5.707031 66.515625 4.824219 66.246094 4.367188 C 65.769531 3.566406 65.679688 3.339844 65.710938 3.003906 C 65.726562 2.832031 66.105469 2.777344 66.105469 2.945312 C 66.105469 2.996094 66.300781 3.347656 66.539062 3.71875 C 66.777344 4.089844 67.316406 5.167969 67.730469 6.117188 C 68.722656 8.375 69.09375 9.023438 69.429688 9.09375 C 69.578125 9.125 70.609375 9.210938 71.71875 9.289062 C 72.832031 9.363281 73.921875 9.457031 74.148438 9.496094 C 74.679688 9.589844 74.769531 9.359375 74.511719 8.566406 C 74.40625 8.234375 74.203125 7.523438 74.0625 6.988281 C 73.828125 6.105469 72.945312 4.082031 72.671875 3.808594 C 72.613281 3.75 72.261719 3.597656 71.890625 3.472656 Z M 75.867188 9.207031 L 75.796875 8.71875 L 76.042969 9.097656 C 76.863281 10.378906 77.890625 13.414062 77.304688 12.824219 C 77.046875 12.566406 75.953125 9.8125 75.867188 9.207031 Z M 62.570312 1.472656 C 63.980469 1.183594 67.667969 1.367188 70.238281 1.851562 C 71.160156 2.027344 70.945312 2.210938 69.824219 2.210938 C 69.085938 2.210938 68.902344 2.175781 68.957031 2.039062 C 69.078125 1.71875 68.578125 1.65625 65.664062 1.621094 C 62.5 1.582031 62.960938 1.515625 59.867188 2.460938 C 59.179688 2.667969 58.59375 2.820312 58.566406 2.792969 C 58.433594 2.660156 61.175781 1.757812 62.570312 1.472656 Z M 38.675781 72.070312 C 38.554688 71.820312 38.417969 71.75 38.023438 71.730469 C 37.203125 71.691406 37.207031 71.679688 37.207031 73.390625 C 37.207031 75.148438 37.242188 75.222656 38.121094 75.316406 C 39.035156 75.414062 39.113281 75.269531 38.957031 73.710938 C 38.886719 72.984375 38.757812 72.242188 38.675781 72.070312 Z M 75.464844 30.121094 C 75.019531 29.917969 74.546875 29.75 74.421875 29.75 C 73.867188 29.75 72.914062 31.011719 72.714844 32.007812 C 72.605469 32.554688 72.949219 32.949219 73.441406 32.84375 C 73.628906 32.800781 73.992188 32.824219 74.246094 32.894531 C 74.5 32.964844 74.78125 32.992188 74.871094 32.957031 C 75.011719 32.902344 75.769531 32.003906 76.433594 31.105469 C 76.667969 30.785156 76.464844 30.574219 75.464844 30.121094 Z M 40.289062 49.363281 C 40.042969 48.5625 39.910156 48.398438 39.828125 48.796875 C 39.632812 49.753906 41.050781 53.105469 43.046875 56.40625 C 44.359375 58.578125 45.101562 59.144531 43.957031 57.101562 C 43.347656 56.015625 41.175781 51.660156 40.777344 50.722656 C 40.644531 50.410156 40.425781 49.796875 40.289062 49.363281 Z M 68.683594 29.691406 C 68.683594 28.757812 68.644531 27.957031 68.601562 27.910156 C 68.433594 27.746094 68.105469 28.671875 68.035156 29.507812 C 67.96875 30.304688 67.992188 30.421875 68.296875 30.886719 C 68.480469 31.164062 68.644531 31.394531 68.664062 31.394531 C 68.679688 31.394531 68.6875 30.628906 68.683594 29.691406 Z M 63.769531 5.371094 C 62.9375 3.421875 63.015625 3.578125 62.90625 3.6875 C 62.734375 3.859375 62.84375 4.210938 63.523438 5.6875 C 64.75 8.332031 65.367188 9.796875 66.183594 11.996094 C 66.625 13.171875 67.070312 14.226562 67.179688 14.332031 C 67.421875 14.574219 68.019531 14.578125 70.648438 14.359375 C 74.804688 14.011719 74.4375 14 76.984375 14.539062 C 78.09375 14.773438 78.597656 14.773438 78.597656 14.53125 C 78.597656 14.328125 78.519531 14.300781 76.957031 14.035156 C 74.519531 13.613281 73.546875 13.546875 70.582031 13.605469 C 67.664062 13.664062 67.59375 13.660156 67.425781 13.402344 C 67.332031 13.257812 66.890625 12.289062 66.445312 11.246094 C 66 10.203125 65.378906 8.839844 65.066406 8.214844 C 64.753906 7.589844 64.167969 6.308594 63.769531 5.371094 Z M 81.847656 17.929688 C 80.125 17.28125 79.363281 17.183594 77.652344 17.390625 C 76.617188 17.515625 76.269531 17.632812 73.550781 18.753906 C 70.449219 20.03125 70.0625 20.210938 68.816406 20.957031 C 67.214844 21.914062 66.183594 22.714844 65.644531 23.421875 C 65.070312 24.175781 65.097656 24.378906 65.804688 24.691406 C 66.585938 25.039062 66.726562 25.023438 67.378906 24.519531 C 67.894531 24.117188 69.148438 23.53125 71.59375 22.546875 C 72.148438 22.324219 73.03125 21.96875 73.550781 21.757812 C 74.070312 21.550781 75.605469 20.992188 76.957031 20.519531 C 78.3125 20.050781 79.816406 19.511719 80.300781 19.324219 C 81.117188 19.015625 81.230469 19 81.816406 19.144531 C 82.164062 19.230469 82.996094 19.550781 83.667969 19.855469 C 84.5625 20.261719 84.980469 20.390625 85.21875 20.332031 C 85.457031 20.269531 85.683594 20.339844 86.042969 20.578125 C 86.628906 20.96875 86.675781 20.976562 86.675781 20.699219 C 86.675781 20.464844 85.738281 19.519531 85.5 19.519531 C 85.417969 19.519531 84.910156 19.292969 84.371094 19.015625 C 83.835938 18.738281 82.699219 18.25 81.847656 17.929688 Z M 38.660156 60.574219 C 38.476562 60.503906 38.207031 60.449219 38.066406 60.449219 C 37.8125 60.449219 37.804688 60.492188 37.890625 61.542969 C 37.941406 62.148438 38.066406 62.804688 38.167969 63.003906 C 38.386719 63.429688 39.050781 63.746094 40.464844 64.105469 C 43.527344 64.882812 50.742188 66.027344 50.992188 65.773438 C 51.136719 65.632812 50.941406 64.316406 50.636719 63.363281 C 50.390625 62.597656 50.410156 62.257812 50.722656 61.820312 C 50.871094 61.613281 50.957031 61.410156 50.914062 61.371094 C 50.875 61.328125 50.242188 61.367188 49.511719 61.457031 C 48.75 61.554688 47.730469 61.589844 47.113281 61.546875 C 46.507812 61.503906 46.039062 61.519531 46.039062 61.585938 C 46.039062 61.777344 46.582031 62.089844 47.261719 62.289062 C 47.847656 62.460938 48.023438 62.460938 48.949219 62.285156 C 49.515625 62.179688 50.039062 62.089844 50.109375 62.089844 C 50.371094 62.089844 49.871094 62.511719 49.324219 62.753906 C 48.203125 63.238281 46.71875 62.996094 45.59375 62.140625 C 44.925781 61.632812 44.328125 61.460938 42.539062 61.265625 C 40.757812 61.070312 39.253906 60.800781 38.660156 60.574219 Z M 45.277344 29.496094 C 44.757812 29.347656 44.683594 29.351562 44.261719 29.539062 C 43.699219 29.792969 43.496094 30.035156 43.078125 30.949219 C 42.859375 31.4375 42.375 32.175781 42.011719 32.59375 C 40.882812 33.878906 40.285156 34.960938 39.8125 36.574219 C 39.257812 38.476562 39.082031 40.453125 39.347656 41.855469 C 39.417969 42.222656 39.425781 42.855469 39.371094 43.324219 C 39.289062 44.011719 39.300781 44.121094 39.445312 44 C 39.722656 43.769531 39.863281 43.429688 39.984375 42.6875 C 40.070312 42.15625 40.289062 41.703125 40.90625 40.757812 L 41.714844 39.523438 L 42.246094 36.816406 C 43.082031 32.574219 43.628906 30.636719 44.09375 30.25 C 44.425781 29.972656 44.425781 30.445312 44.101562 31.539062 C 43.925781 32.117188 43.640625 33.21875 43.46875 33.984375 C 43.171875 35.289062 43.0625 35.804688 42.5625 38.246094 C 42.453125 38.785156 42.398438 39.28125 42.441406 39.351562 C 42.488281 39.421875 42.675781 39.480469 42.867188 39.480469 C 43.53125 39.480469 44.34375 38.34375 46.140625 34.914062 C 46.746094 33.753906 47.292969 32.84375 48.078125 31.6875 C 48.277344 31.398438 48.4375 31.035156 48.4375 30.875 C 48.4375 30.601562 48.429688 30.601562 48.269531 30.820312 C 48.132812 31.007812 47.992188 31.039062 47.554688 30.980469 C 47.121094 30.921875 46.882812 30.777344 46.363281 30.265625 C 46.007812 29.910156 45.519531 29.566406 45.277344 29.496094 Z M 74.371094 17.753906 C 74.511719 17.519531 74.191406 17.59375 71.59375 18.390625 C 68.6875 19.285156 67.964844 19.539062 66.359375 20.238281 C 64.609375 20.996094 63.832031 21.453125 63.832031 21.722656 C 63.832031 21.933594 64.640625 22.628906 64.996094 22.722656 C 65.171875 22.765625 65.507812 22.554688 66.160156 21.984375 C 66.664062 21.542969 67.382812 21.03125 67.757812 20.84375 C 68.132812 20.65625 68.554688 20.367188 68.691406 20.199219 C 68.863281 19.992188 69.644531 19.640625 71.152344 19.085938 C 73.769531 18.128906 74.265625 17.921875 74.371094 17.753906 Z M 55.324219 19.636719 C 54.523438 19.332031 54.15625 19.332031 53.664062 19.632812 C 53.089844 19.980469 52.503906 20.835938 51.277344 23.121094 C 51.015625 23.605469 50.730469 24.089844 50.648438 24.191406 C 50.347656 24.574219 48.964844 27.175781 48.816406 27.644531 C 48.554688 28.476562 48.90625 29.878906 49.375 29.878906 C 49.625 29.878906 50.332031 29.164062 50.945312 28.289062 C 51.234375 27.875 51.8125 27.058594 52.230469 26.46875 C 52.648438 25.875 53.332031 24.785156 53.75 24.046875 C 54.167969 23.304688 54.675781 22.484375 54.878906 22.226562 C 55.320312 21.671875 55.328125 21.617188 54.996094 21.285156 C 54.582031 20.867188 54.269531 21.136719 53.246094 22.800781 C 52.015625 24.808594 51.230469 26.183594 50.488281 27.636719 C 50.039062 28.523438 49.625 29.277344 49.570312 29.3125 C 49.394531 29.421875 49.339844 29.03125 49.460938 28.496094 C 49.621094 27.785156 50.257812 26.535156 51.625 24.257812 C 53.007812 21.957031 53.789062 20.832031 54.132812 20.648438 C 54.421875 20.492188 55.671875 20.613281 55.566406 20.785156 C 55.53125 20.84375 55.558594 20.925781 55.628906 20.972656 C 55.953125 21.171875 55.722656 21.859375 54.8125 23.410156 C 53.847656 25.054688 53.722656 25.433594 54.050781 25.707031 C 54.269531 25.886719 54.332031 26.25 54.425781 27.785156 C 54.507812 29.109375 54.636719 29.308594 55.800781 29.898438 C 56.921875 30.46875 56.929688 30.261719 55.816406 29.421875 C 54.875 28.714844 54.503906 28.234375 54.902344 28.234375 C 55 28.234375 55.441406 28.496094 55.890625 28.816406 C 56.960938 29.582031 57.753906 29.933594 59.1875 30.265625 C 60.519531 30.574219 61.1875 30.835938 63.515625 31.964844 C 65.5625 32.953125 67.679688 33.847656 69.921875 34.667969 C 70.875 35.015625 72.296875 35.585938 73.082031 35.933594 C 73.867188 36.285156 74.679688 36.601562 74.882812 36.640625 C 75.203125 36.699219 75.636719 36.453125 78.03125 34.867188 C 79.558594 33.855469 81.160156 32.828125 81.589844 32.585938 C 83.019531 31.78125 85.101562 31.046875 90.335938 29.5 C 90.785156 29.363281 91.542969 29.140625 92.019531 29 C 92.496094 28.855469 93.042969 28.742188 93.234375 28.742188 C 93.644531 28.742188 93.972656 28.441406 93.726562 28.289062 C 93.566406 28.191406 91.800781 27.980469 90.585938 27.917969 C 90.203125 27.898438 89.734375 27.84375 89.546875 27.792969 C 89.070312 27.667969 89.085938 27.953125 89.578125 28.425781 C 89.785156 28.625 89.957031 28.835938 89.957031 28.890625 C 89.957031 29.257812 89.117188 28.636719 88.546875 27.847656 C 88.339844 27.5625 88.082031 27.351562 87.941406 27.351562 C 87.496094 27.351562 83.46875 28.355469 83.042969 28.574219 L 82.625 28.785156 L 83.207031 29.007812 C 83.5625 29.144531 83.953125 29.199219 84.21875 29.15625 C 84.625 29.089844 85.035156 29.261719 85.035156 29.5 C 85.035156 29.855469 83.253906 29.578125 82.695312 29.136719 C 82.503906 28.988281 82.273438 28.867188 82.183594 28.867188 C 82.089844 28.867188 81.488281 29.101562 80.84375 29.386719 C 80.199219 29.675781 79.300781 30.035156 78.851562 30.191406 L 78.03125 30.472656 L 78.027344 30.988281 C 78.023438 31.4375 77.921875 31.613281 77.257812 32.363281 C 76.011719 33.769531 75.042969 34.257812 74.257812 33.878906 C 74.042969 33.773438 73.527344 33.566406 73.109375 33.417969 C 72.199219 33.09375 71.910156 32.851562 71.910156 32.417969 C 71.914062 32.050781 72.761719 30.417969 73.25 29.835938 C 73.449219 29.601562 73.550781 29.34375 73.527344 29.132812 C 73.492188 28.851562 73.417969 28.796875 73 28.765625 C 72.441406 28.71875 72.125 28.949219 71.726562 29.691406 C 71.519531 30.082031 71.507812 30.164062 71.664062 30.265625 C 71.777344 30.335938 71.789062 30.378906 71.695312 30.382812 C 71.613281 30.382812 71.511719 30.328125 71.472656 30.261719 C 71.429688 30.195312 71.308594 30.175781 71.199219 30.21875 C 71.035156 30.28125 71.015625 30.238281 71.085938 29.992188 C 71.359375 29.074219 73.660156 25.980469 74.324219 25.636719 C 74.792969 25.394531 77.148438 24.871094 78.550781 24.695312 C 79.140625 24.621094 80.089844 24.390625 80.65625 24.175781 C 81.628906 23.8125 81.824219 23.785156 83.929688 23.722656 C 85.160156 23.683594 86.167969 23.617188 86.167969 23.570312 C 86.167969 23.523438 85.585938 23.203125 84.875 22.859375 L 83.582031 22.234375 L 81.816406 22.191406 C 79.367188 22.128906 77.285156 22.371094 73.574219 23.144531 C 72.753906 23.316406 72.546875 23.425781 71.660156 24.152344 C 70.679688 24.953125 70.078125 25.722656 69.554688 26.847656 C 69.246094 27.503906 69.054688 29.242188 69.25 29.605469 C 69.425781 29.933594 70.460938 30.355469 71.214844 30.40625 L 71.839844 30.445312 L 72.007812 29.941406 C 72.097656 29.664062 72.257812 29.351562 72.359375 29.25 C 72.519531 29.089844 72.539062 29.105469 72.539062 29.378906 C 72.535156 30.109375 71.136719 31.917969 70.300781 32.265625 C 69.945312 32.414062 69.820312 32.386719 68.796875 31.933594 C 67.324219 31.28125 67.265625 31.171875 67.46875 29.5625 C 67.644531 28.164062 67.714844 27.984375 68.402344 27.269531 C 68.992188 26.660156 68.980469 26.285156 68.367188 26.148438 C 67.890625 26.042969 67.691406 26.203125 67.28125 27.019531 C 66.820312 27.925781 65.585938 29.578125 65.246094 29.738281 C 64.300781 30.191406 62.058594 29.421875 62.070312 28.652344 C 62.074219 28.320312 62.453125 27.535156 63.335938 26.023438 C 64.074219 24.753906 64.105469 24.675781 63.902344 24.453125 C 63.625 24.144531 63.046875 23.910156 62.703125 23.960938 C 62.503906 23.992188 62.351562 24.203125 62.132812 24.734375 C 61.605469 26.042969 60.175781 28.019531 60.175781 27.441406 C 60.175781 27.347656 60.351562 26.992188 60.570312 26.648438 C 60.792969 26.304688 61.273438 25.523438 61.640625 24.910156 C 62.691406 23.164062 62.078125 23.625 60.855469 25.503906 C 59.890625 26.988281 59.804688 27.171875 59.871094 27.59375 C 59.9375 28.015625 59.898438 28.101562 59.496094 28.457031 C 58.636719 29.210938 57.660156 29.304688 56.882812 28.710938 C 55.472656 27.625 55.28125 26.910156 56 25.394531 C 56.882812 23.527344 58.027344 21.878906 58.027344 22.476562 C 58.027344 22.597656 57.75 23.246094 57.410156 23.917969 C 56.613281 25.496094 56.316406 26.179688 56.207031 26.6875 C 56.128906 27.039062 56.171875 27.152344 56.496094 27.476562 C 56.894531 27.875 57.195312 27.957031 57.347656 27.707031 C 57.402344 27.621094 57.277344 27.425781 57.039062 27.226562 C 56.578125 26.839844 56.554688 26.695312 56.871094 26.234375 C 57.136719 25.851562 58.535156 22.660156 58.535156 22.4375 C 58.535156 22.359375 57.945312 22.019531 57.226562 21.679688 C 55.921875 21.070312 55.523438 20.78125 55.980469 20.78125 C 56.277344 20.78125 58.269531 21.632812 58.550781 21.878906 C 58.804688 22.101562 58.96875 21.914062 58.847656 21.539062 C 58.765625 21.285156 56.652344 20.140625 55.324219 19.636719 Z M 87.054688 29.453125 C 88.53125 29.097656 88.804688 29.0625 88.625 29.238281 C 88.5 29.363281 87.320312 29.78125 85.101562 30.496094 C 82.476562 31.335938 81.160156 32.035156 76.898438 34.859375 C 75.375 35.867188 74.8125 36.125 74.8125 35.8125 C 74.8125 35.742188 75.28125 35.386719 75.851562 35.023438 C 76.425781 34.660156 77.320312 34.066406 77.839844 33.699219 C 80.371094 31.933594 82.023438 31.058594 83.898438 30.492188 C 84.347656 30.355469 84.945312 30.136719 85.222656 30.007812 C 85.5 29.878906 86.324219 29.628906 87.054688 29.453125 Z M 71.09375 33.28125 C 71.191406 33.125 71.074219 33.078125 72.5625 33.839844 C 73.226562 34.179688 73.917969 34.457031 74.097656 34.457031 C 74.378906 34.457031 74.40625 34.492188 74.300781 34.695312 C 74.113281 35.039062 73.660156 34.988281 72.628906 34.503906 C 71.652344 34.042969 70.960938 33.496094 71.09375 33.28125 Z M 87.054688 24.4375 C 86.582031 24.101562 86.421875 24.09375 83.960938 24.253906 C 81.328125 24.425781 81.078125 24.507812 78.550781 26.015625 C 76.996094 26.941406 75.066406 28.585938 75.066406 28.980469 C 75.066406 29.195312 76.515625 30.003906 76.90625 30.003906 C 77.015625 30.003906 77.511719 29.636719 78.007812 29.1875 C 80.042969 27.355469 80.59375 26.945312 81.816406 26.34375 C 83.4375 25.550781 85.121094 25.132812 87.117188 25.027344 C 87.464844 25.007812 87.433594 24.707031 87.054688 24.4375 Z M 112.609375 25.738281 C 112.167969 25.511719 110.371094 25.421875 109.453125 25.578125 C 108.65625 25.714844 106.523438 26.429688 104.898438 27.105469 C 104.210938 27.394531 103.339844 27.738281 102.960938 27.878906 C 102.585938 28.015625 101.875 28.34375 101.386719 28.609375 C 100.894531 28.875 100.351562 29.136719 100.175781 29.1875 C 99.402344 29.410156 97.253906 30.394531 94.757812 31.667969 C 93.273438 32.425781 91.652344 33.222656 91.164062 33.4375 C 90.25 33.835938 88.816406 34.5 87.242188 35.25 C 86.757812 35.480469 85.761719 35.933594 85.035156 36.253906 C 82.167969 37.519531 79.195312 39.230469 77.460938 40.617188 C 76.71875 41.207031 74.515625 43.03125 71.992188 45.136719 C 70.742188 46.183594 70.410156 46.222656 68.914062 45.519531 C 68.015625 45.097656 67.746094 44.71875 67.746094 43.875 L 67.746094 43.332031 L 67.433594 43.710938 C 67.144531 44.0625 67.125 44.070312 67.117188 43.8125 C 67.117188 43.664062 67.3125 43.328125 67.554688 43.070312 C 67.800781 42.8125 68 42.539062 68.003906 42.460938 C 68.011719 42.316406 68.636719 41.394531 70.625 38.589844 C 71.269531 37.679688 71.78125 36.839844 71.757812 36.722656 C 71.734375 36.585938 71.328125 36.355469 70.648438 36.089844 C 68.488281 35.242188 65.511719 33.875 64.496094 33.265625 C 62.875 32.292969 60.46875 31.1875 59.332031 30.898438 C 58.21875 30.613281 57.71875 30.566406 57.835938 30.753906 C 57.90625 30.871094 58.402344 31.074219 60.488281 31.832031 C 61.789062 32.304688 63.878906 33.285156 63.785156 33.378906 C 63.640625 33.523438 61.945312 32.886719 58.691406 31.46875 C 58.117188 31.21875 57.179688 30.8125 56.609375 30.5625 C 55.089844 29.902344 54.992188 29.851562 54.550781 29.433594 C 54.0625 28.976562 53.867188 28.332031 53.863281 27.203125 C 53.863281 25.453125 53.589844 25.519531 52.097656 27.625 C 51.785156 28.066406 51.171875 28.867188 50.734375 29.40625 C 50.296875 29.945312 49.96875 30.4375 50.007812 30.496094 C 50.066406 30.59375 54.179688 32.65625 54.3125 32.65625 C 54.339844 32.65625 54.847656 32.882812 55.441406 33.164062 C 56.035156 33.441406 56.546875 33.667969 56.578125 33.667969 C 56.609375 33.667969 57.191406 33.929688 57.867188 34.246094 C 59.667969 35.089844 59.203125 34.902344 63.480469 36.519531 C 64.292969 36.824219 65.285156 37.222656 65.6875 37.402344 C 66.089844 37.582031 66.714844 37.84375 67.070312 37.976562 C 67.953125 38.3125 68.109375 38.515625 67.695312 38.785156 C 67.394531 38.984375 67.347656 38.980469 66.773438 38.671875 C 65.476562 37.988281 63.613281 37.257812 63.484375 37.386719 C 63.449219 37.421875 63.183594 37.308594 62.890625 37.136719 C 62.597656 36.964844 62.25 36.824219 62.117188 36.824219 C 61.984375 36.824219 61.691406 36.710938 61.464844 36.574219 C 61.238281 36.433594 60.945312 36.320312 60.820312 36.320312 C 60.691406 36.320312 60.253906 36.152344 59.84375 35.941406 C 59.4375 35.734375 59.03125 35.566406 58.949219 35.5625 C 58.804688 35.5625 57.972656 35.191406 57.523438 34.925781 C 56.992188 34.613281 55.953125 34.171875 55.75 34.171875 C 55.625 34.171875 55.480469 34.113281 55.433594 34.035156 C 55.328125 33.863281 54.292969 33.414062 54.003906 33.414062 C 53.886719 33.414062 53.507812 33.238281 53.164062 33.019531 C 52.230469 32.425781 49.667969 31.140625 49.417969 31.140625 C 49.285156 31.140625 49.050781 31.402344 48.824219 31.804688 C 48.617188 32.167969 48.320312 32.632812 48.160156 32.835938 C 47.808594 33.28125 47.5625 33.710938 46.542969 35.644531 C 44.625 39.292969 44.132812 39.875 42.667969 40.238281 C 42.054688 40.390625 41.785156 40.699219 41.023438 42.132812 C 40.210938 43.644531 39.917969 44.75 39.929688 46.238281 C 39.941406 47.496094 39.941406 47.503906 40.664062 49.078125 C 41.0625 49.949219 41.59375 51.113281 41.847656 51.667969 C 42.269531 52.59375 43.609375 55.257812 44.988281 57.902344 C 45.289062 58.480469 45.535156 59.035156 45.535156 59.128906 C 45.535156 59.519531 46.082031 59.589844 49.496094 59.652344 C 51.378906 59.683594 53.074219 59.714844 53.261719 59.71875 C 53.464844 59.722656 54.035156 59.464844 54.652344 59.089844 C 56.164062 58.167969 56.761719 57.890625 57.097656 57.957031 C 57.261719 57.988281 57.398438 57.964844 57.398438 57.90625 C 57.398438 57.84375 57.3125 57.796875 57.207031 57.796875 C 56.917969 57.796875 57.246094 57.332031 57.660156 57.160156 C 58.085938 56.984375 58.460938 57.082031 59.921875 57.761719 C 60.96875 58.25 61.835938 58.601562 64.652344 59.679688 C 65 59.8125 65.511719 59.992188 65.789062 60.078125 C 66.066406 60.164062 66.472656 60.316406 66.6875 60.421875 C 67.332031 60.738281 67.839844 60.558594 71.972656 58.554688 C 74.324219 57.414062 77.4375 55.714844 77.816406 55.363281 C 77.988281 55.207031 78.234375 54.851562 78.367188 54.574219 C 78.5 54.296875 78.722656 53.851562 78.863281 53.582031 C 79.003906 53.3125 79.097656 53.074219 79.078125 53.054688 C 79.054688 53.03125 78.640625 53.265625 78.160156 53.574219 C 76.183594 54.847656 72.667969 56.476562 71.007812 56.890625 C 68.273438 57.570312 67.621094 57.671875 67.621094 57.421875 C 67.621094 57.292969 68.160156 57.125 69.445312 56.847656 C 71.589844 56.386719 72.328125 56.089844 76.652344 53.941406 C 78.519531 53.011719 79.242188 52.589844 79.386719 52.339844 C 79.582031 52.007812 79.582031 52 79.3125 52.105469 C 79.164062 52.164062 77.644531 52.894531 75.9375 53.730469 C 71.558594 55.867188 71.113281 56.035156 68.554688 56.472656 C 66.84375 56.769531 66.0625 56.695312 65.34375 56.171875 C 62.203125 53.894531 60.132812 52.5625 59.386719 52.339844 C 59.015625 52.230469 58.632812 52.230469 57.789062 52.339844 C 55.667969 52.625 53.574219 52.519531 50.519531 51.984375 C 49.757812 51.847656 48.5625 51.679688 47.871094 51.605469 C 47.175781 51.53125 46.453125 51.4375 46.261719 51.398438 C 45.847656 51.308594 45.816406 51.472656 46.152344 51.957031 C 46.285156 52.144531 46.691406 52.773438 47.050781 53.347656 C 47.441406 53.964844 47.859375 54.46875 48.070312 54.582031 C 48.269531 54.683594 49.15625 54.878906 50.042969 55.011719 C 50.929688 55.144531 52.226562 55.339844 52.925781 55.445312 C 54.25 55.640625 56.828125 56.398438 56.535156 56.503906 C 56.441406 56.535156 56.042969 56.496094 55.648438 56.417969 C 55.257812 56.339844 54.484375 56.222656 53.925781 56.15625 C 51.882812 55.90625 50.109375 55.652344 49.460938 55.511719 C 48.59375 55.328125 48.421875 55.472656 48.828125 56.050781 C 48.988281 56.28125 49.527344 56.980469 50.023438 57.605469 C 51.050781 58.894531 51.304688 59.3125 51.074219 59.3125 C 50.660156 59.3125 49.257812 57.808594 48.183594 56.214844 C 47.949219 55.867188 47.550781 55.328125 47.292969 55.015625 C 46.644531 54.222656 45.078125 51.519531 44.570312 50.316406 C 44.074219 49.140625 44.050781 48.753906 44.417969 48.03125 C 44.78125 47.320312 48.304688 41.054688 49.765625 38.53125 C 50.40625 37.417969 51.273438 35.824219 51.691406 34.988281 C 52.496094 33.382812 52.792969 32.980469 52.925781 33.332031 C 52.988281 33.492188 51.410156 36.914062 50.964844 37.582031 C 50.578125 38.160156 49.285156 40.519531 47.527344 43.835938 C 46.054688 46.617188 45.304688 47.9375 44.984375 48.292969 C 44.75 48.558594 44.738281 48.640625 44.875 49.28125 C 44.957031 49.667969 45.136719 50.167969 45.28125 50.402344 L 45.539062 50.820312 L 47.335938 50.910156 C 48.324219 50.960938 49.273438 51.074219 49.449219 51.160156 C 49.777344 51.324219 51.222656 51.523438 51.960938 51.503906 C 52.199219 51.5 52.511719 51.558594 52.65625 51.636719 C 53.097656 51.878906 54.957031 51.953125 57.285156 51.824219 L 59.507812 51.699219 L 60.1875 52.023438 C 60.5625 52.199219 61.324219 52.664062 61.878906 53.054688 C 62.433594 53.445312 63.625 54.257812 64.523438 54.863281 L 66.160156 55.964844 L 67.25 55.949219 C 68.507812 55.929688 70.050781 55.644531 71.40625 55.179688 C 72.847656 54.683594 80.230469 51.011719 80.742188 50.53125 C 81.585938 49.746094 90.292969 45.175781 97.84375 41.5625 C 102.765625 39.203125 107.5 36.796875 107.601562 36.605469 C 107.664062 36.484375 107.746094 35.785156 107.785156 35.058594 C 107.914062 32.660156 108.355469 31.921875 110.144531 31.097656 C 112.742188 29.898438 115.351562 29.320312 117.832031 29.390625 C 118.917969 29.421875 119.414062 29.390625 119.449219 29.292969 C 119.472656 29.214844 119.335938 28.964844 119.144531 28.734375 C 118.710938 28.21875 115.496094 26.648438 113.996094 26.21875 C 113.441406 26.058594 112.816406 25.84375 112.609375 25.738281 Z M 59.828125 36.855469 C 60.089844 36.574219 60.300781 36.488281 60.296875 36.667969 C 60.292969 36.808594 59.648438 37.964844 57.84375 41.058594 C 55.976562 44.265625 55.027344 46.148438 54.917969 46.867188 C 54.816406 47.539062 54.96875 47.378906 55.636719 46.109375 C 57.1875 43.164062 60.460938 37.695312 60.917969 37.277344 C 61.515625 36.738281 61.164062 37.597656 60.066406 39.375 C 58.484375 41.941406 57.550781 43.503906 56.042969 46.136719 L 54.722656 48.433594 L 54.617188 49.765625 C 54.503906 51.160156 54.367188 51.652344 54.171875 51.339844 C 53.996094 51.054688 54.109375 48.882812 54.375 47.585938 C 54.507812 46.914062 54.773438 45.992188 54.960938 45.542969 C 55.703125 43.761719 59.183594 37.550781 59.828125 36.855469 Z M 55.03125 34.773438 C 55.226562 34.488281 55.632812 34.285156 55.632812 34.472656 C 55.632812 34.605469 55.203125 35.523438 54.949219 35.925781 C 54.390625 36.824219 51.800781 41.878906 50.898438 43.835938 C 49.886719 46.03125 49.527344 47.328125 49.382812 49.28125 C 49.261719 50.921875 48.957031 51.285156 48.84375 49.917969 C 48.726562 48.503906 49.273438 46.195312 50.261719 43.898438 C 51.089844 41.984375 54.308594 35.824219 55.03125 34.773438 Z M 86.546875 35.992188 C 87.285156 35.679688 87.5625 35.613281 87.363281 35.796875 C 87.296875 35.855469 86.355469 36.363281 85.277344 36.925781 C 84.195312 37.484375 83.085938 38.066406 82.816406 38.21875 C 82.542969 38.371094 81.753906 38.808594 81.058594 39.195312 C 78.976562 40.351562 77.796875 41.023438 77.46875 41.234375 C 77.296875 41.347656 77.195312 41.371094 77.246094 41.292969 C 77.371094 41.085938 79.726562 39.507812 80.933594 38.820312 C 82.160156 38.121094 85.59375 36.390625 86.546875 35.992188 Z M 53.386719 34.203125 C 53.691406 33.699219 53.925781 33.660156 53.804688 34.140625 C 53.71875 34.480469 52.046875 37.894531 51.835938 38.15625 C 51.453125 38.636719 47.648438 46.03125 46.921875 47.710938 C 46.65625 48.320312 46.320312 48.988281 46.175781 49.191406 C 46.027344 49.402344 45.914062 49.757812 45.914062 50.023438 C 45.914062 50.925781 45.554688 50.210938 45.34375 48.890625 L 45.265625 48.382812 L 45.546875 48.808594 L 45.832031 49.234375 L 46.148438 48.367188 C 46.460938 47.515625 49.070312 42.207031 50.335938 39.859375 C 50.691406 39.199219 51.46875 37.746094 52.0625 36.636719 C 52.65625 35.523438 53.253906 34.429688 53.386719 34.203125 Z M 109.894531 26.089844 C 110.695312 25.953125 111.894531 25.945312 111.660156 26.074219 C 111.554688 26.132812 111.074219 26.253906 110.589844 26.34375 C 108.773438 26.675781 105.738281 28.039062 95.875 32.953125 C 91.53125 35.117188 86.847656 37.4375 85.464844 38.113281 C 82.914062 39.351562 82.101562 39.78125 79.734375 41.152344 C 76.832031 42.824219 76.027344 43.445312 73.296875 46.117188 C 72.292969 47.105469 71.34375 47.972656 71.195312 48.050781 C 70.835938 48.238281 70.167969 48.097656 70.011719 47.800781 C 69.910156 47.617188 69.972656 47.472656 70.316406 47.09375 C 70.796875 46.558594 71.910156 45.71875 71.910156 45.886719 C 71.910156 45.949219 71.625 46.316406 71.277344 46.707031 C 70.933594 47.09375 70.648438 47.472656 70.648438 47.546875 C 70.648438 47.851562 71.183594 47.429688 72.855469 45.804688 C 74.851562 43.867188 77.03125 42.167969 79.09375 40.941406 C 79.863281 40.484375 80.523438 40.109375 80.5625 40.109375 C 80.601562 40.109375 81.179688 39.792969 81.855469 39.402344 C 82.882812 38.804688 88.347656 36.066406 88.507812 36.066406 C 88.566406 36.066406 92.589844 34.058594 98.285156 31.183594 C 104.089844 28.253906 108.476562 26.328125 109.894531 26.089844 Z M 58.0625 36.097656 C 58.207031 35.941406 58.375 35.816406 58.4375 35.816406 C 58.632812 35.816406 58.40625 36.34375 57.703125 37.539062 C 55.0625 42.023438 53.535156 45.128906 53.046875 47 C 52.898438 47.574219 52.597656 50.179688 52.554688 51.238281 C 52.550781 51.367188 52.46875 51.421875 52.332031 51.382812 C 52.136719 51.335938 52.121094 51.183594 52.175781 50.046875 C 52.285156 47.664062 52.621094 46.328125 53.695312 43.964844 C 54.757812 41.636719 57.472656 36.742188 58.0625 36.097656 Z M 48.640625 32.765625 C 48.757812 32.570312 48.828125 32.648438 49.125 33.320312 C 49.539062 34.257812 49.992188 36.160156 49.902344 36.59375 C 49.863281 36.792969 49.507812 37.511719 49.117188 38.1875 C 47.328125 41.261719 46.535156 42.585938 45.367188 44.460938 C 43.914062 46.796875 43.265625 48.089844 43.265625 48.648438 C 43.265625 49.058594 43.878906 50.707031 44.464844 51.859375 C 44.644531 52.21875 45.253906 53.257812 45.816406 54.171875 C 46.375 55.089844 47.078125 56.257812 47.378906 56.769531 C 47.675781 57.28125 48.035156 57.824219 48.179688 57.976562 C 48.433594 58.25 48.542969 58.933594 48.328125 58.933594 C 48.15625 58.933594 47.550781 58.28125 47.335938 57.863281 C 47.226562 57.652344 46.542969 56.511719 45.8125 55.332031 C 44.621094 53.398438 43.894531 52.015625 42.996094 49.972656 C 42.804688 49.535156 42.695312 49.050781 42.695312 48.625 C 42.695312 47.804688 43.246094 46.6875 45.148438 43.652344 C 47.550781 39.824219 49.320312 36.6875 49.320312 36.265625 C 49.320312 36.050781 49.203125 35.476562 49.0625 34.992188 C 48.742188 33.90625 48.550781 32.90625 48.640625 32.765625 Z M 64.375 39.382812 C 64.855469 38.746094 65.222656 38.53125 65.222656 38.894531 C 65.222656 38.988281 64.671875 39.855469 64 40.820312 C 60.71875 45.527344 58.828125 48.828125 59.414062 48.828125 C 59.480469 48.828125 59.769531 48.472656 60.058594 48.035156 C 60.347656 47.601562 60.941406 46.878906 61.378906 46.425781 C 61.816406 45.976562 62.648438 44.976562 63.226562 44.210938 C 66.253906 40.179688 66.988281 39.320312 66.988281 39.785156 C 66.988281 39.910156 66.601562 40.503906 66.125 41.101562 C 65.652344 41.703125 64.5625 43.132812 63.703125 44.277344 C 62.84375 45.425781 61.734375 46.824219 61.234375 47.390625 C 60.730469 47.957031 60.234375 48.589844 60.125 48.796875 C 60.015625 49.011719 59.761719 49.238281 59.546875 49.3125 C 59.257812 49.414062 59.09375 49.609375 58.855469 50.144531 C 58.570312 50.796875 58.28125 51.066406 58.28125 50.683594 C 58.28125 50.367188 58.660156 49.070312 58.832031 48.792969 C 58.929688 48.636719 59.101562 48.222656 59.214844 47.875 C 59.328125 47.523438 59.75 46.640625 60.15625 45.914062 C 60.910156 44.554688 63.496094 40.558594 64.375 39.382812 Z M 62.597656 38.058594 C 62.804688 37.796875 63.054688 37.582031 63.152344 37.582031 C 63.425781 37.582031 63.035156 38.28125 61.058594 41.308594 C 60.105469 42.769531 58.890625 44.726562 58.351562 45.65625 C 57.433594 47.253906 56.640625 49.199219 56.640625 49.847656 C 56.640625 50.269531 56.246094 51.605469 56.121094 51.605469 C 55.582031 51.605469 56.238281 48.652344 57.222656 46.640625 C 58.050781 44.949219 61.464844 39.496094 62.597656 38.058594 Z M 66.988281 45.132812 C 66.988281 44.753906 67.035156 44.546875 67.113281 44.59375 C 67.183594 44.636719 67.242188 44.753906 67.242188 44.851562 C 67.242188 45.191406 68.003906 45.894531 68.878906 46.355469 C 69.367188 46.609375 69.765625 46.902344 69.765625 47.003906 C 69.765625 47.253906 69.292969 47.136719 68.3125 46.652344 C 67.183594 46.09375 66.988281 45.867188 66.988281 45.132812 Z M 56.867188 35.71875 C 57.167969 35.316406 57.398438 35.191406 57.398438 35.429688 C 57.398438 35.636719 57.117188 36.21875 56.449219 37.394531 C 54.195312 41.351562 52.164062 45.335938 51.683594 46.75 C 51.496094 47.308594 51.203125 48.371094 51.035156 49.113281 C 50.683594 50.671875 50.585938 50.886719 50.4375 50.476562 C 50.136719 49.671875 51.082031 46.496094 52.417969 43.808594 C 53.875 40.882812 56.289062 36.488281 56.867188 35.71875 Z M 50.226562 52.820312 C 49.960938 52.550781 50.019531 52.554688 51.910156 52.867188 C 53.71875 53.164062 55.773438 53.191406 57.335938 52.933594 C 59.46875 52.582031 59.421875 52.566406 62.320312 54.566406 C 63.1875 55.164062 64.332031 55.9375 64.863281 56.289062 C 65.40625 56.652344 65.863281 57.050781 65.90625 57.203125 C 66.132812 57.980469 66.480469 59.394531 66.480469 59.539062 C 66.484375 59.628906 66.386719 59.683594 66.265625 59.664062 C 66.117188 59.636719 65.984375 59.378906 65.839844 58.804688 C 65.367188 56.984375 65.449219 57.078125 62.710938 55.214844 C 61.347656 54.285156 59.988281 53.398438 59.691406 53.246094 L 59.152344 52.964844 L 58.054688 53.261719 C 57.09375 53.527344 56.695312 53.5625 54.875 53.554688 C 52.632812 53.542969 50.636719 53.226562 50.226562 52.820312 Z M 58.597656 53.75 C 58.71875 53.554688 59.066406 53.605469 59.609375 53.894531 C 60.328125 54.277344 63.710938 56.628906 64.085938 57.003906 L 64.402344 57.320312 L 63.976562 57.242188 C 63.738281 57.199219 63.285156 56.96875 62.964844 56.730469 C 61.894531 55.933594 59.613281 54.421875 59.066406 54.144531 C 58.769531 53.992188 58.558594 53.816406 58.597656 53.75 Z M 89.039062 25.632812 C 88.9375 25.53125 87.503906 25.464844 86.925781 25.535156 C 86.15625 25.628906 84.113281 26.097656 83.335938 26.359375 C 82.292969 26.710938 80.570312 27.558594 80.300781 27.859375 C 79.972656 28.21875 80.1875 28.1875 81.925781 27.601562 C 83.640625 27.023438 86.625 26.273438 87.96875 26.082031 C 88.839844 25.960938 89.210938 25.804688 89.039062 25.632812 Z M 107.46875 47.214844 C 107.546875 46.953125 107.347656 47.03125 106.488281 47.597656 C 105.5625 48.199219 103.382812 49.585938 102.476562 50.140625 C 102.148438 50.34375 100.863281 51.097656 99.617188 51.824219 C 96.894531 53.40625 96.582031 53.617188 96.746094 53.78125 C 96.9375 53.96875 97.964844 53.449219 100.746094 51.753906 C 102.953125 50.414062 107.414062 47.398438 107.46875 47.214844 Z M 41.113281 54.132812 C 40.816406 53.542969 40.394531 52.523438 40.171875 51.867188 C 39.953125 51.214844 39.742188 50.730469 39.703125 50.792969 C 39.601562 50.96875 39.445312 57.996094 39.535156 58.285156 C 39.671875 58.710938 40.816406 59.007812 43.863281 59.402344 C 44.566406 59.492188 44.554688 59.347656 43.789062 58.449219 C 43.101562 57.648438 41.929688 55.753906 41.113281 54.132812 Z M 120.394531 30.417969 C 119.898438 30.125 119.699219 30.09375 118.183594 30.058594 C 117.269531 30.035156 116.234375 30.066406 115.886719 30.121094 C 114.96875 30.273438 111.046875 32.0625 110.628906 32.519531 C 110.226562 32.960938 110.171875 33.363281 110.109375 36.300781 C 110.070312 37.996094 110.09375 38.378906 110.242188 38.433594 C 110.339844 38.472656 110.941406 38.355469 111.578125 38.171875 C 113.003906 37.761719 113.492188 37.707031 113.492188 37.957031 C 113.492188 38.152344 112.957031 38.390625 111.472656 38.851562 C 110.304688 39.214844 110.078125 39.371094 109.71875 40.082031 C 109.550781 40.410156 109.222656 40.855469 108.992188 41.074219 C 108.285156 41.738281 104.6875 44.03125 100.910156 46.222656 C 94.898438 49.714844 90.890625 52.289062 85.792969 55.929688 C 82.3125 58.410156 78.847656 60.761719 77.726562 61.398438 C 76.992188 61.816406 75.980469 62.421875 75.480469 62.75 C 74.484375 63.398438 72 64.835938 69.449219 66.246094 C 68.546875 66.742188 67.667969 67.234375 67.492188 67.339844 C 66.164062 68.15625 62.503906 69.804688 58.847656 71.242188 C 54.921875 72.785156 54.5625 72.921875 53.800781 73.179688 C 49.542969 74.613281 41.019531 76.527344 38.082031 76.710938 L 36.511719 76.808594 L 36.476562 77.453125 C 36.441406 78.003906 36.488281 78.160156 36.785156 78.515625 L 37.132812 78.925781 L 38.714844 78.847656 C 42.082031 78.683594 46.203125 77.765625 50.960938 76.128906 C 51.550781 75.925781 52.375 75.667969 52.792969 75.5625 C 55.023438 74.980469 55.78125 74.757812 58.078125 74.015625 C 59.457031 73.566406 60.960938 73.058594 61.421875 72.882812 C 63.578125 72.050781 68.722656 69.808594 70.082031 69.101562 C 70.914062 68.667969 72.332031 67.929688 73.234375 67.460938 C 78.65625 64.640625 81.90625 62.832031 85.601562 60.582031 C 88.054688 59.089844 89.894531 57.886719 90.082031 57.65625 C 90.996094 56.515625 91.75 55.914062 93.679688 54.78125 C 94.789062 54.128906 96.152344 53.300781 96.707031 52.9375 C 97.261719 52.570312 98.683594 51.71875 99.863281 51.039062 C 102.949219 49.261719 106.171875 47.25 108.976562 45.355469 C 109.863281 44.761719 111.613281 43.128906 112.703125 41.886719 C 113.515625 40.953125 114.34375 39.410156 114.625 38.285156 C 114.855469 37.375 114.871094 35.433594 114.671875 33.328125 C 114.496094 31.519531 114.578125 31.289062 115.542969 30.859375 C 116.019531 30.648438 116.40625 30.601562 117.769531 30.59375 C 119.335938 30.582031 119.457031 30.597656 120.082031 30.925781 C 120.738281 31.265625 121.230469 31.851562 121.4375 32.53125 C 121.511719 32.773438 121.445312 32.726562 121.160156 32.339844 C 120.957031 32.0625 120.480469 31.664062 120.105469 31.457031 C 119.457031 31.097656 119.347656 31.078125 117.96875 31.078125 C 116.40625 31.078125 115.398438 31.328125 115.261719 31.753906 C 115.226562 31.871094 115.246094 32.878906 115.304688 33.988281 C 115.363281 35.097656 115.386719 36.503906 115.351562 37.109375 C 115.28125 38.347656 115.289062 38.355469 116.203125 38.085938 C 116.445312 38.011719 117.753906 37.703125 119.105469 37.398438 C 120.460938 37.089844 121.921875 36.746094 122.355469 36.636719 C 122.789062 36.523438 123.203125 36.46875 123.277344 36.515625 C 123.449219 36.621094 122.714844 37.332031 122.433594 37.332031 C 122.210938 37.332031 119.183594 38.027344 117.085938 38.5625 C 116.359375 38.746094 115.636719 38.882812 115.484375 38.867188 C 115.179688 38.828125 114.816406 39.371094 114.816406 39.867188 C 114.816406 40.125 114.855469 40.132812 115.542969 40.058594 C 115.941406 40.011719 117.34375 39.804688 118.664062 39.597656 C 119.984375 39.386719 121.59375 39.132812 122.246094 39.03125 L 123.433594 38.84375 L 123.972656 39.160156 C 124.269531 39.335938 124.660156 39.664062 124.835938 39.890625 C 125.148438 40.285156 125.160156 40.289062 125.160156 39.996094 C 125.164062 39.832031 124.839844 39.09375 124.449219 38.355469 C 124.054688 37.617188 123.660156 36.875 123.566406 36.699219 C 123.472656 36.527344 123.398438 36.261719 123.398438 36.117188 C 123.394531 35.382812 122.109375 32.367188 121.34375 31.300781 C 121.121094 30.992188 120.691406 30.59375 120.394531 30.417969 Z M 90.65625 26.523438 C 90.179688 26.046875 90.070312 26.0625 85.539062 27.179688 C 80.402344 28.445312 79.046875 28.914062 78.394531 29.644531 C 78.15625 29.910156 78.160156 29.910156 78.472656 29.820312 C 78.644531 29.769531 79.320312 29.503906 79.972656 29.230469 C 81.722656 28.492188 83.53125 27.917969 85.097656 27.609375 C 85.859375 27.460938 86.65625 27.28125 86.863281 27.210938 C 87.738281 26.914062 88.503906 26.867188 89.570312 27.050781 C 91.011719 27.300781 91.292969 27.164062 90.65625 26.523438 Z M 75.949219 27.089844 C 75.949219 26.9375 75.859375 26.945312 75.253906 27.164062 C 74.976562 27.265625 74.664062 27.347656 74.558594 27.351562 C 74.117188 27.355469 73.441406 27.625 73.367188 27.828125 C 73.261719 28.101562 73.710938 28.488281 74.132812 28.488281 C 74.296875 28.488281 74.535156 28.390625 74.65625 28.265625 C 74.78125 28.144531 75.121094 27.855469 75.414062 27.625 C 75.707031 27.394531 75.949219 27.152344 75.949219 27.089844 Z M 76.578125 14.953125 C 74.585938 14.519531 72.390625 14.566406 69.953125 15.101562 C 68.492188 15.421875 64.097656 17.417969 62.257812 18.601562 C 60.558594 19.6875 60.140625 20.230469 59.019531 22.777344 C 57.316406 26.636719 57.328125 26.609375 57.585938 26.796875 C 57.863281 27 58.800781 27.152344 59.128906 27.046875 C 59.261719 27.003906 59.472656 26.757812 59.59375 26.496094 C 60.457031 24.644531 63.335938 21.140625 64.566406 20.4375 C 65.75 19.765625 69.308594 18.441406 71.214844 17.96875 C 71.355469 17.933594 72.066406 17.730469 72.792969 17.519531 C 74.257812 17.09375 76.253906 16.796875 78.472656 16.675781 C 79.804688 16.605469 80 16.625 80.832031 16.914062 C 81.332031 17.085938 82.035156 17.371094 82.390625 17.550781 C 83.210938 17.964844 83.265625 17.960938 83.265625 17.484375 C 83.265625 16.84375 82.503906 16.175781 81.5625 15.992188 C 80.511719 15.789062 78.011719 15.269531 76.578125 14.953125 Z M 107.75 37.511719 C 107.75 37.410156 107.707031 37.339844 107.652344 37.351562 C 107.601562 37.363281 106.136719 38.085938 104.398438 38.960938 C 102.65625 39.835938 100.246094 41.03125 99.035156 41.613281 C 94.542969 43.777344 90.164062 45.988281 85.917969 48.230469 C 80.558594 51.0625 80.578125 51.042969 78.71875 55.0625 C 78.53125 55.46875 78.242188 55.816406 77.878906 56.074219 C 77.152344 56.589844 73.316406 58.597656 70.964844 59.691406 C 70.339844 59.984375 69.425781 60.414062 68.9375 60.644531 C 68.449219 60.878906 67.769531 61.128906 67.425781 61.207031 C 67.082031 61.285156 66.71875 61.421875 66.613281 61.511719 C 66.382812 61.710938 65.367188 62.042969 64.644531 62.152344 C 63.96875 62.257812 61.964844 61.90625 60.980469 61.511719 C 60.554688 61.339844 59.644531 60.890625 58.960938 60.511719 C 58.273438 60.128906 57.648438 59.820312 57.570312 59.816406 C 57.394531 59.816406 54.824219 61.140625 54.351562 61.476562 C 54.164062 61.605469 53.964844 61.714844 53.90625 61.71875 C 53.847656 61.726562 53.546875 61.914062 53.234375 62.140625 C 52.71875 62.511719 52.660156 62.605469 52.628906 63.136719 C 52.605469 63.457031 52.65625 63.964844 52.738281 64.261719 C 52.863281 64.71875 52.902344 64.765625 52.988281 64.554688 C 53.042969 64.414062 53.09375 64.042969 53.097656 63.726562 C 53.105469 63.265625 53.175781 63.082031 53.453125 62.828125 C 53.808594 62.5 54.789062 61.820312 55.125 61.667969 C 55.230469 61.621094 55.597656 61.417969 55.945312 61.214844 C 56.921875 60.640625 57.242188 60.691406 59.300781 61.734375 L 61.089844 62.640625 L 62.746094 62.695312 C 64.007812 62.738281 64.589844 62.703125 65.199219 62.546875 C 66.167969 62.300781 69.015625 61.066406 72.164062 59.535156 C 74.695312 58.300781 76.179688 57.597656 77.109375 57.191406 C 78.410156 56.621094 78.792969 56.246094 79.421875 54.917969 C 80.269531 53.136719 81.289062 51.570312 81.847656 51.195312 C 82.46875 50.785156 83.621094 50.109375 84.71875 49.519531 C 85.203125 49.257812 86.253906 48.6875 87.054688 48.257812 C 87.851562 47.824219 88.957031 47.230469 89.515625 46.933594 C 90.070312 46.636719 90.921875 46.179688 91.40625 45.921875 C 93.011719 45.058594 95.929688 43.585938 97.210938 42.988281 C 97.90625 42.664062 99.097656 42.109375 99.863281 41.753906 C 100.625 41.398438 102.601562 40.425781 104.257812 39.597656 C 105.910156 38.769531 107.335938 38.089844 107.429688 38.089844 C 107.601562 38.089844 107.75 37.820312 107.75 37.511719 Z M 112.039062 31.074219 C 112.039062 30.824219 109.847656 31.777344 109.355469 32.242188 C 108.6875 32.878906 108.523438 33.378906 108.40625 35.140625 C 108.347656 36.03125 108.335938 37.246094 108.382812 37.835938 C 108.511719 39.457031 108.402344 40.511719 108.078125 40.742188 C 107.738281 40.984375 103.285156 43.71875 102.699219 44.039062 C 102.457031 44.175781 102.089844 44.390625 101.878906 44.515625 C 101.671875 44.644531 99.742188 45.757812 97.589844 46.996094 C 93.367188 49.417969 92.535156 49.921875 88.945312 52.257812 C 88.148438 52.777344 87.070312 53.476562 86.546875 53.808594 C 86.027344 54.140625 85.402344 54.542969 85.160156 54.699219 C 84.917969 54.859375 84.292969 55.253906 83.773438 55.585938 C 83.25 55.914062 82.625 56.3125 82.382812 56.464844 C 81.246094 57.195312 80.488281 57.621094 77.96875 58.957031 C 77.722656 59.085938 77.183594 59.414062 76.769531 59.6875 C 73.8125 61.621094 69.40625 63.613281 67.644531 63.8125 C 67.25 63.859375 66.953125 63.863281 66.988281 63.824219 C 67.023438 63.785156 67.984375 63.375 69.117188 62.917969 C 71.707031 61.871094 73.109375 61.191406 74.875 60.117188 C 75.640625 59.652344 76.859375 58.933594 77.589844 58.515625 C 80.949219 56.597656 82.078125 55.910156 85.296875 53.835938 C 85.964844 53.410156 86.816406 52.863281 87.191406 52.625 C 87.566406 52.386719 88.1875 51.996094 88.566406 51.753906 C 88.949219 51.511719 89.460938 51.1875 89.703125 51.03125 C 91.058594 50.15625 93.917969 48.453125 96.582031 46.933594 C 100.660156 44.605469 101.703125 43.996094 103.773438 42.726562 C 104.746094 42.128906 105.972656 41.382812 106.503906 41.0625 C 107.035156 40.746094 107.523438 40.414062 107.59375 40.328125 C 107.726562 40.160156 107.875 38.753906 107.785156 38.5 C 107.699219 38.261719 107.59375 38.296875 106.59375 38.886719 C 105.285156 39.660156 102.382812 41.113281 98.785156 42.796875 C 93.160156 45.433594 82.179688 51.375 81.609375 52.09375 C 81.464844 52.277344 80.957031 53.082031 80.480469 53.878906 C 79.152344 56.109375 78.808594 56.503906 77.585938 57.199219 C 75.824219 58.199219 70.21875 60.988281 68.152344 61.890625 C 65.964844 62.847656 64.871094 63.164062 63.328125 63.285156 C 61.664062 63.417969 60.617188 63.160156 58.703125 62.148438 C 57.757812 61.644531 57.027344 61.335938 56.886719 61.371094 C 56.53125 61.464844 53.863281 62.992188 53.863281 63.101562 C 53.863281 63.355469 54.46875 63.574219 60.363281 65.457031 C 61.9375 65.960938 62.183594 66.070312 61.816406 66.109375 C 61.023438 66.191406 58.644531 65.589844 55.28125 64.460938 C 54.261719 64.117188 53.691406 63.984375 53.609375 64.066406 C 53.390625 64.28125 54.101562 67.777344 54.746094 69.675781 C 55.28125 71.257812 54.996094 71.652344 54.273438 70.332031 C 53.507812 68.933594 51.90625 63.335938 52.054688 62.582031 C 52.125 62.230469 52.511719 61.910156 53.550781 61.347656 C 53.828125 61.195312 54.253906 60.953125 54.496094 60.804688 C 54.738281 60.660156 55.167969 60.410156 55.453125 60.246094 C 57.3125 59.199219 57.578125 59.136719 58.21875 59.570312 C 58.726562 59.917969 61.417969 61.277344 61.816406 61.386719 L 62.128906 61.472656 L 61.785156 61.179688 C 61.597656 61.019531 61.171875 60.75 60.839844 60.578125 C 60.507812 60.40625 59.726562 59.972656 59.101562 59.617188 C 57.445312 58.667969 57.136719 58.578125 56.546875 58.859375 C 55.6875 59.269531 51.789062 61.636719 51.5 61.921875 C 51.320312 62.101562 51.214844 62.359375 51.210938 62.621094 C 51.210938 63.238281 51.863281 66.121094 52.503906 68.304688 C 52.636719 68.773438 52.714844 69.269531 52.667969 69.410156 C 52.582031 69.679688 51.707031 70.007812 50.269531 70.300781 C 49.851562 70.386719 49.355469 70.546875 49.164062 70.65625 C 48.734375 70.910156 48.710938 70.886719 47.953125 69.527344 L 47.363281 68.46875 L 43.390625 68.46875 C 39.25 68.46875 38.835938 68.425781 37.3125 67.839844 C 36.675781 67.59375 36.585938 67.738281 36.503906 69.179688 C 36.421875 70.582031 36.488281 70.742188 37.066406 70.539062 C 37.609375 70.351562 38.367188 70.464844 38.847656 70.808594 C 39.148438 71.023438 39.332031 71.066406 39.644531 70.996094 C 39.863281 70.949219 40.839844 70.882812 41.8125 70.847656 C 44.171875 70.773438 44.070312 70.691406 44.125 72.761719 C 44.160156 73.996094 44.210938 74.375 44.347656 74.429688 C 44.941406 74.65625 51.570312 72.789062 56.894531 70.898438 C 58.128906 70.457031 63.382812 68.183594 64.96875 67.398438 C 65.558594 67.109375 66.441406 66.714844 66.925781 66.523438 C 67.410156 66.332031 68.179688 65.941406 68.628906 65.65625 C 71.304688 63.960938 76.355469 61.15625 77.335938 60.824219 C 77.652344 60.71875 78.417969 60.285156 79.042969 59.859375 C 80.550781 58.835938 83.007812 57.144531 84.300781 56.242188 C 84.878906 55.839844 86.03125 55.03125 86.863281 54.449219 C 88.960938 52.980469 91.703125 51.136719 92.992188 50.328125 C 93.585938 49.953125 94.183594 49.574219 94.316406 49.484375 C 94.453125 49.398438 94.722656 49.226562 94.921875 49.105469 C 95.121094 48.988281 95.476562 48.765625 95.707031 48.613281 C 95.941406 48.460938 96.914062 47.898438 97.871094 47.363281 C 100.023438 46.164062 102.019531 44.996094 104.71875 43.359375 C 105.867188 42.664062 107.113281 41.910156 107.496094 41.679688 C 108.433594 41.125 108.8125 40.691406 109.144531 39.792969 C 109.394531 39.121094 109.4375 38.710938 109.507812 36.132812 C 109.605469 32.402344 109.625 32.355469 111.375 31.472656 C 111.742188 31.289062 112.039062 31.109375 112.039062 31.074219 Z M 39.570312 59.242188 C 38.976562 59.011719 38.582031 59.011719 38.28125 59.230469 C 37.59375 59.734375 38.773438 60.128906 42.570312 60.660156 C 43.875 60.84375 44.960938 60.886719 47.875 60.878906 C 51.609375 60.863281 52.265625 60.792969 52.621094 60.363281 C 52.773438 60.179688 52.558594 60.171875 50.328125 60.25 C 48.347656 60.320312 47.304688 60.289062 44.96875 60.082031 C 42.050781 59.828125 40.449219 59.578125 39.570312 59.242188 Z M 69.066406 71.191406 C 69.296875 70.9375 69.292969 70.933594 68.871094 70.941406 C 68.40625 70.953125 67.238281 71.332031 65.726562 71.964844 C 65.207031 72.179688 63.730469 72.722656 62.449219 73.167969 C 61.167969 73.613281 60.089844 74.007812 60.050781 74.050781 C 59.902344 74.210938 61.34375 73.921875 63.078125 73.441406 C 66.769531 72.414062 68.570312 71.738281 69.066406 71.191406 Z M 71.511719 23.46875 C 72.144531 22.914062 71.828125 22.957031 70.394531 23.628906 C 69.734375 23.933594 69.054688 24.246094 68.882812 24.316406 C 68.707031 24.390625 68.378906 24.585938 68.148438 24.753906 C 67.921875 24.921875 67.664062 25.085938 67.582031 25.117188 C 67.476562 25.15625 67.46875 25.214844 67.558594 25.3125 C 67.738281 25.503906 69.136719 25.972656 69.273438 25.890625 C 69.546875 25.722656 69.339844 25.425781 68.785156 25.191406 C 68.28125 24.972656 68.222656 24.914062 68.40625 24.808594 C 68.550781 24.730469 68.785156 24.730469 69.078125 24.8125 C 69.328125 24.878906 69.625 24.902344 69.742188 24.859375 C 69.953125 24.78125 70.632812 24.246094 71.511719 23.46875 Z M 43.285156 71.519531 C 43.054688 71.3125 42.875 71.300781 41.210938 71.40625 C 40.179688 71.46875 40.09375 71.636719 40.253906 73.269531 C 40.324219 73.964844 40.453125 74.609375 40.539062 74.699219 C 40.671875 74.832031 40.917969 74.835938 41.824219 74.71875 C 43.488281 74.503906 43.515625 74.472656 43.515625 72.972656 C 43.515625 71.929688 43.480469 71.695312 43.285156 71.519531 Z M 82.636719 20.074219 C 81.867188 19.785156 80.761719 19.726562 80.363281 19.945312 C 79.996094 20.152344 78.449219 20.683594 75.695312 21.542969 C 73.402344 22.261719 72.917969 22.441406 72.917969 22.585938 C 72.917969 22.695312 73.285156 22.644531 74.75 22.34375 C 77.667969 21.742188 78.335938 21.664062 80.828125 21.613281 C 82.230469 21.585938 83.4375 21.527344 83.511719 21.480469 C 83.71875 21.355469 83.671875 20.839844 83.425781 20.550781 C 83.304688 20.40625 82.949219 20.191406 82.636719 20.074219 Z M 65.527344 25.144531 C 64.730469 24.8125 64.808594 24.753906 63.914062 26.316406 C 63.660156 26.753906 63.453125 27.222656 63.453125 27.355469 C 63.453125 27.65625 63.785156 27.835938 64.519531 27.9375 C 65.058594 28.011719 65.09375 27.996094 65.226562 27.652344 C 65.304688 27.453125 65.539062 26.933594 65.75 26.5 C 65.960938 26.066406 66.101562 25.625 66.0625 25.523438 C 66.023438 25.421875 65.78125 25.25 65.527344 25.144531 Z M 85.953125 21.140625 C 85.046875 20.730469 84.359375 20.660156 84.425781 20.992188 C 84.449219 21.125 84.78125 21.308594 85.320312 21.488281 C 86.152344 21.769531 87.003906 22.261719 86.878906 22.390625 C 86.84375 22.425781 86.320312 22.273438 85.714844 22.054688 C 85.019531 21.804688 84.570312 21.699219 84.496094 21.777344 C 84.300781 21.96875 84.488281 22.136719 85.128906 22.351562 C 85.460938 22.460938 85.984375 22.722656 86.296875 22.929688 C 86.960938 23.375 87.125 23.394531 87.300781 23.066406 C 87.652344 22.40625 87.144531 21.679688 85.953125 21.140625 Z M 119.957031 51.867188 C 120.199219 51.46875 119.96875 51.53125 118.539062 52.261719 C 116.238281 53.429688 113.835938 54.265625 108.441406 55.769531 C 105.332031 56.632812 104.59375 56.878906 104.59375 57.046875 C 104.59375 57.113281 104.652344 57.164062 104.722656 57.164062 C 105.074219 57.164062 110.640625 55.992188 111.820312 55.667969 C 113.082031 55.324219 113.402344 55.308594 113.015625 55.617188 C 112.230469 56.238281 106.023438 57.664062 104.058594 57.671875 C 103.292969 57.675781 101.09375 57.976562 100.394531 58.179688 C 99.484375 58.4375 100.007812 58.582031 101.640625 58.519531 C 102.496094 58.488281 103.222656 58.488281 103.257812 58.523438 C 103.292969 58.554688 103.144531 58.804688 102.925781 59.074219 C 102.589844 59.492188 102.460938 59.5625 102.042969 59.5625 C 101.773438 59.5625 101.316406 59.683594 101.027344 59.832031 C 100.738281 59.980469 100.183594 60.148438 99.800781 60.199219 C 99.417969 60.25 98.535156 60.4375 97.84375 60.613281 C 97.148438 60.785156 96.125 61.027344 95.570312 61.148438 C 95.015625 61.269531 94.390625 61.410156 94.183594 61.464844 C 93.808594 61.5625 93.8125 61.5625 94.289062 61.574219 C 95.152344 61.59375 102.683594 60.59375 103.765625 60.3125 C 104.046875 60.238281 105.007812 59.929688 105.898438 59.621094 C 106.792969 59.3125 107.605469 59.058594 107.707031 59.058594 C 108.335938 59.058594 106.824219 59.863281 104.863281 60.570312 C 103.292969 61.136719 102.625 61.289062 101.25 61.398438 C 99.992188 61.5 93.96875 62.445312 90.777344 63.042969 C 89.457031 63.292969 87.070312 63.742188 85.476562 64.042969 C 83.878906 64.34375 82.359375 64.625 82.101562 64.671875 C 81.25 64.820312 81.601562 64.949219 82.570312 64.847656 C 83.53125 64.742188 89.566406 63.746094 96.265625 62.582031 C 98.796875 62.140625 100.550781 61.902344 101.753906 61.839844 C 102.726562 61.792969 103.613281 61.710938 103.730469 61.660156 C 103.84375 61.609375 103.976562 61.628906 104.023438 61.707031 C 104.171875 61.949219 103.199219 62.238281 101.824219 62.359375 C 100.394531 62.484375 100.277344 62.503906 97.210938 63.09375 C 96.101562 63.304688 93.574219 63.789062 91.597656 64.171875 C 89.617188 64.550781 87.714844 64.894531 87.367188 64.9375 C 85.988281 65.113281 80.914062 65.996094 80.617188 66.117188 L 80.300781 66.242188 L 80.628906 66.25 C 80.808594 66.253906 82.230469 66.058594 83.785156 65.808594 C 85.339844 65.5625 87.132812 65.308594 87.773438 65.246094 C 88.414062 65.183594 89.066406 65.097656 89.222656 65.058594 C 89.382812 65.019531 90.195312 64.925781 91.027344 64.855469 C 91.859375 64.785156 92.839844 64.695312 93.203125 64.660156 C 93.570312 64.625 93.867188 64.644531 93.867188 64.703125 C 93.867188 65.097656 91.847656 66.296875 90.617188 66.632812 C 90.355469 66.703125 89.945312 66.886719 89.703125 67.042969 C 89.296875 67.300781 89.285156 67.328125 89.542969 67.367188 C 90 67.441406 92.832031 66.773438 94.035156 66.308594 C 95.058594 65.917969 95.691406 65.535156 98.027344 63.898438 C 98.824219 63.339844 99.203125 63.332031 98.707031 63.882812 C 98.414062 64.210938 96.554688 65.539062 95.992188 65.824219 C 95.761719 65.941406 95.421875 66.175781 95.238281 66.347656 C 94.886719 66.675781 92.542969 67.59375 91.710938 67.726562 C 91.4375 67.773438 91.179688 67.859375 91.140625 67.921875 C 91.101562 67.984375 91.308594 67.996094 91.617188 67.949219 C 92.347656 67.839844 92.136719 68.035156 91.242188 68.296875 C 90.847656 68.414062 90.296875 68.597656 90.019531 68.707031 L 89.515625 68.902344 L 90.183594 68.90625 C 90.550781 68.910156 91.246094 68.851562 91.726562 68.777344 C 92.207031 68.703125 92.726562 68.664062 92.886719 68.691406 C 93.121094 68.730469 93.046875 68.800781 92.46875 69.078125 C 91.695312 69.449219 90.785156 69.683594 88.945312 69.980469 C 88.285156 70.085938 86.953125 70.316406 85.980469 70.492188 C 83.835938 70.878906 82.449219 71.09375 79.375 71.507812 C 76.734375 71.863281 73.683594 72.378906 73.109375 72.570312 C 72.753906 72.6875 72.761719 72.691406 73.234375 72.636719 C 78.554688 71.992188 80.113281 71.847656 82.761719 71.738281 C 85.15625 71.636719 85.46875 71.640625 86.578125 71.804688 C 86.902344 71.851562 86.261719 72.652344 85.808594 72.765625 C 85.628906 72.8125 85.449219 72.890625 85.414062 72.945312 C 85.261719 73.167969 83.734375 73.835938 82.9375 74.023438 C 82.457031 74.136719 81.640625 74.335938 81.121094 74.460938 C 80.601562 74.589844 79.578125 74.792969 78.851562 74.914062 C 78.121094 75.035156 77.058594 75.238281 76.492188 75.367188 C 75.921875 75.496094 74.386719 75.6875 73.082031 75.796875 C 71.777344 75.90625 70.539062 76.042969 70.332031 76.105469 L 69.953125 76.214844 L 70.332031 76.226562 C 71.121094 76.253906 74.1875 75.976562 75.820312 75.734375 C 76.757812 75.59375 78.40625 75.363281 79.480469 75.222656 C 82.941406 74.765625 86.554688 73.863281 89.457031 72.71875 C 91.269531 72.007812 91.742188 71.636719 92.277344 70.511719 C 92.804688 69.402344 93.003906 69.210938 94.433594 68.460938 C 95.058594 68.128906 96.328125 67.359375 97.253906 66.746094 C 98.179688 66.128906 99.457031 65.359375 100.089844 65.03125 C 101.371094 64.371094 104.101562 62.585938 104.898438 61.886719 C 105.535156 61.332031 108.703125 59.167969 109.640625 58.644531 C 110.742188 58.03125 112.496094 56.945312 113.734375 56.105469 C 114.363281 55.679688 115.53125 54.910156 116.328125 54.394531 C 119.203125 52.542969 119.800781 52.125 119.957031 51.867188 Z M 124.21875 39.84375 C 123.4375 39.484375 122.640625 39.554688 117.84375 40.402344 C 117.253906 40.503906 116.289062 40.632812 115.699219 40.683594 C 114.289062 40.800781 114.140625 40.871094 113.808594 41.554688 C 113.617188 41.953125 112.933594 42.707031 111.644531 43.933594 C 110.609375 44.921875 109.367188 46.195312 108.886719 46.757812 C 108.246094 47.507812 107.722656 47.964844 106.933594 48.464844 C 106.34375 48.835938 105.011719 49.6875 103.976562 50.355469 C 102.9375 51.023438 101.902344 51.683594 101.671875 51.824219 C 101.4375 51.96875 100.910156 52.296875 100.492188 52.554688 C 100.078125 52.816406 99.410156 53.222656 99.011719 53.460938 C 98.609375 53.695312 98.285156 53.910156 98.285156 53.933594 C 98.285156 53.957031 98.640625 53.902344 99.074219 53.816406 C 99.507812 53.726562 100.457031 53.613281 101.1875 53.566406 C 101.914062 53.519531 103.390625 53.3125 104.46875 53.105469 C 105.542969 52.902344 107.078125 52.625 107.875 52.492188 C 108.671875 52.359375 109.523438 52.191406 109.769531 52.125 C 110.542969 51.90625 111.179688 51.84375 111.085938 51.996094 C 110.851562 52.375 108.175781 53.179688 105.226562 53.761719 C 103.34375 54.128906 102.722656 54.203125 98.863281 54.53125 C 97.183594 54.671875 97.085938 54.699219 96.46875 55.117188 C 96.113281 55.355469 95.3125 55.875 94.6875 56.269531 C 94.0625 56.667969 93.285156 57.195312 92.957031 57.445312 C 92.304688 57.941406 91.152344 58.425781 90.613281 58.429688 C 90.238281 58.429688 89.199219 59.027344 84.230469 62.101562 C 83.042969 62.839844 81.640625 63.660156 81.121094 63.925781 C 80.601562 64.191406 79.523438 64.761719 78.722656 65.1875 C 77.386719 65.90625 72.46875 68.460938 71.59375 68.894531 C 71.386719 68.996094 71.015625 69.21875 70.773438 69.390625 L 70.332031 69.695312 L 70.808594 69.628906 C 71.355469 69.546875 71.75 69.371094 75.316406 67.585938 C 77.882812 66.304688 79.589844 65.390625 80.804688 64.65625 C 81.152344 64.445312 82.035156 63.9375 82.761719 63.519531 C 83.492188 63.105469 84.371094 62.59375 84.71875 62.382812 C 85.066406 62.171875 86.34375 61.40625 87.558594 60.6875 C 88.769531 59.964844 90 59.195312 90.285156 58.976562 C 90.667969 58.683594 90.894531 58.597656 91.144531 58.648438 C 91.628906 58.738281 92.980469 58.183594 93.144531 57.828125 C 93.21875 57.667969 93.566406 57.402344 93.917969 57.230469 C 94.738281 56.835938 98.285156 55.980469 100.199219 55.71875 C 104.839844 55.082031 113.097656 52.332031 119.214844 49.382812 C 120.285156 48.867188 121.1875 48.449219 121.222656 48.449219 C 121.261719 48.449219 121.183594 48.5625 121.054688 48.707031 C 120.671875 49.128906 118.792969 50.121094 116.707031 51 C 110.210938 53.738281 107.871094 54.613281 104.847656 55.441406 C 101.640625 56.320312 100.898438 56.496094 97.875 57.09375 C 94.851562 57.695312 93.863281 57.976562 95.191406 57.863281 C 96.09375 57.785156 97.53125 57.605469 98.664062 57.433594 C 99.113281 57.363281 100.074219 57.242188 100.800781 57.164062 C 101.535156 57.082031 102.46875 56.886719 102.90625 56.71875 C 103.339844 56.558594 104.675781 56.15625 105.878906 55.832031 C 107.082031 55.503906 108.207031 55.183594 108.378906 55.117188 C 108.554688 55.046875 109.773438 54.664062 111.09375 54.261719 C 114.746094 53.152344 120.164062 51.035156 121.3125 50.269531 C 121.660156 50.039062 122.265625 49.519531 122.660156 49.117188 C 123.433594 48.320312 125.074219 46.210938 125.382812 45.609375 C 125.691406 45.011719 125.910156 43.910156 125.914062 42.933594 C 125.917969 42.164062 125.863281 41.921875 125.53125 41.292969 C 125.035156 40.347656 124.835938 40.128906 124.21875 39.84375 Z M 118.601562 45.496094 C 119.671875 45.097656 120.496094 44.925781 120.496094 45.097656 C 120.496094 45.207031 118.488281 46.175781 117.613281 46.488281 C 116.324219 46.949219 113.992188 47.609375 111.34375 48.261719 C 110.027344 48.589844 108.585938 48.992188 108.144531 49.15625 C 106.507812 49.769531 106.421875 49.40625 108.007812 48.601562 C 108.914062 48.144531 109.484375 47.976562 111.785156 47.484375 C 114.40625 46.925781 116.070312 46.441406 118.601562 45.496094 Z M 104.621094 50.582031 C 106.128906 49.609375 106.640625 49.4375 106.929688 49.808594 C 107 49.902344 107.171875 49.980469 107.308594 49.984375 C 107.714844 50 109.046875 49.824219 109.410156 49.710938 C 109.640625 49.636719 109.765625 49.652344 109.800781 49.753906 C 109.964844 50.199219 108.859375 51.59375 108.636719 51.230469 C 108.570312 51.125 108.570312 50.960938 108.640625 50.832031 C 108.707031 50.710938 108.753906 50.535156 108.753906 50.445312 C 108.75 50.355469 108.621094 50.519531 108.464844 50.816406 C 108.210938 51.304688 107.4375 51.984375 107.132812 51.984375 C 107.066406 51.984375 106.933594 52.058594 106.84375 52.148438 C 106.75 52.238281 106.195312 52.386719 105.601562 52.476562 C 103.660156 52.773438 101.636719 53.128906 101.140625 53.261719 C 100.207031 53.511719 100.445312 53.175781 101.78125 52.367188 C 102.519531 51.917969 103.796875 51.113281 104.621094 50.582031 Z M 123.523438 40.359375 C 123.523438 40.007812 123.703125 40.050781 124.070312 40.484375 C 124.960938 41.546875 125.34375 43.125 125.046875 44.535156 C 124.722656 46.089844 124.488281 45.867188 124.476562 43.992188 C 124.46875 42.621094 124.453125 42.539062 123.996094 41.589844 C 123.734375 41.046875 123.523438 40.496094 123.523438 40.359375 Z M 100.28125 54.921875 C 100.488281 54.726562 100.808594 54.714844 100.808594 54.902344 C 100.808594 54.980469 100.714844 55.007812 100.601562 54.964844 C 100.433594 54.898438 100.421875 54.917969 100.542969 55.066406 C 100.667969 55.214844 100.601562 55.261719 100.152344 55.335938 C 99.851562 55.386719 99.355469 55.527344 99.042969 55.648438 C 98.453125 55.878906 96.398438 56.203125 96.28125 56.085938 C 96.246094 56.050781 96.335938 55.898438 96.484375 55.75 C 96.828125 55.40625 98.097656 55.101562 99.230469 55.089844 C 99.75 55.082031 100.183594 55.015625 100.28125 54.921875 Z M 101.011719 27.96875 C 101.214844 27.742188 101.210938 27.730469 100.921875 27.738281 C 100.753906 27.742188 100.222656 27.851562 99.734375 27.984375 C 99.25 28.117188 98.3125 28.34375 97.652344 28.488281 C 95.417969 28.976562 92.546875 29.660156 91.722656 29.902344 C 88.988281 30.707031 83.683594 32.515625 82.835938 32.933594 C 82.285156 33.207031 80.953125 34.011719 79.871094 34.722656 C 77.246094 36.445312 75.691406 37.410156 75.367188 37.507812 C 75.21875 37.550781 74.738281 37.503906 74.292969 37.398438 C 73.851562 37.292969 73.351562 37.207031 73.183594 37.207031 C 72.839844 37.203125 72.296875 37.746094 71.105469 39.273438 C 67.949219 43.339844 67.667969 44.433594 69.613281 45.144531 C 70.023438 45.292969 70.417969 45.414062 70.492188 45.414062 C 70.679688 45.414062 71.679688 44.621094 74.046875 42.597656 C 76.277344 40.6875 77.5625 39.699219 78.914062 38.855469 C 79.398438 38.550781 79.9375 38.210938 80.113281 38.101562 C 80.945312 37.578125 84.898438 35.5625 85.089844 35.5625 C 85.113281 35.5625 86.035156 35.128906 87.136719 34.601562 C 88.234375 34.074219 89.875 33.296875 90.777344 32.878906 C 91.679688 32.460938 93.324219 31.644531 94.433594 31.070312 C 96.347656 30.078125 98.898438 28.910156 100.203125 28.425781 C 100.527344 28.304688 100.890625 28.097656 101.011719 27.96875 Z M 96.050781 54.210938 C 96.007812 54.167969 95.910156 54.136719 95.832031 54.144531 C 95.5625 54.167969 91.65625 56.601562 91.121094 57.078125 C 90.414062 57.714844 91.089844 57.703125 92.132812 57.0625 C 95.902344 54.753906 96.300781 54.460938 96.050781 54.210938 Z M 78.472656 25.339844 C 78.472656 25.167969 78.179688 25.179688 77.460938 25.382812 C 77.148438 25.46875 76.46875 25.644531 75.949219 25.765625 C 74.679688 26.070312 74.230469 26.265625 74.054688 26.597656 C 73.910156 26.863281 73.921875 26.875 74.328125 26.816406 C 75.953125 26.578125 78.472656 25.683594 78.472656 25.339844 Z M 69.933594 73.207031 C 70.195312 73.101562 70.191406 73.097656 69.890625 73.105469 C 68.746094 73.136719 62.546875 74.1875 62.183594 74.414062 C 62.128906 74.445312 62.144531 74.671875 62.210938 74.917969 C 62.390625 75.578125 62.308594 76.179688 62.035156 76.160156 C 61.914062 76.148438 61.84375 76.1875 61.878906 76.242188 C 61.996094 76.433594 62.628906 76.480469 63.644531 76.378906 C 64.199219 76.320312 64.46875 76.265625 64.238281 76.257812 C 64.011719 76.246094 63.632812 76.160156 63.402344 76.0625 C 63.042969 75.914062 62.960938 75.800781 62.886719 75.359375 C 62.839844 75.070312 62.820312 74.8125 62.84375 74.792969 C 62.925781 74.71875 67.289062 73.738281 68.484375 73.523438 C 69.132812 73.410156 69.785156 73.265625 69.933594 73.207031 Z M 59.59375 58.3125 C 58.824219 57.960938 58.113281 57.671875 58.015625 57.679688 C 57.375 57.714844 57.367188 58.105469 57.996094 58.398438 C 58.257812 58.519531 59.378906 59.105469 60.488281 59.699219 C 61.601562 60.296875 62.894531 60.972656 63.367188 61.207031 L 64.230469 61.628906 L 65.074219 61.460938 C 65.535156 61.371094 65.988281 61.269531 66.074219 61.238281 C 66.441406 61.101562 66.171875 60.867188 65.316406 60.589844 C 63.960938 60.152344 61.1875 59.046875 59.59375 58.3125 Z M 38.019531 63.507812 C 37.976562 63.320312 37.929688 63.113281 37.914062 63.050781 C 37.859375 62.804688 37.585938 63.984375 37.585938 64.476562 C 37.585938 64.765625 37.5 65.207031 37.394531 65.457031 C 37.078125 66.222656 37.144531 66.816406 37.59375 67.195312 C 37.808594 67.375 38.023438 67.523438 38.070312 67.523438 C 38.113281 67.523438 38.691406 67.613281 39.351562 67.726562 C 40.839844 67.980469 43.972656 68.007812 45.820312 67.785156 C 47.078125 67.636719 47.203125 67.640625 47.5625 67.859375 C 47.800781 68 48.136719 68.425781 48.421875 68.957031 C 48.679688 69.429688 48.972656 69.867188 49.074219 69.925781 C 49.328125 70.066406 51.734375 69.382812 51.898438 69.125 C 52.019531 68.933594 51.710938 67.390625 51.445312 66.863281 C 51.304688 66.585938 50.71875 66.4375 49.078125 66.265625 C 47.855469 66.140625 45.511719 65.769531 43.074219 65.316406 C 39.578125 64.671875 38.160156 64.164062 38.019531 63.507812 Z M 39.789062 73.480469 C 39.632812 71.574219 39.476562 71.640625 39.535156 73.585938 C 39.570312 74.601562 39.542969 75.503906 39.476562 75.609375 C 39.390625 75.75 39.113281 75.796875 38.378906 75.796875 C 37.839844 75.796875 37.199219 75.769531 36.953125 75.734375 C 36.574219 75.679688 36.511719 75.707031 36.511719 75.921875 C 36.511719 76.144531 36.609375 76.179688 37.324219 76.214844 C 38.523438 76.269531 43.59375 75.4375 44.125 75.09375 C 44.289062 74.992188 44.21875 74.976562 43.832031 75.03125 C 41.632812 75.347656 40.480469 75.46875 40.316406 75.40625 C 40.046875 75.304688 39.890625 74.722656 39.789062 73.480469 Z M 33.980469 72.339844 C 34.59375 71.953125 34.933594 71.847656 34.933594 72.042969 C 34.933594 72.09375 34.4375 72.488281 33.832031 72.917969 C 33.222656 73.347656 32.1875 74.179688 31.527344 74.765625 C 30.09375 76.042969 29.882812 76.085938 30.898438 74.902344 C 31.335938 74.386719 33.230469 72.8125 33.980469 72.339844 Z M 95.191406 73.152344 C 95.609375 73.058594 96.148438 72.976562 96.390625 72.972656 C 97.964844 72.9375 93.78125 73.777344 91.785156 73.894531 C 90.035156 74 90.621094 73.773438 92.769531 73.519531 C 93.683594 73.410156 94.777344 73.246094 95.191406 73.152344 Z M 73.425781 78.753906 C 74.5 78.554688 80.777344 78.761719 81.40625 79.011719 C 81.648438 79.113281 81.617188 79.128906 81.183594 79.136719 C 79.878906 79.164062 73.035156 78.824219 73.425781 78.753906 Z M 77.96875 81.253906 C 81.40625 81.054688 83.703125 81.023438 84.84375 81.152344 L 85.601562 81.238281 L 84.972656 81.328125 C 84.625 81.378906 83.6875 81.476562 82.890625 81.546875 C 79.917969 81.800781 77.394531 82.070312 77.210938 82.152344 C 77.105469 82.199219 78.441406 82.265625 80.175781 82.304688 C 82.804688 82.363281 83.414062 82.414062 83.832031 82.597656 C 84.230469 82.773438 84.296875 82.84375 84.148438 82.9375 C 84.046875 83.003906 83.847656 83.0625 83.707031 83.074219 C 83.570312 83.082031 83.683594 83.140625 83.960938 83.203125 C 84.238281 83.265625 84.511719 84.222656 84.683594 84.390625 C 84.859375 84.570312 90.921875 87.355469 85.539062 87.375 C 82.378906 87.386719 79.855469 87.414062 79.921875 87.433594 C 80.804688 87.691406 87.003906 88.679688 88.882812 88.859375 C 89.644531 88.933594 89.632812 89.25 87.433594 88.9375 C 86.703125 88.835938 84.886719 88.640625 83.394531 88.503906 C 80.425781 88.234375 80.339844 88.226562 75.363281 87.863281 C 70.171875 87.484375 67.328125 87.253906 64.273438 86.976562 C 62.75 86.839844 60.191406 86.613281 58.597656 86.472656 C 49.460938 85.679688 44.398438 85.117188 42.066406 84.636719 C 41.234375 84.464844 39.652344 84.179688 38.550781 84.003906 C 37.453125 83.828125 36.394531 83.605469 36.199219 83.503906 C 35.585938 83.1875 29.453125 82.355469 35.566406 81.921875 C 40.792969 81.550781 48.289062 81.410156 62.257812 81.417969 C 71.566406 81.425781 75.6875 81.382812 77.96875 81.253906 Z M 33.609375 86.15625 C 32.570312 86.050781 34.066406 85.773438 34.933594 85.839844 C 38.441406 86.097656 40.09375 86.234375 41.054688 86.34375 C 41.609375 86.410156 43.21875 86.550781 44.628906 86.664062 C 46.039062 86.773438 47.742188 86.941406 48.414062 87.03125 L 49.636719 87.199219 L 48.648438 87.214844 C 47.679688 87.230469 45.855469 87.09375 40.273438 86.59375 C 38.730469 86.457031 37.027344 86.34375 36.488281 86.34375 C 35.945312 86.339844 34.652344 86.257812 33.609375 86.15625 Z M 69.828125 89.761719 C 68.996094 89.636719 68.457031 89.527344 68.628906 89.519531 C 69.125 89.5 73.023438 89.859375 75.316406 90.136719 C 76.460938 90.273438 78.476562 90.503906 79.792969 90.644531 C 82.253906 90.910156 83.15625 91.117188 81.25 90.976562 C 80.660156 90.929688 79.238281 90.785156 78.09375 90.652344 C 76.949219 90.515625 74.960938 90.3125 73.675781 90.199219 C 72.394531 90.085938 70.660156 89.890625 69.828125 89.761719 Z M 69.828125 89.761719 " fill-opacity="1" fill-rule="evenodd"/></g><g fill="#1f1f1f" fill-opacity="1"><g transform="translate(140.024332, 85.721477)"><g><path d="M 44.484375 -21.59375 C 44.484375 -18.101562 43.472656 -14.488281 41.453125 -10.75 C 39.441406 -7.007812 36.597656 -4.082031 32.921875 -1.96875 C 29.242188 0.144531 25.289062 1.203125 21.0625 1.203125 C 15.976562 1.203125 11.851562 -0.289062 8.6875 -3.28125 C 5.519531 -6.28125 3.9375 -10.222656 3.9375 -15.109375 C 3.9375 -19.140625 5 -22.859375 7.125 -26.265625 C 9.25 -29.671875 12.144531 -32.375 15.8125 -34.375 C 19.476562 -36.375 23.257812 -37.375 27.15625 -37.375 C 30.257812 -37.375 33.160156 -36.703125 35.859375 -35.359375 C 38.566406 -34.015625 40.679688 -32.148438 42.203125 -29.765625 C 43.722656 -27.390625 44.484375 -24.664062 44.484375 -21.59375 Z M 22.5 -7.921875 C 24.675781 -7.921875 26.679688 -8.519531 28.515625 -9.71875 C 30.359375 -10.914062 31.820312 -12.460938 32.90625 -14.359375 C 34 -16.265625 34.546875 -18.148438 34.546875 -20.015625 C 34.546875 -22.316406 33.671875 -24.265625 31.921875 -25.859375 C 30.179688 -27.460938 28.097656 -28.265625 25.671875 -28.265625 C 23.785156 -28.265625 21.914062 -27.75 20.0625 -26.71875 C 18.207031 -25.695312 16.710938 -24.320312 15.578125 -22.59375 C 14.441406 -20.875 13.875 -18.957031 13.875 -16.84375 C 13.875 -14.25 14.679688 -12.113281 16.296875 -10.4375 C 17.910156 -8.757812 19.976562 -7.921875 22.5 -7.921875 Z M 22.5 -7.921875 "/></g></g></g><g fill="#1f1f1f" fill-opacity="1"><g transform="translate(177.493992, 85.721477)"><g><path d="M 23.078125 -36.1875 C 26.335938 -36.1875 28.953125 -35.414062 30.921875 -33.875 C 32.890625 -32.34375 33.875 -30.132812 33.875 -27.25 C 33.875 -24.1875 32.960938 -21.476562 31.140625 -19.125 C 29.316406 -16.769531 26.984375 -15.335938 24.140625 -14.828125 L 33.15625 0 L 21.453125 0 L 14.78125 -13.921875 L 14.6875 -13.921875 L 12.46875 0 L 3.078125 0 L 8.78125 -36.1875 Z M 15.640625 -19.96875 L 16.9375 -19.96875 C 19.144531 -19.96875 20.851562 -20.429688 22.0625 -21.359375 C 23.28125 -22.285156 23.890625 -23.644531 23.890625 -25.4375 C 23.890625 -27.800781 21.941406 -28.984375 18.046875 -28.984375 L 17.078125 -28.984375 Z M 15.640625 -19.96875 "/></g></g></g><g clip-path="url(#9cbd8eb260)"><path stroke-linecap="butt" transform="matrix(0.899661, 0, 0, 0.899661, 18.908902, 38.039443)" fill="none" stroke-linejoin="miter" d="M 19.179624 12.795195 L 22.058312 38.755494 L 22.162518 38.755494 L 34.688938 12.795195 L 43.008043 12.795195 L 46.798533 38.755494 L 46.902739 38.755494 L 58.59117 12.795195 L 69.46332 12.795195 L 50.272064 53.001311 L 39.5953 53.001311 L 36.239001 29.693921 L 36.134795 29.693921 L 24.559254 53.001311 L 13.947619 53.001311 L 8.294448 12.795195 Z M 89.670584 12.795195 L 98.471642 53.001311 L 87.325951 53.001311 L 85.841016 46.006488 L 71.443232 46.006488 L 67.548536 53.001311 L 56.454948 53.001311 L 78.264378 12.795195 Z M 75.594101 38.013026 L 84.290953 38.013026 L 82.054868 25.217408 L 81.950662 25.217408 Z M 112.865084 12.795195 L 107.906619 44.14815 L 120.446064 44.14815 L 119.065336 53.001311 L 96.070564 53.001311 L 102.427124 12.795195 Z M 133.610745 12.795195 L 131.005597 29.368277 L 131.109803 29.368277 L 146.358602 12.795195 L 159.323554 12.795195 L 140.327684 31.830142 L 154.417192 53.001311 L 140.861739 53.001311 L 130.145898 35.564187 L 130.041692 35.564187 L 127.271551 53.001311 L 116.816225 53.001311 L 123.168443 12.795195 Z M 133.610745 12.795195 " stroke="#000000" stroke-width="5.399997" stroke-opacity="1" stroke-miterlimit="4"/></g><g fill="#ffffff" fill-opacity="1"><g transform="translate(21.38297, 85.721477)"><g><path d="M 14.78125 -36.1875 L 17.375 -12.8125 L 17.46875 -12.8125 L 28.75 -36.1875 L 36.234375 -36.1875 L 39.640625 -12.8125 L 39.734375 -12.8125 L 50.234375 -36.1875 L 60.03125 -36.1875 L 42.75 0 L 33.15625 0 L 30.140625 -20.96875 L 30.03125 -20.96875 L 19.625 0 L 10.078125 0 L 4.984375 -36.1875 Z M 14.78125 -36.1875 "/></g></g></g><g fill="#ffffff" fill-opacity="1"><g transform="translate(69.887371, 85.721477)"><g><path d="M 29.703125 -36.1875 L 37.625 0 L 27.59375 0 L 26.25 -6.28125 L 13.296875 -6.28125 L 9.78125 0 L -0.1875 0 L 19.4375 -36.1875 Z M 17.03125 -13.484375 L 24.859375 -13.484375 L 22.84375 -25 L 22.75 -25 Z M 17.03125 -13.484375 "/></g></g></g><g fill="#ffffff" fill-opacity="1"><g transform="translate(102.271454, 85.721477)"><g><path d="M 18.1875 -36.1875 L 13.71875 -7.96875 L 25 -7.96875 L 23.75 0 L 3.078125 0 L 8.78125 -36.1875 Z M 18.1875 -36.1875 "/></g></g></g><g fill="#ffffff" fill-opacity="1"><g transform="translate(120.934073, 85.721477)"><g><path d="M 18.1875 -36.1875 L 15.828125 -21.25 L 15.9375 -21.25 L 29.65625 -36.1875 L 41.3125 -36.1875 L 24.234375 -19.046875 L 36.90625 0 L 24.71875 0 L 15.0625 -15.6875 L 14.96875 -15.6875 L 12.46875 0 L 3.078125 0 L 8.78125 -36.1875 Z M 18.1875 -36.1875 "/></g></g></g><g clip-path="url(#f3f7e40b4c)"><path stroke-linecap="butt" transform="matrix(0.899661, 0, 0, 0.899661, 200.488774, 38.039443)" fill="none" stroke-linejoin="miter" d="M 25.651475 12.795195 C 29.276973 12.795195 32.186054 13.650552 34.374379 15.361266 C 36.558361 17.058954 37.652523 19.507793 37.652523 22.703441 C 37.652523 26.120526 36.636515 29.138156 34.608842 31.751988 C 32.58551 34.365819 29.989046 35.950618 26.81945 36.515066 L 36.844927 53.001311 L 23.840897 53.001311 L 16.429252 37.531074 L 16.31202 37.531074 L 13.867523 53.001311 L 3.412196 53.001311 L 9.764415 12.795195 Z M 17.380131 30.814134 L 18.825988 30.814134 C 21.283511 30.814134 23.185269 30.297447 24.531262 29.264071 C 25.885938 28.230696 26.558935 26.71971 26.558935 24.735456 C 26.558935 22.104257 24.39232 20.788657 20.050407 20.788657 L 18.982297 20.788657 Z M 50.608792 12.795195 L 47.300254 34.018466 C 46.978952 35.93325 46.818302 37.496339 46.818302 38.703391 C 46.818302 40.735406 47.252493 42.276785 48.120876 43.327528 C 48.997942 44.369587 50.504586 44.890617 52.640807 44.890617 C 55.232929 44.890617 57.212842 44.048286 58.576202 42.363623 C 59.948247 40.670277 60.899126 38.008684 61.428839 34.383187 L 64.798164 12.795195 L 75.240465 12.795195 L 71.623651 35.928908 C 70.911578 40.626858 69.682816 44.204595 67.937367 46.657775 C 66.191918 49.106614 63.873336 50.956269 60.972938 52.20674 C 58.081224 53.448528 54.824789 54.069421 51.19495 54.069421 C 46.288588 54.069421 42.52415 53.009994 39.89295 50.891141 C 37.261751 48.772287 35.946151 45.689529 35.946151 41.647208 C 35.946151 40.900399 35.980886 40.084119 36.050357 39.198369 C 36.119828 38.303935 37.48753 29.502877 40.153465 12.795195 Z M 86.651013 12.795195 L 101.912837 37.374765 L 102.017043 37.374765 L 105.907397 12.795195 L 116.362724 12.795195 L 110.010505 53.001311 L 99.568204 53.001311 L 84.310722 28.365295 L 84.206516 28.365295 L 80.31182 53.001311 L 69.856493 53.001311 L 76.208712 12.795195 Z M 86.651013 12.795195 " stroke="#000000" stroke-width="5.399997" stroke-opacity="1" stroke-miterlimit="4"/></g><g fill="#ffffff" fill-opacity="1"><g transform="translate(200.488774, 85.721477)"><g><path d="M 23.078125 -36.1875 C 26.335938 -36.1875 28.953125 -35.414062 30.921875 -33.875 C 32.890625 -32.34375 33.875 -30.132812 33.875 -27.25 C 33.875 -24.1875 32.960938 -21.476562 31.140625 -19.125 C 29.316406 -16.769531 26.984375 -15.335938 24.140625 -14.828125 L 33.15625 0 L 21.453125 0 L 14.78125 -13.921875 L 14.6875 -13.921875 L 12.46875 0 L 3.078125 0 L 8.78125 -36.1875 Z M 15.640625 -19.96875 L 16.9375 -19.96875 C 19.144531 -19.96875 20.851562 -20.429688 22.0625 -21.359375 C 23.28125 -22.285156 23.890625 -23.644531 23.890625 -25.4375 C 23.890625 -27.800781 21.941406 -28.984375 18.046875 -28.984375 L 17.078125 -28.984375 Z M 15.640625 -19.96875 "/></g></g></g><g fill="#ffffff" fill-opacity="1"><g transform="translate(228.027157, 85.721477)"><g><path d="M 18 -36.1875 L 15.015625 -17.078125 C 14.734375 -15.347656 14.59375 -13.941406 14.59375 -12.859375 C 14.59375 -11.035156 14.984375 -9.648438 15.765625 -8.703125 C 16.546875 -7.765625 17.894531 -7.296875 19.8125 -7.296875 C 22.15625 -7.296875 23.941406 -8.054688 25.171875 -9.578125 C 26.398438 -11.097656 27.253906 -13.488281 27.734375 -16.75 L 30.765625 -36.1875 L 40.15625 -36.1875 L 36.90625 -15.359375 C 36.257812 -11.128906 35.148438 -7.910156 33.578125 -5.703125 C 32.015625 -3.503906 29.929688 -1.84375 27.328125 -0.71875 C 24.722656 0.394531 21.785156 0.953125 18.515625 0.953125 C 14.109375 0.953125 10.71875 0.00390625 8.34375 -1.890625 C 5.976562 -3.796875 4.796875 -6.570312 4.796875 -10.21875 C 4.796875 -10.894531 4.828125 -11.628906 4.890625 -12.421875 C 4.953125 -13.222656 6.1875 -21.144531 8.59375 -36.1875 Z M 18 -36.1875 "/></g></g></g><g fill="#ffffff" fill-opacity="1"><g transform="translate(260.267305, 85.721477)"><g><path d="M 18.1875 -36.1875 L 31.90625 -14.0625 L 32 -14.0625 L 35.515625 -36.1875 L 44.90625 -36.1875 L 39.203125 0 L 29.796875 0 L 16.078125 -22.171875 L 15.984375 -22.171875 L 12.46875 0 L 3.078125 0 L 8.78125 -36.1875 Z M 18.1875 -36.1875 "/></g></g></g></svg>